<!--?xml version="1.0" standalone="no"?-->
              <svg id="sw-js-blob-svg" viewBox="0 0 100 100" xmlns="http://www.w3.org/2000/svg" version="1.1">
                    <defs> 
                        <linearGradient id="sw-gradient" x1="0" x2="1" y1="1" y2="0">
                            <stop id="stop1" stop-color="rgba(51, 209, 204, 1)" offset="0%"></stop>
                            <stop id="stop2" stop-color="rgba(13, 110, 253, 1)" offset="100%"></stop>
                        </linearGradient>
                    </defs>
                <path fill="url(#sw-gradient)" d="M28.9,-33.7C36.6,-28.1,41.1,-18.1,41.3,-8.5C41.6,1,37.4,10.1,31.5,16.2C25.7,22.3,18,25.4,10.5,27.4C3.1,29.4,-4.2,30.4,-12.8,29.7C-21.5,28.9,-31.6,26.5,-35.6,20.2C-39.7,13.9,-37.7,3.8,-34.1,-4.2C-30.5,-12.2,-25.4,-18.2,-19.4,-24.1C-13.5,-30.1,-6.7,-36,2,-38.3C10.7,-40.7,21.3,-39.4,28.9,-33.7Z" width="100%" height="100%" transform="translate(50 50)" stroke-width="0" style="transition: all 0.3s ease 0s;" stroke="url(#sw-gradient)"></path>
              </svg>