<?xml version="1.0" encoding="utf-8"?>
<!-- Generator: Adobe Illustrator 26.3.0, SVG Export Plug-In . SVG Version: 6.00 Build 0)  -->
<svg version="1.1" id="Layer_1" xmlns="http://www.w3.org/2000/svg" xmlns:xlink="http://www.w3.org/1999/xlink" x="0px" y="0px"
	 viewBox="0 0 500 500" style="enable-background:new 0 0 500 500;" xml:space="preserve">
<style type="text/css">
	.st0{fill:#F5F5F5;}
	.st1{fill:#EBEBEB;}
	.st2{fill:#E0E0E0;}
	.st3{display:none;}
	.st4{display:inline;fill:#F5F5F5;}
	.st5{fill:#263238;}
	.st6{fill:#FF725E;}
	.st7{fill:#FAFAFA;}
	.st8{fill:#455A64;}
	.st9{fill:#FFFFFF;}
	.st10{opacity:0.6;}
	.st11{fill:#AE7461;}
	.st12{fill:#6F4439;}
	.st13{fill:#0D6EFD;}
	.st14{fill:#33D1CC;}
	.st15{opacity:0.3;enable-background:new    ;}
	.st16{fill:#FFBF9D;}
	.st17{fill:#FF9A6C;}
	.st18{display:inline;fill:#33D1CC;}
	.st19{display:inline;}
	.st20{fill:none;}
</style>
<g id="Background_Complete">
	<g>
		<g>
			<g>
				<path class="st0" d="M458,97.2c-0.9-2.4-1.8-4.9-3.3-6.9c-1.5-2.1-3.7-3.8-6.3-4.1c-2.6-0.3-5.4,1.1-6.2,3.5
					c-0.4-5.5-1.1-11.1-3.9-15.9s-7.9-8.5-13.4-8.2c-5.2,0.3-9.6,4.2-12.1,8.7c-2.5,4.6-3.3,9.8-4.1,14.9c-2-2.4-6.1-1.7-8.2,0.7
					c-2,2.3-2.6,5.6-3,8.7h61.8L458,97.2z"/>
			</g>
		</g>
	</g>
	<g>
		<g>
			<g>
				<path class="st0" d="M281.3,135.4c-0.9-2.4-1.8-4.9-3.3-6.9c-1.5-2.1-3.7-3.8-6.3-4.1c-2.6-0.3-5.4,1.1-6.2,3.5
					c-0.4-5.5-1.1-11.1-3.9-15.9s-7.9-8.5-13.4-8.2c-5.2,0.3-9.6,4.2-12.1,8.7c-2.5,4.6-3.3,9.8-4.1,14.9c-2-2.4-6.1-1.7-8.2,0.7
					c-2.1,2.3-2.6,5.6-3,8.7h61.8L281.3,135.4z"/>
			</g>
		</g>
	</g>
	<g>
		<g>
			<g>
				<path class="st0" d="M96.7,86.8c-0.9-2.4-1.8-4.9-3.3-6.9c-1.5-2.1-3.7-3.8-6.3-4.1c-2.6-0.3-5.4,1.1-6.2,3.5
					c-0.4-5.5-1.1-11.1-3.9-15.9s-7.9-8.5-13.4-8.2c-5.2,0.3-9.6,4.2-12.1,8.7s-3.3,9.8-4.1,14.9c-2-2.4-6.1-1.7-8.2,0.7
					c-2,2.3-2.6,5.6-3,8.7H98L96.7,86.8z"/>
			</g>
		</g>
	</g>
	<g>
		<g>
			<g>
				<g>
					<g>
						<g>
							<rect x="188.6" y="289.3" class="st0" width="16.1" height="55.5"/>
						</g>
					</g>
				</g>
			</g>
		</g>
		<g>
			<g>
				<g>
					<g>
						<g>
							<path class="st1" d="M257.9,289.1c0,0-0.8-0.5,1-2.8s-1-3.5-1-3.5c-7.6,4.4-18.3,0-18.3,0s12.6-3.9,14.1-7.6
								c1.2-2.8-0.9-3.1-2-3c1.3-0.1,4.1-0.6,4.9-2.1c1.1-1.9-3.3-4.2-3.3-4.2s0.7-1.1,0-3s-17.1-4.8-17.1-4.8
								c4.8,0.5,6.5-4.2,6.5-4.2s8.1,0.2,10-3s-1.3-4.1-6.7-6.7c-5.4-2.6-17.3-12.5-17.3-12.5s7.5-0.7,9.5-2.5
								c2.1-1.8,0.2-2.1,0.2-2.1c8.9,0.9,5.9-3.9,5.9-3.9c-11.9-3.7-18.3-11.8-18.3-11.8s5.6-1.2,8.4-3.9c2.9-2.6-2.4-3.4-2.4-3.4
								s10.5-1.4,4.4-5.3c-4.6-2.9-11.9-6.9-14.2-8.1c2.5,0.9,8.2-0.2,8.2-0.2c6.7-3,0-7.4,0-7.4c-7.8-4.4-19.2-15.5-19.2-15.5
								s5.7,3,8.6,2.1c2.9-0.9-3.2-4.4-3.2-4.4s3,0.9,4.3,0s-3.3-4.9-3.3-4.9c-6.9-4.4-15.3-16.1-18.8-21.2
								c-3.5,5-12,16.7-18.8,21.2c0,0-4.6,4.1-3.3,4.9c1.3,0.9,4.3,0,4.3,0s-6,3.5-3.2,4.4c2.9,0.9,8.6-2.1,8.6-2.1
								s-11.4,11.1-19.2,15.5c0,0-6.7,4.4,0,7.4c0,0,5.7,1.1,8.2,0.2c-2.3,1.2-9.6,5.1-14.2,8.1c-6,3.9,4.4,5.3,4.4,5.3
								s-5.2,0.7-2.4,3.4c2.9,2.6,8.4,3.9,8.4,3.9s-6.4,8.1-18.3,11.8c0,0-3,4.8,5.9,3.9c0,0-1.9,0.4,0.2,2.1s9.5,2.5,9.5,2.5
								s-11.9,9.9-17.3,12.5s-8.6,3.5-6.7,6.7c1.9,3.2,10,3,10,3s1.8,4.8,6.5,4.2c0,0-16.4,2.8-17.1,4.8c-0.7,1.9,0,3,0,3
								s-4.4,2.3-3.3,4.2c0.9,1.5,3.6,1.9,4.9,2.1c-1.1,0-3.2,0.3-2,3c1.6,3.7,14.1,7.6,14.1,7.6s-10.6,4.4-18.3,0
								c0,0-2.7,1.2-0.9,3.5s0.9,2.8,0.9,2.8s-4-3-2.2,1.6s11,7.4,11,7.4s-5.2,0.9-3.7,3.7s8.3,6.2,15.6,6.9s17.2-1.9,17.2-1.9
								s-6.7,3.5-2.1,5.5c4.6,1.9,9.9-2.5,9.9-2.5s-0.9,4.5,2.9,3c3.8-1.5,7-4.5,7-4.5s1.2,6.6,3.6,5.1c2.4,1.6,3.6-5.1,3.6-5.1
								s3.2,3,7,4.5s2.9-3,2.9-3s5.2,4.4,9.9,2.5s-2.1-5.5-2.1-5.5s9.9,2.6,17.2,1.9s14-4,15.6-6.9s-3.7-3.7-3.7-3.7s9.2-2.8,11-7.4
								C261.9,286.1,257.9,289.1,257.9,289.1z"/>
						</g>
					</g>
				</g>
			</g>
		</g>
		<g>
			<g>
				<g>
					<g>
						<g>
							<path d="M222.1,183.7c-0.1,0-0.2-0.1-0.2-0.1C221.9,183.6,222,183.7,222.1,183.7z"/>
						</g>
					</g>
				</g>
			</g>
		</g>
	</g>
	<g>
		<g>
			<g>
				<g>
					<g>
						<g>
							<rect x="50.2" y="309.7" class="st1" width="10.2" height="34.9"/>
						</g>
					</g>
				</g>
			</g>
		</g>
		<g>
			<g>
				<g>
					<g>
						<g>
							<path class="st2" d="M93.8,309.6c0,0-0.5-0.3,0.6-1.8s-0.6-2.2-0.6-2.2c-4.8,2.8-11.5,0-11.5,0s7.9-2.4,8.9-4.8
								c0.8-1.7-0.6-1.9-1.3-1.9c0.8-0.1,2.6-0.4,3.1-1.3c0.7-1.2-2.1-2.7-2.1-2.7s0.4-0.7,0-1.9s-10.8-3-10.8-3
								c3,0.3,4.1-2.7,4.1-2.7s5.1,0.1,6.3-1.9c1.2-2-0.8-2.5-4.2-4.2c-3.4-1.7-10.9-7.9-10.9-7.9s4.7-0.4,6-1.5s0.1-1.3,0.1-1.3
								c5.6,0.5,3.7-2.4,3.7-2.4c-7.5-2.3-11.5-7.4-11.5-7.4s3.5-0.8,5.3-2.4s-1.5-2.1-1.5-2.1s6.6-0.9,2.8-3.3
								c-2.9-1.9-7.5-4.4-8.9-5.1c1.6,0.6,5.2-0.1,5.2-0.1c4.2-1.9,0-4.7,0-4.7c-4.9-2.8-12.1-9.8-12.1-9.8s3.6,1.9,5.4,1.3
								c1.8-0.6-2-2.8-2-2.8s1.9,0.6,2.7,0c0.8-0.6-2.1-3.1-2.1-3.1c-4.3-2.8-9.6-10.2-11.9-13.3c-2.2,3.2-7.5,10.5-11.9,13.3
								c0,0-2.9,2.6-2.1,3.1c0.8,0.6,2.7,0,2.7,0s-3.8,2.2-2,2.8s5.4-1.3,5.4-1.3s-7.2,7-12.1,9.8c0,0-4.2,2.8,0,4.7
								c0,0,3.6,0.7,5.2,0.1c-1.4,0.8-6.1,3.2-9,5.1c-3.8,2.4,2.8,3.3,2.8,3.3s-3.3,0.4-1.5,2.1s5.3,2.4,5.3,2.4s-4,5.1-11.5,7.4
								c0,0-1.9,3,3.7,2.4c0,0-1.2,0.2,0.1,1.3c1.3,1.1,6,1.5,6,1.5s-7.5,6.2-10.9,7.9c-3.4,1.7-5.4,2.2-4.2,4.2s6.3,1.9,6.3,1.9
								s1.1,3,4.1,2.7c0,0-10.3,1.8-10.8,3s0,1.9,0,1.9s-2.8,1.4-2,2.7c0.5,0.9,2.3,1.2,3.1,1.3c-0.7,0-2,0.2-1.3,1.9
								c1,2.3,8.9,4.8,8.9,4.8s-6.7,2.8-11.5,0c0,0-1.7,0.8-0.6,2.2s0.6,1.8,0.6,1.8s-2.5-1.9-1.4,1s6.9,4.7,6.9,4.7
								s-3.3,0.5-2.3,2.3s5.2,3.9,9.8,4.3s10.8-1.2,10.8-1.2s-4.2,2.2-1.3,3.4s6.2-1.5,6.2-1.5s-0.6,2.8,1.8,1.9
								c2.4-1,4.4-2.9,4.4-2.9s0.8,4.2,2.2,3.2c1.5,1,2.2-3.2,2.2-3.2s2,1.9,4.4,2.9c2.4,1,1.8-1.9,1.8-1.9s3.3,2.8,6.2,1.5
								c2.9-1.2-1.3-3.4-1.3-3.4s6.2,1.7,10.8,1.2c4.6-0.4,8.8-2.5,9.8-4.3s-2.3-2.3-2.3-2.3s5.8-1.8,6.9-4.7
								C96.3,307.7,93.8,309.6,93.8,309.6z"/>
						</g>
					</g>
				</g>
			</g>
		</g>
		<g>
			<g>
				<g>
					<g>
						<g>
							<path d="M71.3,243.2c-0.1,0-0.1-0.1-0.2-0.1C71.2,243.2,71.2,243.2,71.3,243.2z"/>
						</g>
					</g>
				</g>
			</g>
		</g>
	</g>
	<g>
		<g>
			<g>
				<g>
					<g>
						<g>
							<rect x="306.9" y="309.9" class="st1" width="10.2" height="34.9"/>
						</g>
					</g>
				</g>
			</g>
		</g>
		<g>
			<g>
				<g>
					<g>
						<g>
							<path class="st2" d="M350.6,309.7c0,0-0.5-0.3,0.6-1.8s-0.6-2.2-0.6-2.2c-4.8,2.8-11.5,0-11.5,0s7.9-2.4,8.9-4.8
								c0.8-1.7-0.6-1.9-1.3-1.9c0.8-0.1,2.5-0.4,3.1-1.3c0.7-1.2-2-2.7-2-2.7s0.5-0.7,0-1.9s-10.8-3-10.8-3c3,0.3,4.1-2.7,4.1-2.7
								s5.1,0.1,6.3-1.9c1.2-2-0.8-2.5-4.2-4.2c-3.4-1.7-10.9-7.9-10.9-7.9s4.7-0.4,6-1.5s0.1-1.3,0.1-1.3c5.6,0.5,3.7-2.4,3.7-2.4
								c-7.5-2.3-11.5-7.4-11.5-7.4s3.5-0.8,5.3-2.4s-1.5-2.1-1.5-2.1s6.6-0.9,2.8-3.3c-2.9-1.9-7.5-4.4-9-5.1
								c1.6,0.6,5.1-0.1,5.1-0.1c4.2-1.9,0-4.7,0-4.7c-4.9-2.8-12.1-9.8-12.1-9.8s3.6,1.9,5.4,1.3c1.8-0.6-2-2.8-2-2.8
								s1.9,0.6,2.7,0c0.8-0.6-2.1-3.1-2.1-3.1c-4.3-2.8-9.6-10.2-11.9-13.3c-2.2,3.2-7.5,10.5-11.9,13.3c0,0-2.9,2.6-2.1,3.1
								c0.8,0.6,2.7,0,2.7,0s-3.8,2.2-2,2.8s5.4-1.3,5.4-1.3s-7.2,7-12.1,9.8c0,0-4.2,2.8,0,4.7c0,0,3.6,0.7,5.1,0.1
								c-1.4,0.8-6.1,3.2-9,5.1c-3.8,2.4,2.8,3.3,2.8,3.3s-3.3,0.4-1.5,2.1s5.3,2.4,5.3,2.4s-4,5.1-11.5,7.4c0,0-1.9,3,3.7,2.4
								c0,0-1.2,0.2,0.1,1.3c1.3,1.1,6,1.5,6,1.5s-7.5,6.2-10.9,7.9c-3.4,1.7-5.4,2.2-4.2,4.2c1.2,2,6.3,1.9,6.3,1.9s1.1,3,4.1,2.7
								c0,0-10.3,1.8-10.8,3s0,1.9,0,1.9s-2.8,1.4-2,2.7c0.5,0.9,2.3,1.2,3.1,1.3c-0.7,0-2,0.2-1.3,1.9c1,2.3,8.9,4.8,8.9,4.8
								s-6.7,2.8-11.5,0c0,0-1.7,0.8-0.6,2.2s0.6,1.8,0.6,1.8s-2.5-1.9-1.4,1s6.9,4.7,6.9,4.7s-3.3,0.5-2.3,2.3s5.2,3.9,9.8,4.3
								c4.6,0.4,10.8-1.2,10.8-1.2s-4.2,2.2-1.3,3.4c2.9,1.2,6.2-1.5,6.2-1.5s-0.6,2.8,1.8,1.9s4.4-2.9,4.4-2.9s0.8,4.2,2.2,3.2
								c1.5,1,2.2-3.2,2.2-3.2s2,1.9,4.4,2.9s1.8-1.9,1.8-1.9s3.3,2.8,6.2,1.5c2.9-1.2-1.3-3.4-1.3-3.4s6.2,1.7,10.8,1.2
								c4.6-0.4,8.8-2.5,9.8-4.3s-2.3-2.3-2.3-2.3s5.8-1.8,6.9-4.7C353.1,307.8,350.6,309.7,350.6,309.7z"/>
						</g>
					</g>
				</g>
			</g>
		</g>
		<g>
			<g>
				<g>
					<g>
						<g>
							<path d="M328,243.4c0,0-0.1-0.1-0.2-0.1C327.9,243.4,328,243.4,328,243.4z"/>
						</g>
					</g>
				</g>
			</g>
		</g>
	</g>
	<g>
		<g>
			<g>
				<g>
					<g>
						<g>
							<rect x="416.4" y="296.7" class="st1" width="14" height="48.1"/>
						</g>
					</g>
				</g>
			</g>
		</g>
		<g>
			<g>
				<g>
					<g>
						<g>
							<path class="st2" d="M476.5,296.5c0,0-0.7-0.5,0.8-2.4c1.5-2-0.8-3-0.8-3c-6.6,3.8-15.9,0-15.9,0s10.9-3.4,12.3-6.6
								c1-2.4-0.8-2.7-1.8-2.6c1.1-0.1,3.5-0.5,4.2-1.8c1-1.7-2.8-3.7-2.8-3.7s0.6-0.9,0-2.6s-14.8-4.1-14.8-4.1
								c4.1,0.5,5.6-3.7,5.6-3.7s7,0.1,8.7-2.6s-1.1-3.5-5.8-5.8c-4.7-2.3-15-10.8-15-10.8s6.5-0.6,8.3-2.1s0.1-1.8,0.1-1.8
								c7.7,0.8,5.1-3.4,5.1-3.4c-10.3-3.2-15.9-10.2-15.9-10.2s4.8-1.1,7.3-3.4c2.5-2.3-2.1-2.9-2.1-2.9s9.1-1.2,3.9-4.6
								c-4-2.6-10.4-6-12.3-7c2.2,0.8,7.1-0.2,7.1-0.2c5.8-2.6,0-6.4,0-6.4c-6.8-3.8-16.7-13.4-16.7-13.4s5,2.6,7.4,1.8
								c2.5-0.8-2.8-3.8-2.8-3.8s2.6,0.8,3.7,0s-2.9-4.3-2.9-4.3c-5.9-3.9-13.3-14-16.3-18.3c-3.1,4.4-10.4,14.5-16.3,18.3
								c0,0-4,3.5-2.9,4.3s3.7,0,3.7,0s-5.2,3.1-2.8,3.8c2.5,0.8,7.4-1.8,7.4-1.8s-9.9,9.6-16.7,13.4c0,0-5.8,3.8,0,6.4
								c0,0,4.9,0.9,7.1,0.2c-2,1-8.4,4.5-12.3,7c-5.2,3.4,3.9,4.6,3.9,4.6s-4.5,0.6-2.1,2.9c2.5,2.3,7.3,3.4,7.3,3.4
								s-5.5,7-15.9,10.2c0,0-2.6,4.1,5.1,3.4c0,0-1.6,0.3,0.1,1.8c1.8,1.5,8.3,2.1,8.3,2.1s-10.3,8.6-15,10.8
								c-4.7,2.3-7.4,3-5.8,5.8s8.7,2.6,8.7,2.6s1.5,4.1,5.6,3.7c0,0-14.2,2.4-14.8,4.1s0,2.6,0,2.6s-3.8,2-2.8,3.7
								c0.7,1.3,3.1,1.7,4.2,1.8c-1,0-2.8,0.2-1.8,2.6c1.4,3.2,12.3,6.6,12.3,6.6s-9.2,3.8-15.9,0c0,0-2.3,1.1-0.8,3
								c1.5,2,0.8,2.4,0.8,2.4s-3.5-2.6-1.9,1.4c1.5,4,9.5,6.4,9.5,6.4s-4.5,0.8-3.2,3.2c1.4,2.4,7.2,5.4,13.5,6s14.9-1.7,14.9-1.7
								s-5.8,3-1.8,4.7s8.5-2.1,8.5-2.1s-0.8,3.9,2.5,2.6s6.1-3.9,6.1-3.9s1,5.8,3.1,4.4c2.1,1.4,3.1-4.4,3.1-4.4s2.8,2.6,6.1,3.9
								c3.3,1.3,2.5-2.6,2.5-2.6s4.5,3.8,8.5,2.1c4-1.7-1.8-4.7-1.8-4.7s8.5,2.3,14.9,1.7c6.3-0.6,12.1-3.5,13.5-6
								c1.4-2.4-3.2-3.2-3.2-3.2s8-2.4,9.5-6.4C479.9,293.9,476.5,296.5,476.5,296.5z"/>
						</g>
					</g>
				</g>
			</g>
		</g>
		<g>
			<g>
				<g>
					<g>
						<g>
							<path d="M445.4,205.2c-0.1,0-0.1-0.1-0.2-0.1C445.3,205.1,445.3,205.1,445.4,205.2z"/>
						</g>
					</g>
				</g>
			</g>
		</g>
	</g>
	<g>
		<path class="st2" d="M471,344.8c0,0.1-99,0.3-221,0.3c-122.1,0-221-0.1-221-0.3s98.9-0.3,221-0.3C372,344.5,471,344.6,471,344.8z"
			/>
	</g>
	<g>
		<g>
			<path class="st2" d="M234.8,397.6c-0.1,0.1-1.6-1.2-3.3-2.9c-1.7-1.7-3.1-3.2-2.9-3.3s1.6,1.2,3.3,2.9S234.9,397.5,234.8,397.6z"
				/>
		</g>
		<g>
			<path class="st2" d="M236.9,396.4c-0.1,0.1-1.2-1.5-1.9-3.8s-0.7-4.2-0.6-4.2c0.1,0,0.4,1.9,1.1,4
				C236.2,394.6,237,396.3,236.9,396.4z"/>
		</g>
		<g>
			<path class="st2" d="M241.8,388.4c0.1,0-0.4,2-1.3,4.2c-0.8,2.3-1.6,4.1-1.8,4.1c-0.1,0,0.4-2,1.3-4.2
				C240.9,390.1,241.7,388.3,241.8,388.4z"/>
		</g>
	</g>
	<g>
		<g>
			<path class="st2" d="M55.8,374.7c-0.1,0.1-1.7-1.1-3.2-2.9c-1.6-1.8-2.5-3.6-2.4-3.7s1.2,1.5,2.8,3.3
				C54.5,373.3,55.9,374.6,55.8,374.7z"/>
		</g>
		<g>
			<path class="st2" d="M58,375c-0.1,0-0.2-1.8-0.1-4c0.1-2.2,0.2-4,0.4-4s0.2,1.8,0.1,4S58.2,375,58,375z"/>
		</g>
		<g>
			<path class="st2" d="M66.9,368.3c0.1,0.1-0.9,1.7-2.3,3.6s-2.6,3.3-2.8,3.2c-0.1-0.1,0.9-1.7,2.3-3.6
				C65.6,369.6,66.8,368.2,66.9,368.3z"/>
		</g>
	</g>
	<g>
		<g>
			<path class="st2" d="M80.2,427.3c-0.1,0.1-1.8-1.1-3.7-2.8c-2-1.6-3.5-3.1-3.4-3.2s1.8,1.1,3.7,2.8
				C78.8,425.8,80.3,427.2,80.2,427.3z"/>
		</g>
		<g>
			<path class="st2" d="M82.9,426.4c-0.1,0-0.3-1.5-0.3-3.3s0.1-3.3,0.3-3.3s0.3,1.5,0.3,3.3C83.1,425,83,426.4,82.9,426.4z"/>
		</g>
		<g>
			<path class="st2" d="M90.9,420.2c0.1,0-0.6,2.1-2.1,4.4s-3.1,3.8-3.2,3.7c-0.1-0.1,1.3-1.7,2.8-3.9
				C89.8,422.1,90.7,420.1,90.9,420.2z"/>
		</g>
	</g>
	<g>
		<g>
			<path class="st2" d="M298.6,368.2c-0.1,0.1-1.2-0.9-2.4-2.2s-2.1-2.5-2-2.6s1.2,0.9,2.4,2.2C297.8,367,298.8,368.1,298.6,368.2z"
				/>
		</g>
		<g>
			<path class="st2" d="M301.2,367.2c-0.1,0-0.7-1.2-1.3-2.9c-0.6-1.6-1-3-0.8-3c0.1,0,0.7,1.2,1.3,2.9
				C301,365.8,301.3,367.2,301.2,367.2z"/>
		</g>
		<g>
			<path class="st2" d="M304.7,367.3c-0.1,0,0.1-1.5,0.5-3.2s0.8-3.1,1-3.1c0.1,0-0.1,1.5-0.5,3.2
				C305.3,366,304.8,367.3,304.7,367.3z"/>
		</g>
	</g>
	<g>
		<g>
			<path class="st2" d="M293.4,433c-0.1,0.1-1.8-1.2-3.7-2.9c-2-1.7-3.5-3.2-3.4-3.3c0.1-0.1,1.8,1.2,3.7,2.9
				C291.9,431.4,293.4,432.9,293.4,433z"/>
		</g>
		<g>
			<path class="st2" d="M295.8,433c-0.1,0-0.7-1.4-1.2-3.3s-0.9-3.4-0.7-3.5c0.1,0,0.7,1.4,1.2,3.3C295.6,431.4,296,432.9,295.8,433
				z"/>
		</g>
		<g>
			<path class="st2" d="M301.4,433.3c-0.1,0,0-1.5,0.3-3.2s0.7-3.1,0.9-3.1s0,1.5-0.3,3.2C301.9,431.9,301.5,433.3,301.4,433.3z"/>
		</g>
	</g>
	<g>
		<g>
			<path class="st2" d="M444.6,394.1c-0.1,0.1-1.5-1.2-3.2-3s-2.9-3.2-2.8-3.3s1.5,1.2,3.2,3C443.5,392.5,444.7,394,444.6,394.1z"/>
		</g>
		<g>
			<path class="st2" d="M448.5,393.7c-0.1,0-0.3-1.6-0.3-3.6s0.1-3.6,0.3-3.6s0.3,1.6,0.3,3.6S448.7,393.7,448.5,393.7z"/>
		</g>
		<g>
			<path class="st2" d="M454.6,393.8c-0.1-0.1,0.5-1.5,0.9-3.3c0.5-1.8,0.6-3.3,0.7-3.3s0.3,1.6-0.2,3.5
				C455.5,392.5,454.7,393.9,454.6,393.8z"/>
		</g>
	</g>
</g>
<g id="Background_Simple" class="st3">
	<path class="st4" d="M455.1,102.7l-1.4-2.3c-11.8-19.4-33-31-55.4-29.6c-2.9,0.2-5.8,0.6-8.6,1.2c-20.4,4.4-38.1,19.8-45.4,39.5
		c-4.3,11.6-5.5,25-13.7,34.2c-10.7,12-28.8,12.4-44.7,11.9c-15.9-0.5-34.1-0.1-44.7,12c-6.6,7.5-8.8,18.2-8.2,28.4
		c1.4,26.7,20,50.6,43.7,62.5s51.6,12.9,77.5,7.7c36.3-7.3,70.8-27.4,91.6-58.5C466.5,178.4,471.7,136.2,455.1,102.7z"/>
	<path class="st4" d="M43.3,115.1l0.7-1.7c6-14.5,19.4-24.7,34.9-26.1c2-0.2,4-0.2,6-0.1c14.4,0.9,28.2,9.6,35.3,22.3
		c4.2,7.5,6.4,16.5,13,22c8.6,7.1,21,5.5,31.9,3.5s23.3-3.6,31.9,3.5c5.4,4.5,7.9,11.6,8.6,18.6c1.8,18.5-8.4,36.8-23.4,47.4
		c-15,10.6-34,14.3-52.3,13.4c-25.7-1.2-51.4-11.4-68.9-30.5C43.4,168.2,35.4,139.8,43.3,115.1z"/>
	<circle class="st4" cx="250" cy="310.7" r="26.9"/>
</g>
<g id="Floor">
	<g>
		<path class="st5" d="M471,455.4c0,0.1-99,0.3-221,0.3c-122.1,0-221-0.1-221-0.3s98.9-0.3,221-0.3C372,455.1,471,455.2,471,455.4z"
			/>
	</g>
</g>
<g id="Plants">
	<g>
		<g>
			<g>
				<path class="st6" d="M240,415.3c1.9,0.6,3.5,2.1,4.4,3.9s1.2,3.9,1.3,5.9c0,3.9-1.7,8.1-3.7,11.5c-3.6-2.5-5-7.3-5.5-9.9
					C235.6,422.8,236.5,415.1,240,415.3"/>
			</g>
		</g>
		<g>
			<g>
				<path class="st6" d="M246.6,442.6c-0.8-2.1-0.2-4.6,1.3-6.4c1.5-1.7,3.8-2.6,6.1-2.8c1.1,0,2.2,0.1,2.9,0.9
					c0.7,0.7,0.7,1.9,0.4,2.8s-1,1.7-1.8,2.3C252.9,441.6,250,443.2,246.6,442.6"/>
			</g>
		</g>
		<g>
			<g>
				<g>
					<path class="st5" d="M243.9,455c0,0,0-0.3,0-0.8c0-0.6,0.1-1.3,0.1-2.2c0.1-1.9,0.3-4.5,1.4-7.2c1.1-2.7,2.8-4.8,4.3-5.9
						c0.8-0.6,1.4-0.9,1.9-1.1c0.2-0.1,0.4-0.2,0.6-0.2c0.1,0,0.2-0.1,0.2,0s-1.1,0.4-2.6,1.6c-1.5,1.1-3.1,3.2-4.1,5.8
						c-1.1,2.6-1.2,5.2-1.4,7.1c-0.1,0.9-0.2,1.7-0.2,2.2C244,454.8,243.9,455,243.9,455z"/>
				</g>
			</g>
		</g>
		<g>
			<g>
				<g>
					<path class="st5" d="M239.8,421.2c0,0,0,0.1,0.1,0.3c0.1,0.3,0.1,0.6,0.2,1c0.1,0.9,0.4,2.1,0.6,3.7c0.5,3.1,1.1,7.4,1.7,12.1
						c0.6,4.8,1,9.1,1.2,12.2c0.1,1.6,0.2,2.8,0.3,3.7c0,0.4,0,0.8,0.1,1c0,0.2,0,0.4,0,0.4s0-0.1-0.1-0.4c0-0.3-0.1-0.6-0.1-1
						c-0.1-0.9-0.2-2.2-0.4-3.7c-0.3-3.1-0.8-7.4-1.3-12.2s-1.1-9-1.6-12.2c-0.2-1.5-0.4-2.8-0.5-3.7c-0.1-0.4-0.1-0.7-0.1-1
						C239.8,421.3,239.8,421.2,239.8,421.2z"/>
				</g>
			</g>
		</g>
		<g>
			<g>
				<path class="st6" d="M241.3,445.7c-1.3-4.6-5-8.5-9.6-10c-1.2-0.4-2.6-0.5-3.4,0.4c-0.8,0.9-0.4,2.4,0.2,3.4
					c2.4,4.5,7.8,7.2,12.8,6.5"/>
			</g>
		</g>
		<g>
			<g>
				<g>
					<path class="st5" d="M232.7,439.3c0,0,0.3,0.1,0.7,0.2c0.2,0.1,0.5,0.2,0.8,0.3c0.3,0.1,0.7,0.3,1.1,0.5
						c0.4,0.2,0.8,0.4,1.2,0.7c0.4,0.3,0.9,0.6,1.4,1c0.9,0.7,1.8,1.6,2.7,2.7c0.8,1.1,1.5,2.2,1.9,3.2c0.2,0.5,0.4,1,0.6,1.5
						c0.2,0.5,0.3,1,0.4,1.4c0.1,0.4,0.1,0.8,0.2,1.2c0.1,0.4,0.1,0.6,0.1,0.9c0,0.5,0,0.8,0,0.8c-0.1,0-0.1-1.1-0.5-2.8
						c-0.1-0.4-0.2-0.9-0.4-1.4c-0.1-0.5-0.4-1-0.6-1.5c-0.5-1-1.1-2.1-1.9-3.2c-0.8-1-1.7-1.9-2.6-2.6c-0.4-0.4-0.9-0.7-1.3-1
						c-0.4-0.3-0.8-0.5-1.2-0.7C233.7,439.7,232.7,439.4,232.7,439.3z"/>
				</g>
			</g>
		</g>
	</g>
	<g>
		<g>
			<path class="st5" d="M53.3,455.5c-0.1,0.1-1.2-1.4-2.5-3.3c-1.2-1.9-2.2-3.5-2-3.6s1.2,1.4,2.5,3.3
				C52.5,453.8,53.4,455.4,53.3,455.5z"/>
		</g>
		<g>
			<path class="st5" d="M54,446c0.1,0,0.5,2.1,0.8,4.7s0.4,4.7,0.3,4.7s-0.5-2.1-0.8-4.7S53.9,446,54,446z"/>
		</g>
		<g>
			<path class="st5" d="M60.9,448.6c0.2,0.1-0.5,1.6-1.4,3.5c-0.9,1.8-1.4,3.4-1.5,3.4c-0.2,0,0.1-1.8,1.1-3.6
				C59.9,450,60.8,448.6,60.9,448.6z"/>
		</g>
	</g>
	<g>
		<g>
			<path class="st5" d="M288.8,455.1c-0.1,0.1-1.2-1.4-2.5-3.3c-1.2-1.9-2.2-3.5-2-3.6c0.1-0.1,1.2,1.4,2.5,3.3
				C288,453.5,289,455.1,288.8,455.1z"/>
		</g>
		<g>
			<path class="st5" d="M289.5,445.7c0.1,0,0.5,2.1,0.8,4.7s0.4,4.7,0.3,4.7s-0.5-2.1-0.8-4.7C289.5,447.8,289.4,445.7,289.5,445.7z
				"/>
		</g>
		<g>
			<path class="st5" d="M296.4,448.3c0.1,0.1-0.5,1.6-1.4,3.5c-0.9,1.8-1.4,3.4-1.5,3.4s0.1-1.8,1.1-3.6
				C295.5,449.7,296.3,448.2,296.4,448.3z"/>
		</g>
	</g>
	<g>
		<g>
			<path class="st5" d="M453.4,455.6c-0.1,0.1-1.2-1.4-2.5-3.3c-1.2-1.9-2.2-3.5-2-3.6c0.1-0.1,1.2,1.4,2.5,3.3
				C452.6,454,453.5,455.6,453.4,455.6z"/>
		</g>
		<g>
			<path class="st5" d="M454.1,446.2c0.1,0,0.5,2.1,0.8,4.7s0.4,4.7,0.3,4.7s-0.5-2.1-0.8-4.7C454.1,448.3,453.9,446.2,454.1,446.2z
				"/>
		</g>
		<g>
			<path class="st5" d="M461,448.8c0.1,0.1-0.5,1.6-1.4,3.5c-0.9,1.8-1.4,3.4-1.5,3.4s0.1-1.8,1.1-3.6
				C460,450.2,460.8,448.7,461,448.8z"/>
		</g>
	</g>
</g>
<g id="Speech_Bubble_2">
	<g>
		<g>
			<g>
				<g>
					<g>
						<g>
							<g>
								<g>
									<g>
										<g>
											<g>
												<g>
													<g>
														<path class="st7" d="M300.5,88.4l-9,1.6c-3.2,3.7-7.5,6.5-12.5,8c-14.4,4.3-29.6-3.8-34-18.2s3.8-29.7,18.2-34
															c14.4-4.3,29.6,3.8,34,18.2c1.8,6,1.5,12.2-0.6,17.6l0,0L300.5,88.4z"/>
														<g>
															<path class="st5" d="M300.5,88.4c0,0-0.1-0.1-0.2-0.4c-0.2-0.3-0.4-0.7-0.7-1.3c-0.7-1.2-1.6-2.9-2.9-5.1h-0.1l0,0
																l0,0l0.1,0.1c1.2-3.2,2.3-7.8,1.6-13.2c-0.2-1.3-0.5-2.8-0.9-4.2c-0.2-0.7-0.5-1.4-0.7-2.1c-0.2-0.7-0.6-1.4-0.9-2.1
																c-1.4-2.8-3.3-5.7-5.9-8.1c-2.6-2.4-5.8-4.5-9.4-5.8s-7.7-1.9-11.8-1.6c-4.1,0.4-8.3,1.8-12,4.1
																c-1,0.5-1.8,1.2-2.7,1.9c-0.5,0.3-0.8,0.7-1.2,1.1c-0.4,0.4-0.8,0.7-1.2,1.2c-0.7,0.8-1.6,1.6-2.2,2.6
																c-0.3,0.5-0.7,0.9-1,1.4s-0.6,1-0.9,1.5c-2.3,3.8-3.4,8.2-3.6,12.5c-0.2,4.3,0.6,8.5,2.2,12.2c1.6,3.7,4,6.9,6.9,9.5
																c2.8,2.5,6,4.4,9.3,5.5c3.3,1.1,6.6,1.6,9.7,1.5c1.6,0,3.1-0.3,4.5-0.5c1.4-0.4,2.8-0.7,4.1-1.1
																c5.1-1.9,8.8-4.9,11.1-7.6l0,0c2.9-0.5,5.2-1,6.7-1.2c0.8-0.1,1.3-0.2,1.7-0.3C300.4,88.5,300.5,88.4,300.5,88.4
																s-0.2,0-0.6,0.1s-1,0.2-1.7,0.3c-1.5,0.3-3.8,0.6-6.7,1.1l0,0c-2.3,2.6-6,5.6-11,7.5c-1.3,0.5-2.6,0.8-4,1.1
																c-1.4,0.2-2.9,0.5-4.5,0.5c-3.1,0.1-6.4-0.4-9.6-1.5s-6.4-2.9-9.2-5.4s-5.2-5.7-6.8-9.4c-1.6-3.7-2.4-7.8-2.2-12
																s1.3-8.5,3.6-12.3c0.3-0.5,0.6-1,0.9-1.5c0.3-0.5,0.7-0.9,1-1.4c0.6-0.9,1.4-1.7,2.1-2.5c0.4-0.4,0.8-0.8,1.2-1.1
																c0.4-0.4,0.8-0.8,1.2-1.1c0.9-0.6,1.7-1.4,2.7-1.9c3.7-2.3,7.8-3.6,11.9-4s8.1,0.2,11.7,1.5s6.8,3.3,9.3,5.7
																c2.6,2.4,4.5,5.2,5.9,8c0.3,0.7,0.7,1.4,0.9,2.1c0.2,0.7,0.5,1.4,0.7,2.1c0.4,1.4,0.7,2.8,0.9,4.1
																c0.7,5.4-0.3,10-1.5,13.2v0.1h0.1l0,0h-0.1c1.3,2.2,2.3,3.8,2.9,5c0.3,0.6,0.6,1,0.8,1.3
																C300.4,88.3,300.5,88.4,300.5,88.4z"/>
														</g>
													</g>
												</g>
											</g>
										</g>
									</g>
								</g>
							</g>
						</g>
					</g>
				</g>
			</g>
		</g>
		<g>
			<g>
				<g>
					<g>
						<g>
							<g>
								<g>
									<g>
										<g>
											<g>
												<path class="st5" d="M262.8,72.7c0-1.5-1.2-2.8-2.8-2.8s-2.8,1.2-2.8,2.8s1.2,2.8,2.8,2.8
													C261.5,75.5,262.8,74.2,262.8,72.7z"/>
											</g>
										</g>
									</g>
								</g>
							</g>
						</g>
					</g>
				</g>
			</g>
			<g>
				<g>
					<g>
						<g>
							<g>
								<g>
									<g>
										<g>
											<g>
												<path class="st5" d="M273.9,72.7c0-1.5-1.2-2.8-2.8-2.8s-2.8,1.2-2.8,2.8s1.2,2.8,2.8,2.8S273.9,74.2,273.9,72.7z"/>
											</g>
										</g>
									</g>
								</g>
							</g>
						</g>
					</g>
				</g>
			</g>
			<g>
				<g>
					<g>
						<g>
							<g>
								<g>
									<g>
										<g>
											<g>
												<path class="st5" d="M284.9,74.1c0.8-1.3,0.3-3-1-3.8s-3-0.3-3.8,1s-0.3,3,1,3.8C282.5,75.8,284.2,75.4,284.9,74.1z"/>
											</g>
										</g>
									</g>
								</g>
							</g>
						</g>
					</g>
				</g>
			</g>
		</g>
	</g>
</g>
<g id="Speech_Bubbles_1">
	<g>
		<g>
			<g>
				<g>
					<g>
						<g>
							<g>
								<g>
									<g>
										<g>
											<g>
												<g>
													<g>
														<path class="st7" d="M168.5,96.4l8.2,1.5c3,3.3,6.9,5.9,11.4,7.3c13.2,4,27.1-3.5,31.1-16.7s-3.5-27.2-16.7-31.2
															s-27.1,3.5-31.1,16.7c-1.7,5.5-1.3,11.2,0.6,16.2l0,0L168.5,96.4z"/>
														<g>
															<path class="st5" d="M168.5,96.4c0,0,0.1-0.1,0.2-0.4c0.2-0.3,0.4-0.7,0.7-1.2c0.6-1.1,1.5-2.6,2.6-4.7h0.1l0,0l0,0
																l-0.1,0.1c-1.1-2.9-2.1-7.1-1.5-12.1c0.1-1.2,0.4-2.5,0.8-3.8c0.2-0.7,0.4-1.3,0.7-1.9c0.2-0.7,0.5-1.3,0.8-2
																c1.2-2.6,3-5.2,5.4-7.4c2.4-2.2,5.3-4.1,8.6-5.3s7.1-1.8,10.9-1.5c3.8,0.4,7.6,1.6,11,3.7c0.9,0.5,1.6,1.2,2.5,1.8
																c0.4,0.3,0.8,0.7,1.1,1c0.4,0.3,0.8,0.7,1.1,1.1c0.7,0.8,1.4,1.5,2,2.4c0.3,0.4,0.6,0.8,0.9,1.3
																c0.3,0.4,0.5,0.9,0.8,1.3c2.1,3.5,3.1,7.5,3.3,11.4s-0.6,7.8-2.1,11.2c-1.5,3.4-3.7,6.4-6.3,8.7
																c-2.6,2.3-5.6,4-8.6,5s-6.1,1.4-8.9,1.4c-1.4,0-2.8-0.2-4.1-0.4c-1.3-0.3-2.6-0.6-3.7-1.1c-4.7-1.7-8-4.5-10.1-6.9
																l0,0c-2.7-0.5-4.8-0.9-6.2-1.1c-0.7-0.1-1.2-0.2-1.6-0.3C168.7,96.5,168.5,96.4,168.5,96.4s0.2,0,0.6,0.1
																c0.4,0.1,0.9,0.2,1.6,0.3c1.4,0.2,3.4,0.6,6.1,1.1l0,0c2.1,2.4,5.5,5.2,10.1,6.8c1.2,0.4,2.4,0.7,3.7,1
																c1.3,0.2,2.7,0.4,4.1,0.4c2.8,0.1,5.9-0.3,8.8-1.4c3-1,5.9-2.7,8.4-5c2.6-2.3,4.7-5.2,6.2-8.6s2.2-7.2,2-11
																s-1.2-7.8-3.3-11.3c-0.3-0.4-0.5-0.9-0.8-1.3s-0.6-0.8-0.9-1.2c-0.6-0.8-1.3-1.6-2-2.3c-0.3-0.4-0.7-0.7-1.1-1
																c-0.4-0.3-0.7-0.7-1.1-1c-0.8-0.6-1.6-1.2-2.4-1.7c-3.4-2.1-7.1-3.3-10.9-3.7c-3.8-0.3-7.4,0.2-10.7,1.4
																s-6.2,3-8.5,5.2s-4.1,4.7-5.4,7.3c-0.3,0.7-0.6,1.3-0.8,1.9c-0.2,0.7-0.5,1.3-0.7,1.9c-0.4,1.3-0.6,2.6-0.8,3.8
																c-0.6,4.9,0.3,9.1,1.4,12.1v0.1H172l0,0h0.1c-1.2,2-2.1,3.5-2.7,4.6c-0.3,0.5-0.5,0.9-0.7,1.2
																C168.6,96.3,168.5,96.4,168.5,96.4z"/>
														</g>
													</g>
												</g>
											</g>
										</g>
									</g>
								</g>
							</g>
						</g>
					</g>
				</g>
			</g>
		</g>
		<g>
			<g>
				<g>
					<g>
						<g>
							<g>
								<g>
									<g>
										<g>
											<g>
												<path class="st5" d="M203.1,82c0-1.4,1.1-2.5,2.5-2.5s2.5,1.1,2.5,2.5s-1.1,2.5-2.5,2.5S203.1,83.4,203.1,82z"/>
											</g>
										</g>
									</g>
								</g>
							</g>
						</g>
					</g>
				</g>
			</g>
			<g>
				<g>
					<g>
						<g>
							<g>
								<g>
									<g>
										<g>
											<g>
												<path class="st5" d="M193,82c0-1.4,1.1-2.5,2.5-2.5s2.5,1.1,2.5,2.5s-1.1,2.5-2.5,2.5S193,83.4,193,82z"/>
											</g>
										</g>
									</g>
								</g>
							</g>
						</g>
					</g>
				</g>
			</g>
			<g>
				<g>
					<g>
						<g>
							<g>
								<g>
									<g>
										<g>
											<g>
												<path class="st5" d="M182.8,83.3c-0.7-1.2-0.3-2.8,0.9-3.5s2.8-0.3,3.5,0.9s0.3,2.8-0.9,3.5S183.5,84.5,182.8,83.3z"/>
											</g>
										</g>
									</g>
								</g>
							</g>
						</g>
					</g>
				</g>
			</g>
		</g>
	</g>
</g>
<g id="Character_2">
	<g>
		<g>
			<g>
				<g>
					<g>
						<g>
							<g>
								<g>
									<g>
										<g>
											<g>
												<g>
													<g>
														<g>
															<g>
																<g>
																	<g>
																		<path class="st5" d="M342.7,419.9l1.1,23c0,0-22.7,8.9-22.9,13.2l44.1-0.6l-0.3-36L342.7,419.9z"/>
																	</g>
																</g>
															</g>
														</g>
													</g>
												</g>
											</g>
										</g>
									</g>
								</g>
							</g>
						</g>
						<g>
							<g>
								<g>
									<g>
										<g>
											<g>
												<g>
													<g>
														<g>
															<g>
																<g>
																	<g>
																		<g>
																			<path class="st2" d="M357.4,440.8c0.9,0.2,1.5,1.2,1.3,2.1s-1.1,1.5-2,1.3s-1.6-1.4-1.3-2.2
																				c0.3-0.9,1.5-1.5,2.2-1.1"/>
																		</g>
																	</g>
																</g>
															</g>
														</g>
													</g>
												</g>
											</g>
										</g>
									</g>
								</g>
							</g>
						</g>
						<g>
							<g>
								<g>
									<g>
										<g>
											<g>
												<g>
													<g>
														<g>
															<g>
																<g>
																	<g>
																		<path class="st8" d="M365,455.5l-0.2-3.6l-42.2,1.9c0,0-2,0.9-1.7,2.3L365,455.5z"/>
																	</g>
																</g>
															</g>
														</g>
													</g>
												</g>
											</g>
										</g>
									</g>
								</g>
							</g>
						</g>
						<g>
							<g>
								<g>
									<g>
										<g>
											<g>
												<g>
													<g>
														<g>
															<g>
																<g>
																	<g>
																		<g>
																			<path class="st9" d="M343.1,442.7c0,0.2,1.1,0.3,2.2,1s1.6,1.6,1.8,1.5c0.2,0-0.1-1.4-1.5-2.2
																				C344.3,442.2,343,442.5,343.1,442.7z"/>
																		</g>
																	</g>
																</g>
															</g>
														</g>
													</g>
												</g>
											</g>
										</g>
									</g>
								</g>
							</g>
						</g>
						<g>
							<g>
								<g>
									<g>
										<g>
											<g>
												<g>
													<g>
														<g>
															<g>
																<g>
																	<g>
																		<g>
																			<path class="st9" d="M338.5,444.7c0,0.2,0.9,0.6,1.6,1.5c0.8,0.9,1,1.9,1.2,1.9s0.3-1.2-0.6-2.4
																				C339.7,444.6,338.5,444.5,338.5,444.7z"/>
																		</g>
																	</g>
																</g>
															</g>
														</g>
													</g>
												</g>
											</g>
										</g>
									</g>
								</g>
							</g>
						</g>
						<g>
							<g>
								<g>
									<g>
										<g>
											<g>
												<g>
													<g>
														<g>
															<g>
																<g>
																	<g>
																		<g>
																			<path class="st9" d="M335.9,450.4c0.2,0,0.5-1-0.1-2.2s-1.6-1.6-1.7-1.5c-0.1,0.2,0.5,0.8,1,1.8
																				C335.6,449.4,335.7,450.3,335.9,450.4z"/>
																		</g>
																	</g>
																</g>
															</g>
														</g>
													</g>
												</g>
											</g>
										</g>
									</g>
								</g>
							</g>
						</g>
						<g>
							<g>
								<g>
									<g>
										<g>
											<g>
												<g>
													<g>
														<g>
															<g>
																<g>
																	<g>
																		<g>
																			<path class="st9" d="M343.4,437.4c0.1,0.2,1.1-0.1,2.3,0c1.2,0,2.2,0.4,2.3,0.3c0.1-0.2-0.8-1-2.2-1
																				C344.3,436.5,343.3,437.2,343.4,437.4z"/>
																		</g>
																	</g>
																</g>
															</g>
														</g>
													</g>
												</g>
											</g>
										</g>
									</g>
								</g>
							</g>
						</g>
					</g>
				</g>
				<g>
					<g>
						<g>
							<g>
								<g>
									<g>
										<g>
											<g>
												<g>
													<path class="st5" d="M394.6,427.6l2.4,27.8l-4.4,22.5c-0.3,1.6,0.8,3.2,2.4,3.4l0,0c0.9,0.1,1.8-0.2,2.4-0.9
														c3.9-4.4,18.3-20.4,18-22.4c-0.3-2.3-0.6-29.5-0.6-29.5L394.6,427.6z"/>
												</g>
											</g>
										</g>
									</g>
								</g>
							</g>
						</g>
						<g>
							<g>
								<g>
									<g>
										<g>
											<g>
												<g>
													<path class="st8" d="M395,481.3l20.3-25.2l0.1,1.2c0.1,1-0.2,2-0.8,2.9c-1.6,2.2-6.2,8.1-17.1,20.3
														C396.9,481.1,396,481.5,395,481.3L395,481.3z"/>
												</g>
											</g>
										</g>
									</g>
								</g>
							</g>
						</g>
						<g class="st10">
							<g>
								<g>
									<g>
										<g>
											<g>
												<g>
													<g>
														<path class="st9" d="M409.2,447.5c-0.7,0.5-0.8,1.6-0.3,2.3s1.6,0.9,2.2,0.3s0.9-1.8,0.3-2.4s-1.8-0.8-2.4-0.1"/>
													</g>
												</g>
											</g>
										</g>
									</g>
								</g>
							</g>
						</g>
						<g>
							<g>
								<g>
									<g>
										<g>
											<g>
												<g>
													<g>
														<path class="st9" d="M400.5,468.7c-0.1,0.1-0.9-1.3-2.5-2c-1.7-0.7-3.1-0.2-3.2-0.4c0-0.1,0.3-0.3,0.9-0.4
															s1.6-0.1,2.5,0.3s1.6,1,2,1.6C400.5,468.3,400.6,468.7,400.5,468.7z"/>
													</g>
												</g>
											</g>
										</g>
									</g>
								</g>
							</g>
						</g>
						<g>
							<g>
								<g>
									<g>
										<g>
											<g>
												<g>
													<g>
														<path class="st9" d="M398.8,472.6c-0.1,0.1-1.1-0.7-2.5-1c-1.4-0.4-2.6,0-2.7-0.2c-0.1-0.1,1.2-0.8,2.8-0.4
															C398.1,471.3,399,472.5,398.8,472.6z"/>
													</g>
												</g>
											</g>
										</g>
									</g>
								</g>
							</g>
						</g>
						<g>
							<g>
								<g>
									<g>
										<g>
											<g>
												<g>
													<g>
														<path class="st9" d="M403.9,463.7c-0.1,0.1-1.6-1.2-3.8-1.9c-2.2-0.7-4.1-0.5-4.1-0.7c0-0.1,2-0.7,4.3,0.1
															C402.7,462,404,463.6,403.9,463.7z"/>
													</g>
												</g>
											</g>
										</g>
									</g>
								</g>
							</g>
						</g>
						<g>
							<g>
								<g>
									<g>
										<g>
											<g>
												<g>
													<g>
														<path class="st9" d="M403.9,455.2c-0.1,0.2-1.6-0.4-3.6-0.3c-2,0-3.5,0.6-3.6,0.5s1.4-1,3.6-1.1
															C402.4,454.2,403.9,455.1,403.9,455.2z"/>
													</g>
												</g>
											</g>
										</g>
									</g>
								</g>
							</g>
						</g>
						<g>
							<g>
								<g>
									<g>
										<g>
											<g>
												<g>
													<g>
														<path class="st9" d="M403.4,447c-0.1,0.2-1.7-0.7-3.7-0.4c-2.1,0.2-3.5,1.3-3.6,1.2c0,0,0.2-0.4,0.8-0.8
															c0.6-0.4,1.6-0.8,2.7-0.9s2.1,0.1,2.8,0.4C403,446.7,403.4,447,403.4,447z"/>
													</g>
												</g>
											</g>
										</g>
									</g>
								</g>
							</g>
						</g>
						<g>
							<g>
								<g>
									<g>
										<g>
											<g>
												<g>
													<g>
														<path class="st9" d="M399.6,445c0,0-0.1-0.4-0.1-1s0.1-1.7,0.6-2.8c0.3-0.5,0.5-1.2,1.3-1.6c0.4-0.2,0.9-0.2,1.3,0.2
															c0.4,0.3,0.5,0.8,0.5,1.2c0.1,1.8-1.3,3.6-3.2,4c-2,0.4-3.8-0.7-4.7-2.1c-0.2-0.4-0.3-0.9-0.2-1.4
															c0.2-0.5,0.7-0.7,1.1-0.7c0.8,0.1,1.4,0.5,1.9,0.8c1,0.7,1.6,1.5,2,2s0.5,0.9,0.5,0.9c-0.1,0.1-0.8-1.3-2.7-2.6
															c-0.5-0.3-1.1-0.7-1.6-0.7c-0.3,0-0.5,0.1-0.6,0.4c-0.1,0.2,0,0.6,0.2,0.9c0.7,1.2,2.4,2.1,4.1,1.8
															c1.6-0.3,2.9-1.9,2.8-3.3c0-0.3-0.1-0.7-0.3-0.9s-0.5-0.2-0.7-0.1c-0.5,0.2-0.8,0.9-1.1,1.4
															C399.5,443.5,399.7,445.1,399.6,445z"/>
													</g>
												</g>
											</g>
										</g>
									</g>
								</g>
							</g>
						</g>
					</g>
				</g>
				<g>
					<g>
						<g>
							<g>
								<path class="st5" d="M322,231.5c0,0-3.3,13.1-2.1,29.1c0.5,6.2,21,177.5,21,177.5h27.8l-7.8-161l2.3,0.5
									c0,0,15.2,68.7,16.4,79.8c1.1,10,14.7,88.5,14.7,88.5l26.2-0.3l-9.8-101.4l-9.4-92.2l-3.5-26.8L322,231.5z"/>
							</g>
						</g>
					</g>
				</g>
			</g>
		</g>
		<g>
			<g>
				<g>
					<g>
						<g>
							<g>
								<g>
									<g>
										<g>
											<g>
												<g>
													<g>
														<g>
															<path class="st11" d="M369,121.4l0.6-48.8c0.5-12.1-6.1-22.6-18.2-22.8h-1.1c-11.3,0.5-20.4,9.5-20.8,20.8
																c-0.4,10.5-0.7,22.1-0.4,27.8c0.6,11.6,12.3,13,12.3,13s0.1,7.1,0.1,10.5l-2.7,8l9.6-2.3L369,121.4z"/>
														</g>
													</g>
												</g>
											</g>
										</g>
									</g>
								</g>
							</g>
						</g>
					</g>
					<g>
						<g>
							<g>
								<g>
									<g>
										<g>
											<g>
												<g>
													<g>
														<g>
															<g>
																<path class="st12" d="M341.4,111.5c0,0,7.4,0.1,15-5.1c0,0-3.3,8.9-14.9,8.3L341.4,111.5z"/>
															</g>
														</g>
													</g>
												</g>
											</g>
										</g>
									</g>
								</g>
							</g>
						</g>
					</g>
					<g>
						<g>
							<g>
								<g>
									<g>
										<g>
											<g>
												<g>
													<g>
														<g>
															<g>
																<g>
																	<g>
																		<g>
																			<g>
																				<g>
																					<g>
																						<path class="st5" d="M333.2,80.8c0,0.9,0.8,1.6,1.7,1.6s1.7-0.7,1.6-1.6c0-0.9-0.8-1.6-1.7-1.6
																							C334,79.2,333.2,79.9,333.2,80.8z"/>
																					</g>
																				</g>
																			</g>
																		</g>
																	</g>
																</g>
															</g>
														</g>
													</g>
												</g>
											</g>
										</g>
									</g>
								</g>
							</g>
						</g>
					</g>
					<g>
						<g>
							<g>
								<g>
									<g>
										<g>
											<g>
												<g>
													<g>
														<g>
															<g>
																<g>
																	<g>
																		<g>
																			<g>
																				<g>
																					<g>
																						<g>
																							<path class="st5" d="M332.2,75.8c0.2,0.2,1.4-0.8,3.2-0.8c1.8-0.1,3.1,0.8,3.3,0.5c0.1-0.1-0.1-0.5-0.7-0.9
																								s-1.6-0.8-2.7-0.7c-1.1,0.1-2,0.5-2.6,0.9C332.3,75.3,332.1,75.7,332.2,75.8z"/>
																						</g>
																					</g>
																				</g>
																			</g>
																		</g>
																	</g>
																</g>
															</g>
														</g>
													</g>
												</g>
											</g>
										</g>
									</g>
								</g>
							</g>
						</g>
					</g>
					<g>
						<g>
							<g>
								<g>
									<g>
										<g>
											<g>
												<g>
													<g>
														<g>
															<g>
																<g>
																	<g>
																		<g>
																			<g>
																				<g>
																					<g>
																						<path class="st5" d="M349.3,80.8c0,0.9,0.8,1.6,1.7,1.6s1.7-0.7,1.6-1.6s-0.8-1.6-1.7-1.6
																							C350.1,79.2,349.3,79.9,349.3,80.8z"/>
																					</g>
																				</g>
																			</g>
																		</g>
																	</g>
																</g>
															</g>
														</g>
													</g>
												</g>
											</g>
										</g>
									</g>
								</g>
							</g>
						</g>
					</g>
					<g>
						<g>
							<g>
								<g>
									<g>
										<g>
											<g>
												<g>
													<g>
														<g>
															<g>
																<g>
																	<g>
																		<g>
																			<g>
																				<g>
																					<g>
																						<g>
																							<path class="st5" d="M349.8,75.5c0.2,0.2,1.4-0.8,3.2-0.8c1.8-0.1,3.1,0.8,3.3,0.5c0.1-0.1-0.1-0.5-0.7-0.9
																								s-1.6-0.8-2.7-0.7c-1.1,0.1-2,0.5-2.6,0.9C349.8,75,349.7,75.4,349.8,75.5z"/>
																						</g>
																					</g>
																				</g>
																			</g>
																		</g>
																	</g>
																</g>
															</g>
														</g>
													</g>
												</g>
											</g>
										</g>
									</g>
								</g>
							</g>
						</g>
					</g>
					<g>
						<g>
							<g>
								<g>
									<g>
										<g>
											<g>
												<g>
													<g>
														<g>
															<g>
																<g>
																	<g>
																		<g>
																			<g>
																				<g>
																					<g>
																						<path class="st5" d="M343.9,89.5c0-0.1-1.1-0.2-2.9-0.4c-0.5,0-0.9-0.1-1-0.4s0-0.8,0.2-1.4
																							c0.4-1.1,0.8-2.3,1.2-3.5c1.7-5,2.9-9.2,2.7-9.2c-0.2-0.1-1.7,4-3.4,9c-0.4,1.2-0.8,2.4-1.1,3.6
																							c-0.1,0.5-0.4,1.1-0.2,1.8c0.1,0.3,0.5,0.6,0.8,0.6c0.3,0.1,0.5,0.1,0.8,0.1
																							C342.8,89.7,343.9,89.6,343.9,89.5z"/>
																					</g>
																				</g>
																			</g>
																		</g>
																	</g>
																</g>
															</g>
														</g>
													</g>
												</g>
											</g>
										</g>
									</g>
								</g>
							</g>
						</g>
					</g>
					<g>
						<g>
							<g>
								<g>
									<g>
										<g>
											<g>
												<g>
													<g>
														<g>
															<g>
																<g>
																	<g>
																		<path class="st5" d="M349,69.9c0.3,0.4,2-0.1,4.1-0.2c2.1-0.2,3.9,0.1,4.1-0.4c0.1-0.2-0.3-0.6-1-1
																			c-0.8-0.3-1.9-0.6-3.2-0.5c-1.3,0.1-2.4,0.5-3.1,0.9C349.1,69.3,348.8,69.7,349,69.9z"/>
																	</g>
																</g>
															</g>
														</g>
													</g>
												</g>
											</g>
										</g>
									</g>
								</g>
							</g>
						</g>
					</g>
					<g>
						<g>
							<g>
								<g>
									<g>
										<g>
											<g>
												<g>
													<g>
														<g>
															<g>
																<g>
																	<g>
																		<path class="st5" d="M331.9,70.6c0.4,0.4,1.8-0.1,3.6-0.1c1.8-0.1,3.2,0.2,3.6-0.2c0.1-0.2-0.1-0.6-0.8-1
																			c-0.6-0.4-1.7-0.7-2.9-0.6c-1.2,0.1-2.2,0.5-2.8,0.9C331.9,69.9,331.8,70.4,331.9,70.6z"/>
																	</g>
																</g>
															</g>
														</g>
													</g>
												</g>
											</g>
										</g>
									</g>
								</g>
							</g>
						</g>
					</g>
					<g>
						<g>
							<g>
								<g>
									<g>
										<g>
											<g>
												<g>
													<g>
														<path class="st11" d="M369,81.3c0.2-0.1,7.9-2.7,8,5.3s-7.9,6.4-8,6.2C369.1,92.6,369,81.3,369,81.3z"/>
													</g>
												</g>
											</g>
										</g>
									</g>
								</g>
							</g>
						</g>
					</g>
					<g>
						<g>
							<g>
								<g>
									<g>
										<g>
											<g>
												<g>
													<g>
														<g>
															<path class="st12" d="M371.5,89.7c0,0,0.1,0.1,0.4,0.2c0.2,0.1,0.6,0.2,1,0c0.8-0.3,1.5-1.7,1.6-3.1
																c0-0.7-0.1-1.4-0.4-2c-0.2-0.6-0.6-1-1-1.1s-0.7,0.2-0.8,0.4c-0.1,0.2,0,0.4-0.1,0.4c0,0-0.2-0.1-0.1-0.5
																c0-0.2,0.1-0.3,0.3-0.5c0.2-0.2,0.5-0.2,0.8-0.2c0.6,0,1.2,0.6,1.5,1.2s0.5,1.4,0.5,2.2c0,1.6-0.8,3.1-2,3.5
																c-0.6,0.2-1,0-1.3-0.2C371.5,89.9,371.5,89.8,371.5,89.7z"/>
														</g>
													</g>
												</g>
											</g>
										</g>
									</g>
								</g>
							</g>
						</g>
					</g>
				</g>
				<g>
					<g>
						<g>
							<g>
								<g>
									<g>
										<g>
											<g>
												<path class="st5" d="M313.4,60.3c0.1-0.5,0.5-0.9,0.9-1.1c0.9-0.5,2-0.5,3-0.5c2.5-0.1,5-0.7,7.3-1.9
													c-0.8-0.4-1.5-0.9-2.2-1.5c-1.3-1.3-2.1-3.2-1.5-5c0.1-0.3,0.3-0.7,0.6-0.8c0.5-0.2,1,0.3,1.3,0.7
													c1.2,1.3,2.3,1.9,4.1,1.7c1.1-0.1,2.2-0.4,3-0.9l0.1-0.1c0.4-0.4,0.8-0.8,1.2-1.2l0,0l0,0c3-3,5.5-5.1,8.2-6.2
													c3.9-1.6,10.4-2.3,14.4-1.3s7.8,4.3,8.4,8.4c2.2-2,5.7-2,8.5-0.9h0.1c3.1,1.1,4.9,4.3,5.8,7.4c0,0.2,0.1,0.3,0.1,0.5
													c1.1,1.6,2.5,3,4.2,4c0.3,0.2,0.6,0.4,0.7,0.7c0,0.3-0.2,0.6-0.5,0.8c-0.7,0.5-1.6,0.9-2.5,1.1c0.3,0.7,0.6,1.5,1,2.2
													c0.4,0.6,0.8,1.3,0.5,1.9c-0.2,0.5-0.8,0.7-1.4,0.6s-1-0.4-1.4-0.6c0.4,0.8,0.7,1.6,1.1,2.5c-1.1,0.2-2.3,0.1-3.4-0.2
													c-0.6,2.9-1,8.4-1.8,10.4c-2.1,0.1-2.6-0.2-3.7,0.2c-1.4,0.5-0.8,2.9-2.6,2.2c-0.9-0.3-2.4-3.8-2.7-4.7
													c-2.1-6.2-2.9-12.8-2.2-19.2c-1.3-1.3-2.9-2.4-4.5-3.2l0.1,0.1c-3.3-1.1-7-2.2-10-0.6c-2.4,1.2-3.8,3.7-5.5,5.7
													c-3.4,3.8-7.2,5.9-12.2,6.1c-0.4,3.5-0.5,9.3-0.6,12.6l-2.9-6.5l0,0c-0.2-0.4-0.4-0.8-0.6-1.2l-0.1-0.1l0,0
													c-0.3-0.6-0.6-1.2-0.9-1.9l0,0c-1.8,1.6-4.4-0.8-3-2.7c0.3-0.4,0.6-0.7,1-1c-0.8,0.8-2,1.2-3.1,0.8
													c-1.1-0.3-1.9-1.4-1.8-2.5c0-0.8,0.6-1.4,1.3-1.8c-1.4,0.1-2.9-0.2-4.2-0.9C314,62.1,313.2,61.3,313.4,60.3z"/>
											</g>
										</g>
									</g>
								</g>
							</g>
						</g>
					</g>
					<g>
						<g>
							<g>
								<g>
									<g>
										<g>
											<g>
												<path class="st8" d="M358.6,52c0,0,0.5,0.3,1.2,1.1s1.5,2.1,1.8,3.8c0.2,0.9,0.3,1.9,0.3,3s-0.1,2.2-0.1,3.4
													c-0.1,1.2-0.1,2.5,0,3.8c0,0.7,0.1,1.3,0.3,2c0.1,0.7,0.3,1.4,0.9,1.9c0.4,0.5,1.1,0.7,1.6,0.5c0.6-0.1,1.1-0.4,1.5-0.8
													c0.7-0.9,0.9-2,1.1-3H367c0.4,0.9,0.8,1.7,1.5,2.4c0.6,0.7,1.4,1.1,2.3,1.2c0.4,0,0.8,0,1.2-0.2
													c0.4-0.2,0.6-0.5,0.8-0.8c0.2-0.3,0.3-0.7,0.2-1c0-0.3-0.2-0.7-0.4-0.9l-0.1,0.1c0.9,1,1.9,1.6,2.5,1.8
													c0.3,0.2,0.6,0.2,0.8,0.3s0.3,0.1,0.3,0.1s-0.1,0-0.3-0.1s-0.4-0.2-0.8-0.3c-0.6-0.3-1.6-0.9-2.4-1.9l-0.1,0.1
													c0.4,0.4,0.4,1.1,0.1,1.7c-0.2,0.3-0.4,0.6-0.7,0.7c-0.3,0.2-0.7,0.2-1.1,0.2c-0.8-0.1-1.5-0.5-2.1-1.2s-1-1.5-1.4-2.4
													l-0.2-0.4l-0.1,0.4c-0.2,1-0.4,2.1-1,2.8c-0.3,0.4-0.8,0.7-1.3,0.8c-0.5,0.1-1-0.1-1.4-0.4c-0.4-0.5-0.6-1.2-0.8-1.8
													c-0.1-0.7-0.2-1.3-0.3-2c-0.1-1.3,0-2.6,0-3.8s0.1-2.4,0.1-3.5s-0.2-2.1-0.4-3c-0.4-1.8-1.2-3.1-1.9-3.9
													C359.1,52.2,358.6,52,358.6,52z"/>
											</g>
										</g>
									</g>
								</g>
							</g>
						</g>
					</g>
					<g>
						<g>
							<g>
								<g>
									<g>
										<g>
											<g>
												<path class="st8" d="M322.6,63.7C322.6,63.7,322.6,63.8,322.6,63.7c0.2,0.1,0.3,0.2,0.4,0.3s0.3,0.2,0.5,0.3
													c0.2,0.1,0.4,0.2,0.7,0.4c1.1,0.5,2.8,1,5,0.8c2.1-0.2,4.7-0.9,7-2.7c2.3-1.7,4.3-4.2,6-7c0.8-1.4,1.5-2.9,2.2-4.2
													S346,49,347,48s2.1-1.7,3.3-2.1c0.6-0.2,1.2-0.2,1.8-0.2c0.6,0,1.1,0.1,1.6,0.3c1,0.3,1.8,0.9,2.5,1.4
													c0.6,0.6,1,1.2,1.3,1.7c0.5,1.1,0.6,1.8,0.6,1.7c0,0,0,0,0-0.1s0-0.2-0.1-0.4c-0.1-0.3-0.2-0.8-0.5-1.3
													s-0.7-1.2-1.3-1.8c-0.6-0.6-1.5-1.2-2.5-1.5c-0.5-0.2-1.1-0.3-1.7-0.3s-1.2,0-1.8,0.2c-1.2,0.3-2.4,1.1-3.5,2.1
													c-1,1-1.9,2.3-2.6,3.6c-0.8,1.4-1.4,2.8-2.3,4.2c-1.6,2.8-3.6,5.3-5.9,7c-2.2,1.7-4.8,2.5-6.9,2.7s-3.9-0.3-4.9-0.8
													C323.2,64.1,322.6,63.7,322.6,63.7z"/>
											</g>
										</g>
									</g>
								</g>
							</g>
						</g>
					</g>
					<g>
						<g>
							<g>
								<g>
									<g>
										<g>
											<g>
												<path class="st8" d="M321.5,58.6c0,0,0.1,0.1,0.4,0.3s0.7,0.4,1.2,0.6c0.5,0.2,1.2,0.5,2,0.6c0.8,0.2,1.6,0.3,2.5,0.3
													s1.8-0.1,2.5-0.2c0.8-0.2,1.4-0.3,2-0.5c0.5-0.2,1-0.4,1.3-0.6c0.3-0.2,0.4-0.2,0.4-0.3c0,0-0.7,0.3-1.8,0.7
													c-0.5,0.2-1.2,0.3-2,0.5c-0.8,0.1-1.6,0.2-2.5,0.2s-1.7-0.1-2.5-0.3s-1.4-0.3-2-0.6C322.1,58.9,321.5,58.6,321.5,58.6z"
													/>
											</g>
										</g>
									</g>
								</g>
							</g>
						</g>
					</g>
				</g>
			</g>
			<path class="st12" d="M344.1,93.7c0.1,0,6.3-2.4,6.3-2.4s1.8,3.6-0.4,5.2s-4.8,0.6-5.2-0.4C344.4,95.2,344.1,93.7,344.1,93.7z"/>
			<g>
				<path class="st5" d="M345.5,96.8c0-0.1,0.3,0.2,0.9,0.3c0.6,0.1,1.4,0.1,2.4-0.1l0,0c0.6-0.2,1.4-0.6,1.8-1.3
					c0.4-0.7,0.5-1.7,0.2-2.6c-0.1-0.6-0.4-1.1-0.6-1.6l0.3,0.1c-1.9,0.7-3.5,1.3-4.7,1.7c-1.2,0.4-1.9,0.6-1.9,0.6
					c0-0.1,0.7-0.4,1.8-0.9c1.1-0.5,2.8-1.1,4.6-1.9l0.2-0.1l0.1,0.2c0.3,0.5,0.5,1.1,0.7,1.7c0.2,1,0.2,2.1-0.3,3
					c-0.5,0.8-1.4,1.2-2.1,1.5l0,0l0,0c-1.1,0.2-2,0.2-2.5,0C345.7,97.1,345.4,96.8,345.5,96.8z"/>
			</g>
		</g>
		<g>
			<path class="st11" d="M289.8,191.9l21,13.2c7.6,4,13.1,1.1,14.9-5.3l-0.2-23.5c0,0-13.3-7.1-15.4-7.4c-0.7-0.1-1.7,13.6-1.7,13.6
				l-20.2-5.7l-5.1,10.4L289.8,191.9z"/>
			<g>
				<path class="st11" d="M287.9,174.1c-0.1-0.2-5.8-9.2-9-12.6c-3.2-3.4-3.3-7.1-5.6-7.4c-2.3-0.3-2.7,2.9-1.6,6.2s4,5,3.2,6.1
					s-19.1-1.9-19.1-1.9s-2.4-2.4-4.2-0.4c0,0-2.9-0.7-2.7,1.6c0.2,2.4,5.6,2.5,5.6,2.5l2.6,4.7l6.1,2.3c0,0,0.4,2.6,2.2,4.4
					c1.8,1.8,3.2,2.8,3.4,2.8s5.7,3.4,8.5,4.1c2.8,0.7,6.5,1.3,6.5,1.3l5-10.1C289,177.8,289.2,176.3,287.9,174.1z"/>
				<g>
					<path class="st11" d="M263.4,175.7c0,0-0.9-2.3-0.7-4.2c0.2-1.9,2-10.5,2.9-10.6s2.3-0.7,2.6,1.6c0.4,2.3-0.9,7.8-0.9,7.9
						s0.9,1.7,1,3.7"/>
					<g>
						<path class="st12" d="M268.3,174.1c0,0-0.1-0.4-0.3-1.2c-0.1-0.4-0.2-0.8-0.4-1.4c-0.1-0.3-0.2-0.5-0.3-0.8l-0.1-0.2
							c-0.1-0.1,0-0.3,0-0.3c0-0.2,0.1-0.3,0.1-0.5c0.3-1.4,0.6-3,0.7-4.9c0.1-0.9,0.1-1.9-0.1-2.8c-0.1-0.4-0.4-0.9-0.7-1
							s-0.9-0.1-1.4,0c-0.1,0-0.2,0.2-0.3,0.4c-0.1,0.2-0.2,0.5-0.3,0.7c-0.2,0.5-0.3,1-0.5,1.4c-0.3,1-0.5,1.9-0.7,2.8
							c-0.4,1.8-0.8,3.4-1,4.8c-0.2,1.4,0,2.5,0.2,3.2c0.2,0.8,0.3,1.2,0.3,1.2s-0.2-0.4-0.5-1.1c-0.2-0.8-0.5-1.9-0.4-3.3
							c0.2-1.4,0.5-3.1,0.9-4.9c0.2-0.9,0.4-1.9,0.7-2.8c0.1-0.5,0.3-1,0.5-1.5c0.1-0.2,0.2-0.5,0.3-0.8c0.1-0.1,0.1-0.2,0.2-0.4
							c0-0.1,0.1-0.1,0.2-0.2c0,0,0.1-0.1,0.2-0.1h0.1c0.5-0.1,1.1-0.3,1.7,0s0.9,0.9,1,1.4c0.3,1.1,0.2,2.1,0.1,3
							c-0.2,1.9-0.5,3.5-0.9,4.9c0,0.2-0.1,0.3-0.1,0.5c0,0.1,0,0.1,0,0.1l0.1,0.2c0.1,0.3,0.2,0.6,0.3,0.9c0.2,0.5,0.3,1,0.4,1.4
							C268.4,173.7,268.4,174.1,268.3,174.1z"/>
					</g>
				</g>
				<g>
					<path class="st12" d="M283,177.8c0,0.1-1-0.5-2.8-0.7c-0.9-0.1-2-0.1-3.2,0.3c-1.2,0.4-2.4,1.1-3.4,2.1l-0.4,0.4v-0.6
						c0-1.6,0-3.4,0.1-5.2l0,0l0,0c0-0.2,0-0.4,0-0.6c0.1-1.1,0-2.2-0.3-3.1c-0.3-0.9-1.3-1.4-2.1-1.1c-0.2,0.1-0.4,0.2-0.5,0.3
						s-0.1,0.3-0.2,0.5c-0.1,0.4-0.2,0.9-0.2,1.3c-0.1,0.8-0.2,1.6-0.4,2.4c-0.2,1.4-0.4,2.5-0.5,3.4c-0.1,0.8-0.2,1.3-0.3,1.2
						c0,0,0-0.5,0.1-1.3s0.2-2,0.3-3.5c0.1-0.7,0.2-1.5,0.3-2.4c0.1-0.4,0.1-0.9,0.2-1.3c0-0.1,0.1-0.2,0.1-0.4
						c0-0.1,0.1-0.3,0.2-0.4c0.2-0.2,0.4-0.4,0.7-0.5c0.5-0.2,1.1-0.1,1.6,0.1c0.5,0.3,0.9,0.8,1.1,1.3c0.4,1.1,0.4,2.2,0.3,3.4
						c0,0.2,0,0.4,0,0.6l0,0c0,1.9-0.1,3.6-0.1,5.2l-0.4-0.2c1.1-1.1,2.4-1.9,3.7-2.2c1.2-0.4,2.4-0.3,3.3-0.2
						c0.5,0.1,0.9,0.2,1.2,0.3c0.4,0.1,0.6,0.2,0.9,0.3C282.8,177.7,283.1,177.8,283,177.8z"/>
				</g>
				<g>
					<path class="st12" d="M262.7,169.9c0,0.1-1.5-0.4-3.6-1.3H259v-0.1c-0.4-0.6-0.9-1.3-1.5-2s-1.3-1.4-2.1-2
						c-0.6-0.5-1.2-0.8-1.9-0.9c-0.6,0-1.2,0.3-1.6,0.7V164c0.8,1.2,1.5,2.3,2,3s0.7,1.2,0.7,1.2s-0.4-0.4-0.9-1.1s-1.3-1.7-2.1-2.9
						l-0.1-0.1l0.1-0.1c0.4-0.6,1.2-0.9,2-0.9c0.8,0.1,1.6,0.4,2.2,0.9c0.8,0.7,1.5,1.4,2.1,2.1c0.6,0.7,1.1,1.4,1.5,2.1l-0.1-0.1
						C261.4,169.2,262.8,169.8,262.7,169.9z"/>
				</g>
			</g>
		</g>
		<path class="st13" d="M319.2,130c-3.5,2.6-6.3,6.2-7.2,12.7l-5.4,32l15.3,4.3l5.3-36.4L319.2,130z"/>
		<g>
			<path class="st13" d="M336.3,120.4l-17.1,9.6c-1.4,9.6,0.7,63.5,0.7,63.5l-0.8,51.8c24,11.9,51.7,7.5,81.1-2
				c0.2-2.2,0.1-4.3-0.6-5.9l-4.7-45.4c0,0,1.2-35.1,1.2-35.7s2.6-33.3,2.6-33.3l-28.2-8.4c0,0-12,9.9-21.5,10.4
				c-8.2,0.4-7.8-7-7.8-7L336.3,120.4z"/>
			<g>
				<path class="st13" d="M318.7,142.8c0,0,0.1,0.6,0.1,1.6c0,1.1,0,2.5,0.1,4.3c0,3.7,0.1,8.6,0.2,14.1s0.2,10.5,0.3,14.1
					c0.1,1.7,0.1,3.2,0.1,4.3c0,1,0,1.6,0,1.6s-0.1-0.6-0.2-1.6s-0.2-2.5-0.3-4.3c-0.2-3.6-0.4-8.6-0.5-14.1s-0.1-10.5,0-14.1
					c0-1.7,0.1-3.2,0.1-4.3C318.6,143.3,318.6,142.8,318.7,142.8z"/>
			</g>
		</g>
		<g>
			<path class="st11" d="M366.3,202.4c-0.4,0.9-9.2,5.6-9.2,5.6h-4c0,0-2.6-3.6-2.4-4.1s1.7-6.4-0.5-6.1c-2.1,0.3-3.6,4.1-3.9,5.1
				s0.4,2.6,0.4,2.6s-3.6-4.5-6.1-3.3c-2.5,1.1-1.3,2.7-1.3,2.7l7.3,6.3c0,0-4.9-0.6-4.9,3l4.4,2.1l7.2,1.2c0.9,0.1,1.8,0.1,2.6-0.2
				l1.8-0.6c0,0,4.3-0.5,6.6-1.3c2.4-0.8,4.8-3.6,4.8-3.6l9.2-10.1c0,0,1.3-5.2-1.7-6.7c-3-1.4-2-0.1-3-1.4s-4.8-3-5,1.1
				c-0.1,3.2,1.2,3.9,1.4,3.9C370.3,198.5,367.7,198.8,366.3,202.4z"/>
			<g>
				<path class="st12" d="M353.6,208c0,0.1-1.7-0.1-3.8-0.5l0,0l0,0l-0.1-0.1c-1.9-1.2-3.3-2.4-3-2.6c0,0,0.4,0.2,1,0.6
					c0.8,0.6,1.6,1,2.4,1.5l0.1,0.1h-0.1C351.9,207.4,353.6,207.9,353.6,208z"/>
			</g>
			<g>
				<path class="st12" d="M365.5,207.4c0,0.1-0.3,0.1-0.8,0.3s-1.1,0.6-1.7,1.2l0,0c-0.4,0.7-0.9,1.4-1.4,2.2v0.1h-0.1
					c-0.5,0.1-1,0.4-1.5,0.6c-0.9,0.4-1.7,0.9-2.4,1.4c-0.6,0.5-1.1,1.1-1,1.7c0,0.6,0.4,1,0.6,1.3s0.4,0.4,0.4,0.4
					s-0.2-0.1-0.5-0.3s-0.7-0.6-0.8-1.4c0-0.4,0-0.8,0.2-1.2s0.5-0.7,0.9-1c0.7-0.6,1.5-1.1,2.5-1.5c0.5-0.2,1-0.4,1.5-0.6l-0.1,0.1
					c0.5-0.8,1-1.5,1.4-2.2l0,0l0,0c0.7-0.7,1.4-1.1,2-1.2C365.1,207.3,365.5,207.3,365.5,207.4z"/>
			</g>
			<g>
				<path class="st12" d="M370,198.5c0-0.1,0.3,0,0.6,0.1c0.4,0.1,0.9,0.1,1.4,0.1c1.1,0,2-0.1,2.1,0.1c0,0.1-0.9,0.5-2.1,0.4
					c-0.6,0-1.1-0.1-1.5-0.3C370.2,198.7,370,198.5,370,198.5z"/>
			</g>
			<path class="st11" d="M378.2,201.6c0,0,4.7-1.3,9.6-2.8l10.9-3.9l-3.4-19.6l22.9-8c0,0,3.9,28.6,3,35.9
				c-0.9,7.1-4.9,8.8-10.5,10.6s-46.2-0.2-46.8,0.7s5.5-8,5.5-8L378.2,201.6z"/>
			<g>
				<path class="st12" d="M370.8,209.6c0.1,0.1-0.7,1.6-2.2,3s-3.1,2.1-3.1,2c-0.1-0.1,1.3-1,2.8-2.4
					C369.7,210.8,370.7,209.5,370.8,209.6z"/>
			</g>
			<g>
				<path class="st12" d="M408.8,198.7c-0.1,0.1-1.9-1.6-4.7-2.7c-2.8-1.1-5.3-1.1-5.3-1.3c0-0.1,2.6-0.4,5.5,0.8
					C407.2,196.7,409,198.7,408.8,198.7z"/>
			</g>
			<g>
				<path class="st12" d="M358.4,209.9c0,0.1-1,0.5-2.5,1.2c-0.4,0.2-0.8,0.4-1.2,0.6c-0.2,0.1-0.5,0.2-0.7,0.4l-0.2,0.1l-0.1,0.1
					c-0.1,0-0.2,0-0.2,0h-0.4c-1.1-0.1-2.4-0.2-3.6-0.4c-0.6-0.1-1.3-0.1-1.9-0.2c-0.6-0.1-1.2-0.1-1.7-0.1c-1.1,0-2.1,0.2-2.8,0.6
					c-0.7,0.4-1,1-1.2,1.4c-0.1,0.4-0.1,0.7-0.2,0.7s-0.1-0.3,0-0.8s0.4-1.2,1.2-1.7c0.8-0.5,1.8-0.8,3-0.8c0.6,0,1.2,0.1,1.8,0.1
					c0.6,0.1,1.2,0.1,1.9,0.2c1.3,0.1,2.5,0.3,3.6,0.4l0.4,0.1c0,0,0.2-0.1,0.3-0.1c0.2-0.1,0.5-0.2,0.7-0.3
					c0.4-0.2,0.9-0.4,1.3-0.6C357.3,210.1,358.4,209.8,358.4,209.9z"/>
			</g>
		</g>
		<g>
			<path class="st13" d="M398.7,123c0.7,0.2,8.3,2.5,12.5,13.4s9.7,39.6,9.7,39.6l-26.1,5.3l-3.9-35.4L398.7,123z"/>
			<g>
				<path class="st13" d="M389.2,148.7c0,0,0.1,0.4,0.2,1.3c0.1,0.9,0.3,2.1,0.5,3.5c0.4,2.9,1,7,1.8,11.4c0.8,4.5,1.6,8.5,2.2,11.4
					c0.3,1.4,0.5,2.5,0.7,3.4c0.2,0.8,0.2,1.3,0.2,1.3s-0.2-0.4-0.4-1.2c-0.2-0.8-0.5-2-0.9-3.4c-0.7-2.9-1.6-6.9-2.3-11.4
					c-0.8-4.5-1.3-8.5-1.6-11.5c-0.2-1.5-0.3-2.7-0.3-3.5C389.2,149.1,389.2,148.7,389.2,148.7z"/>
			</g>
			<g>
				<path class="st13" d="M398,126c0.1,0.1-3.3,1.7-5.9,5.3c-2.7,3.6-3.2,7.2-3.4,7.2c-0.1,0,0-0.9,0.4-2.4c0.4-1.4,1.2-3.3,2.6-5.1
					s2.9-3.2,4.2-4C397.1,126.2,397.9,125.9,398,126z"/>
			</g>
		</g>
	</g>
</g>
<g id="Character_1">
	<g>
		<g>
			<g>
				<g>
					<g>
						<g>
							<g>
								<g>
									<g>
										<path class="st5" d="M136.8,439l1.5,23.7l-6.4,20.5c-0.5,1.5,0.4,3,1.9,3.4l0,0c0.8,0.2,1.7,0,2.4-0.6
											c4.1-3.6,19.3-17.1,19.2-19c-0.1-2.2,0.4-27.5,0.4-27.5L136.8,439z"/>
									</g>
								</g>
							</g>
						</g>
					</g>
				</g>
			</g>
			<g>
				<g>
					<g>
						<g>
							<g>
								<g>
									<g>
										<path class="st8" d="M133.9,486.6l21.7-21.3l-0.1,1.1c0,1-0.4,1.9-1.1,2.6c-1.7,1.9-6.7,6.9-18.1,17.1
											C135.7,486.6,134.7,486.8,133.9,486.6L133.9,486.6z"/>
									</g>
								</g>
							</g>
						</g>
					</g>
				</g>
			</g>
			<g>
				<g>
					<g>
						<g>
							<g>
								<g>
									<g>
										<g>
											<path class="st9" d="M140.3,475.5c-0.2,0.1-0.7-1.3-2.2-2.1c-1.5-0.9-2.9-0.5-3-0.7c0-0.1,0.3-0.2,0.9-0.3
												s1.5,0.1,2.3,0.5c0.8,0.5,1.4,1.1,1.7,1.7C140.4,475.1,140.4,475.4,140.3,475.5z"/>
										</g>
									</g>
								</g>
							</g>
						</g>
					</g>
				</g>
			</g>
			<g>
				<g>
					<g>
						<g>
							<g>
								<g>
									<g>
										<g>
											<path class="st9" d="M138.3,478.9c-0.1,0.1-0.9-0.8-2.2-1.2c-1.3-0.5-2.5-0.3-2.5-0.4c-0.1-0.1,1.2-0.6,2.7-0.1
												C137.8,477.6,138.5,478.8,138.3,478.9z"/>
										</g>
									</g>
								</g>
							</g>
						</g>
					</g>
				</g>
			</g>
			<g>
				<g>
					<g>
						<g>
							<g>
								<g>
									<g>
										<g>
											<path class="st9" d="M144,471.2c-0.1,0.1-1.4-1.2-3.4-2.1s-3.8-0.9-3.8-1.1c0-0.1,1.9-0.4,4.1,0.5
												C143,469.5,144.1,471.1,144,471.2z"/>
										</g>
									</g>
								</g>
							</g>
						</g>
					</g>
				</g>
			</g>
			<g>
				<g>
					<g>
						<g>
							<g>
								<g>
									<g>
										<g>
											<path class="st9" d="M144.8,463.3c-0.1,0.1-1.5-0.5-3.3-0.7c-1.9-0.2-3.4,0.2-3.4,0.1c-0.1-0.1,1.5-0.8,3.5-0.6
												C143.5,462.2,144.9,463.1,144.8,463.3z"/>
										</g>
									</g>
								</g>
							</g>
						</g>
					</g>
				</g>
			</g>
		</g>
		<g>
			<g>
				<g>
					<g>
						<g>
							<g>
								<g>
									<g>
										<g>
											<g>
												<g>
													<g>
														<g>
															<path class="st5" d="M199.9,434l-0.8,22.9c0,0,23.1,8.5,23.3,12.8l-44.5,0.1l-0.2-35.8H199.9z"/>
														</g>
													</g>
												</g>
											</g>
										</g>
									</g>
								</g>
							</g>
						</g>
					</g>
				</g>
			</g>
			<g>
				<g>
					<g>
						<g>
							<g>
								<g>
									<g>
										<g>
											<g>
												<g>
													<g>
														<g>
															<g>
																<path class="st2" d="M185.4,455c-0.9,0.2-1.4,1.2-1.2,2.1s1.2,1.5,2.1,1.3c0.9-0.2,1.6-1.4,1.3-2.2
																	C187.3,455.4,186.1,454.7,185.4,455"/>
															</g>
														</g>
													</g>
												</g>
											</g>
										</g>
									</g>
								</g>
							</g>
						</g>
					</g>
				</g>
			</g>
			<g>
				<g>
					<g>
						<g>
							<g>
								<g>
									<g>
										<g>
											<g>
												<g>
													<g>
														<g>
															<path class="st8" d="M178,469.8l0.1-3.6l42.7,1.3c0,0,2,0.9,1.8,2.3L178,469.8z"/>
														</g>
													</g>
												</g>
											</g>
										</g>
									</g>
								</g>
							</g>
						</g>
					</g>
				</g>
			</g>
			<g>
				<g>
					<g>
						<g>
							<g>
								<g>
									<g>
										<g>
											<g>
												<g>
													<g>
														<g>
															<g>
																<path class="st9" d="M199.9,456.7c0,0.2-1.1,0.3-2.2,1c-1.1,0.7-1.6,1.6-1.8,1.5c-0.2,0,0.1-1.3,1.4-2.2
																	C198.6,456.2,199.9,456.5,199.9,456.7z"/>
															</g>
														</g>
													</g>
												</g>
											</g>
										</g>
									</g>
								</g>
							</g>
						</g>
					</g>
				</g>
			</g>
			<g>
				<g>
					<g>
						<g>
							<g>
								<g>
									<g>
										<g>
											<g>
												<g>
													<g>
														<g>
															<g>
																<path class="st9" d="M204.6,458.6c0.1,0.2-0.9,0.6-1.6,1.5c-0.8,0.9-0.9,1.9-1.2,1.9c-0.2,0-0.4-1.2,0.6-2.4
																	C203.3,458.5,204.6,458.4,204.6,458.6z"/>
															</g>
														</g>
													</g>
												</g>
											</g>
										</g>
									</g>
								</g>
							</g>
						</g>
					</g>
				</g>
			</g>
			<g>
				<g>
					<g>
						<g>
							<g>
								<g>
									<g>
										<g>
											<g>
												<g>
													<g>
														<g>
															<g>
																<path class="st9" d="M207.2,464.2c-0.2,0-0.5-1,0.1-2.2s1.6-1.7,1.7-1.5c0.1,0.2-0.5,0.8-1,1.8
																	S207.4,464.2,207.2,464.2z"/>
															</g>
														</g>
													</g>
												</g>
											</g>
										</g>
									</g>
								</g>
							</g>
						</g>
					</g>
				</g>
			</g>
			<g>
				<g>
					<g>
						<g>
							<g>
								<g>
									<g>
										<g>
											<g>
												<g>
													<g>
														<g>
															<g>
																<path class="st9" d="M199.5,451.5c-0.1,0.2-1.1-0.1-2.3,0s-2.2,0.5-2.3,0.3s0.8-1,2.3-1
																	C198.6,450.6,199.6,451.3,199.5,451.5z"/>
															</g>
														</g>
													</g>
												</g>
											</g>
										</g>
									</g>
								</g>
							</g>
						</g>
					</g>
				</g>
			</g>
		</g>
		<path class="st5" d="M202.6,280.3l-3-21.1l-81.3-3.7l-2.5,25.1l8.8,75.7c1.1,6.4,0.4,36.2,1.6,44.2c0.3,2,8.9,56.6,8.9,56.6h22
			c0,0,1.3-54,1.4-58.5c0.2-4.5,1-34.6,1-42.4c0-9.3,4.1-57.5,4.1-57.5l5.6,65.1c0,0-0.5,19.7,0,23.9c0.7,7.3,6.4,67.6,6.4,67.6
			l24.7,0.5c0,0,5.1-70.4,5.3-84C205.8,356.3,202.6,281.3,202.6,280.3z"/>
		<path class="st14" d="M182.1,141.5c0,0,13.1,3.4,17.8,19.4c3.4,11.5,9.7,27.9,9.7,27.9l-21.2,3.6L182.1,141.5z"/>
		<g>
			<path class="st14" d="M113.6,144.6c0,0,9.7-4.6,21.1-8.6h3.6l22,1.4c4.9,0.3,18.2,2.9,21.8,4.2c0,0,6.3,40.9,7.5,49.1
				c1.3,8.8,2.7,17.8,2.7,17.8l7.1,47.2c2.2,2.9,1.7,5.9,1.3,8.9c-24.6,10.8-52,12.8-83.5,0.4c-0.8-1.7-0.8-3.3,0.2-4.9
				c0.3-9.6,1-30.5,1.5-36.9c0,0-3.5-19.5-6-27c-3-8.9-8.1-23.3-8.1-30.7C104.8,158.6,113.6,144.6,113.6,144.6z"/>
			<path class="st15" d="M130.3,225.7c0,0,8,7,13.1,6.7s18.8-11.6,18.8-11.6s21.4,7.9,26.1,8.1c4.8,0.1,7.1,0,7.1,0v-11.2
				l-31.7-10.1l-29.1,4.3L130.3,225.7z"/>
			<g>
				<path class="st5" d="M184.3,155c0.1,0,2.1,11.9,4.3,26.6c2.2,14.7,3.9,26.6,3.8,26.6c-0.1,0-2.1-11.9-4.3-26.6
					C185.8,166.9,184.1,155,184.3,155z"/>
			</g>
			<g>
				<path class="st16" d="M120,204.9c-0.2,0.1-3.8,1.3-4,3.5s2,4.3,2,4.3s-2.4,2.4,0.4,4.9c0,0-2,3.9,3.5,5c0,0-0.6,3.8,2.9,4.6
					s5.3-1.1,5.5-1.5c0.6-0.9,0-1.4,0-1.4l6.5-0.8c0,0,14.5-1.6,16.1-3.1s-0.8-14.9-3.5-15.6C146.6,204.2,124.2,203.3,120,204.9z"/>
				<g>
					<path class="st17" d="M125.7,219.1c0.1,0.1-1.1,0.6-2.1,1.6c-1.1,1-1.6,2.1-1.7,2c-0.1,0,0.2-1.3,1.4-2.4
						C124.4,219.2,125.7,219,125.7,219.1z"/>
				</g>
				<g>
					<path class="st17" d="M122.6,215.2c0.1,0.1-1,0.6-2.2,1.2c-1.2,0.6-1.9,1.5-2.1,1.4c-0.1-0.1,0.5-1.2,1.8-1.9
						C121.4,215.3,122.6,215.1,122.6,215.2z"/>
				</g>
				<g>
					<path class="st17" d="M121.1,210.7c0,0.1-0.8,0.5-1.8,1.2c-0.9,0.7-1.6,1.4-1.7,1.3c-0.1-0.1,0.4-1,1.4-1.7
						C120.1,210.7,121.1,210.6,121.1,210.7z"/>
				</g>
			</g>
			<g>
				<path class="st16" d="M208.5,188.9c-0.1,0,4.4,15.2,4.4,15.2l-20.1,5l-1.7-8.7L190,192L208.5,188.9z"/>
				<path class="st16" d="M150,198.1c0.7,0.3,42.7,2.2,42.7,2.2s15.5-0.6,19.6,1.7c0,0,5.2,14.5-0.9,20.4
					c-5.1,4.9-10.1,4.8-16.6,3.8c-7.3-1.1-39.8-12.9-39.8-12.9L150,198.1z"/>
				<g>
					<path class="st17" d="M207.1,202.7c-0.1,0.2-3.3-1.3-7.5-2s-7.8-0.4-7.8-0.5s0.9-0.2,2.3-0.3c1.4-0.1,3.4,0,5.6,0.3
						c2.1,0.4,4.1,1,5.4,1.5S207.2,202.7,207.1,202.7z"/>
				</g>
			</g>
			
				<image style="overflow:visible;" width="2698" height="3347" xlink:href="logo-2.png"  transform="matrix(2.384433e-02 0 0 2.312781e-02 126.3029 131.2082)">
			</image>
			<g>
				<g>
					<path class="st16" d="M180,169.8c0,0,1.5-2.2,2.1-3.5s0.7-6.1,2.1-7.5c1.4-1.4,5.8-5.4,7.4-7c1.7-1.6,2.2-2.6,3.2-1.5
						s1.2,3,0.2,4.7c-0.9,1.7-4.2,4.7-3.7,6.4s0.4,3.3,3.4,3.3s11.1-2.5,15.1-3.4c5.6-1.3,6.9,0.5,6.9,0.5s2.8-0.7,3.4,0.6
						c0.6,1.3-1.4,2.9-2.3,3.6c-0.9,0.7-0.2,3.5-6.4,7.2c-0.8,0.5,1.1,1.9-5.1,4.6c-3.5,1.6-5.9,3.1-9.9,3.9
						c-8.5,1.6-12.2,6.5-12.2,6.5c-0.2,0-12.1-11.6-9.9-13.4C176.1,173,180,169.8,180,169.8z"/>
					<g>
						<path class="st17" d="M216.7,161.5c0,0,0.2,0.1,0.2,0.6s-0.3,1-0.9,1.4c-1.2,0.7-3,1.5-4.9,2.3c-2,0.8-3.8,1.4-5.1,1.7
							c-1.3,0.4-2.2,0.5-2.2,0.4s3.2-1.1,7.2-2.6c1.9-0.8,3.7-1.5,4.9-2.1c0.6-0.4,0.9-0.8,0.9-1.1
							C216.8,161.7,216.7,161.5,216.7,161.5z"/>
					</g>
					<g>
						<path class="st17" d="M217.7,166.1c0,0.1-0.6,0.6-1.8,1.4c-1.2,0.8-2.9,1.7-4.9,2.6c-2,0.9-3.8,1.6-5.2,1.9
							c-1.4,0.4-2.2,0.6-2.2,0.5s3.3-1.1,7.2-2.9C214.7,167.8,217.6,165.9,217.7,166.1z"/>
					</g>
					<g>
						<path class="st17" d="M205,176.2c-0.1-0.1,1.4-0.9,3.2-1.7c1.8-0.9,3.2-1.6,3.3-1.4c0.1,0.1-1.3,1-3.1,1.9
							C206.6,175.8,205.1,176.3,205,176.2z"/>
					</g>
				</g>
				<g>
					<path class="st16" d="M117.2,201c0,0,12,25,22.4,26.4c10.4,1.5,18.3-9.9,22-14.1c4.7-5.4,28-31.1,28-31.1l-12.3-10l-31.7,22.5
						l-6.1-10L117.2,201z"/>
					<g>
						<path class="st17" d="M133.5,224.3c0,0-0.4-0.2-1-0.5c-0.3-0.2-0.6-0.5-1.1-0.8c-0.4-0.3-0.8-0.7-1.3-1.2
							c-1.8-1.9-4-4.8-6.1-8.1c-2.1-3.4-3.8-6.5-5.1-8.8c-0.6-1.1-1.1-2.1-1.4-2.8s-0.5-1-0.4-1.1s0.2,0.3,0.6,0.9
							c0.4,0.7,0.9,1.6,1.5,2.7c1.3,2.2,3.1,5.4,5.2,8.7s4.2,6.2,5.9,8.2c0.4,0.5,0.8,0.9,1.2,1.2s0.7,0.7,1,0.9
							C133.2,224,133.5,224.2,133.5,224.3z"/>
					</g>
					<g>
						<path class="st17" d="M173.3,200.4c0,0-0.2,0.4-0.6,0.9c-0.4,0.6-1.1,1.4-1.9,2.4c-1.6,2-4,4.7-6.7,7.6
							c-2.7,2.9-5.1,5.5-6.9,7.4c-0.9,0.9-1.6,1.7-2.2,2.2s-0.8,0.8-0.9,0.7c0,0,0.2-0.3,0.7-0.9c0.6-0.6,1.2-1.4,2-2.3
							c1.8-2,4.2-4.6,6.8-7.5c2.7-2.9,5.1-5.6,6.8-7.5c0.8-0.9,1.5-1.7,2-2.3C173,200.6,173.2,200.4,173.3,200.4z"/>
					</g>
				</g>
				<g class="st3">
					<path class="st18" d="M129.8,163.7c6.7,12.5,14.2,25.5,14.2,25.5L115.7,205c0,0-11.1-25.1-11.2-25.7c0,0-3.9-15.4-0.3-24
						c2.9-6.9,9.3-10.7,9.3-10.7"/>
					<g class="st19">
						<path class="st14" d="M113.6,144.6c0,0-0.1,0-0.2,0.1s-0.3,0.2-0.4,0.3c-0.4,0.3-1,0.7-1.7,1.3c-1.4,1.2-3.4,3-5.3,5.9
							c-0.9,1.4-1.8,3.1-2.3,5.1c-0.6,1.9-0.8,4.2-0.8,6.5c-0.1,4.7,0.6,9.9,1.9,15.4l0,0c0.3,0.8,0.7,1.8,1.1,2.7s0.8,1.8,1.2,2.8
							c0.8,1.9,1.7,3.8,2.5,5.7c1.7,3.9,3.5,7.9,5.3,12.1c0.3,0.8,0.7,1.6,1.1,2.4l-0.4-0.1c10.4-5.8,20.1-11.2,28.3-15.8l-0.1,0.3
							c-4.2-7.7-7.8-14.1-10.2-18.6c-1.2-2.2-2.2-4-2.8-5.2c-0.3-0.6-0.6-1-0.7-1.4c-0.2-0.3-0.2-0.5-0.2-0.5s0.1,0.1,0.3,0.4
							c0.2,0.3,0.4,0.8,0.8,1.3c0.7,1.2,1.7,2.9,2.9,5.1c2.5,4.5,6.1,10.8,10.4,18.4l0.1,0.2l-0.2,0.1c-8.1,4.6-17.8,10-28.2,15.9
							l-0.2,0.1l-0.1-0.3c-0.3-0.8-0.7-1.6-1.1-2.4c-1.8-4.1-3.6-8.2-5.3-12.1c-0.8-1.9-1.7-3.9-2.5-5.7c-0.4-0.9-0.8-1.9-1.2-2.8
							c-0.4-0.9-0.8-1.8-1.1-2.8l0,0c-1.3-5.6-1.9-10.9-1.8-15.6c0.1-2.4,0.3-4.6,0.9-6.6s1.4-3.7,2.4-5.1c1.9-2.9,4-4.7,5.4-5.9
							c0.7-0.6,1.3-1,1.7-1.2c0.2-0.1,0.3-0.2,0.5-0.3C113.5,144.6,113.6,144.6,113.6,144.6z"/>
					</g>
				</g>
				<g>
					<path class="st17" d="M142,209.1c-0.1,0-0.2-0.8-0.3-2.2c0-1.4,0.1-3.3,0.7-5.4c0.6-2.1,1.4-3.8,2.2-5s1.3-1.8,1.4-1.8
						c0.1,0.1-2,2.9-3.1,6.9C141.8,205.6,142.2,209.1,142,209.1z"/>
				</g>
			</g>
		</g>
		<g>
			<g>
				<g>
					<g>
						<g>
							<g>
								<path class="st5" d="M122.1,121.7c1.2-1.1,2.9-1.3,4.1-2.4c1.2-1,1.8-2.7,1.9-4.3c0.1-1.6-0.3-3.2-0.7-4.8l13,16.7
									c-1,1.8-2.1,3.7-3.8,5c-1.6,1.3-3.9,2-5.8,1.3c-1.9-0.7-3.3-3.2-2.4-5.1c-1.8,1.7-4.8,1.7-6.5,0
									C120.2,126.5,120.3,123.3,122.1,121.7z"/>
							</g>
						</g>
					</g>
					<g>
						<g>
							<g>
								<path class="st5" d="M159.7,72.9c3.1,2.4,3.7,4.7,3.8,6c0,0.4,0,0.8-0.4,0.9c-0.2,0.1-0.4,0-0.5-0.1
									c-3.5-1.1-7-2.2-10.6-3.3"/>
							</g>
						</g>
					</g>
					<g>
						<g>
							<g>
								<g>
									<g>
										<g>
											<g>
												<g>
													<g>
														<g>
															<g>
																<path class="st5" d="M130.5,115c-2.4-4.3-4.7-8.8-6.4-13.4c-1.6-4.7-2.4-9.8-1.7-14.7c0.1-0.8,1.4-5.8,2.1-5.9
																	c0.5-0.1,0,4.6,0.4,5c3.3,3.9,5,9,5.6,14.1C131.2,105.1,131,109.9,130.5,115"/>
															</g>
														</g>
													</g>
												</g>
											</g>
										</g>
									</g>
								</g>
							</g>
						</g>
						<path class="st16" d="M171.3,115.1c-0.7-5.8-3.2-17.5-5.5-28c-2.5-11.4-13.1-18.8-24.4-17.2l-1.1,0.2
							c-12,2.5-16.6,14.3-13.9,26.5l8.3,40.9l0.8,0.8c5.3,5.2,11.4,8,18,7.8c4.8-0.1,8.7-3.9,9-8.7l0,0c0.1-0.1-1-6.7-1-6.7
							C161.5,130.5,172.9,127,171.3,115.1z"/>
						<g>
							<g>
								<g>
									<g>
										<g>
											<g>
												<g>
													<g>
														<g>
															<g>
																<g>
																	<g>
																		<path class="st17" d="M161.5,130.5c0,0-7.3,1.5-15.8-2.4c0,0,4.9,8.4,16.3,5.6L161.5,130.5z"/>
																	</g>
																</g>
															</g>
														</g>
													</g>
												</g>
											</g>
										</g>
									</g>
								</g>
							</g>
						</g>
						<g>
							<g>
								<g>
									<g>
										<g>
											<g>
												<g>
													<g>
														<g>
															<g>
																<g>
																	<g>
																		<g>
																			<g>
																				<g>
																					<g>
																						<g>
																							<g>
																								<path class="st5" d="M163.7,98.6c0.2,0.9-0.4,1.8-1.4,1.9s-1.8-0.4-1.9-1.3c-0.2-0.9,0.4-1.8,1.4-1.9
																									S163.6,97.7,163.7,98.6z"/>
																							</g>
																						</g>
																					</g>
																				</g>
																			</g>
																		</g>
																	</g>
																</g>
															</g>
														</g>
													</g>
												</g>
											</g>
										</g>
									</g>
								</g>
							</g>
						</g>
						<g>
							<g>
								<g>
									<g>
										<g>
											<g>
												<g>
													<g>
														<g>
															<g>
																<g>
																	<g>
																		<g>
																			<g>
																				<g>
																					<g>
																						<g>
																							<g>
																								<g>
																									<path class="st5" d="M164.1,92.6c-0.2,0.2-1.6-0.5-3.4-0.2c-1.8,0.2-3,1.4-3.2,1.2c-0.1-0.1,0.1-0.5,0.6-1
																										s1.4-1.1,2.5-1.2c1.1-0.2,2.1,0.1,2.7,0.5C164,92.1,164.2,92.5,164.1,92.6z"/>
																								</g>
																							</g>
																						</g>
																					</g>
																				</g>
																			</g>
																		</g>
																	</g>
																</g>
															</g>
														</g>
													</g>
												</g>
											</g>
										</g>
									</g>
								</g>
							</g>
						</g>
						<g>
							<g>
								<g>
									<g>
										<g>
											<g>
												<g>
													<g>
														<g>
															<g>
																<g>
																	<g>
																		<g>
																			<g>
																				<g>
																					<g>
																						<g>
																							<g>
																								<path class="st5" d="M148.3,100.8c0.2,0.9-0.5,1.8-1.4,1.9c-0.9,0.2-1.8-0.4-1.9-1.3
																									c-0.2-0.9,0.5-1.8,1.4-1.9S148.2,99.9,148.3,100.8z"/>
																							</g>
																						</g>
																					</g>
																				</g>
																			</g>
																		</g>
																	</g>
																</g>
															</g>
														</g>
													</g>
												</g>
											</g>
										</g>
									</g>
								</g>
							</g>
						</g>
						<g>
							<g>
								<g>
									<g>
										<g>
											<g>
												<g>
													<g>
														<g>
															<g>
																<g>
																	<g>
																		<g>
																			<g>
																				<g>
																					<g>
																						<g>
																							<g>
																								<g>
																									<path class="st5" d="M146.7,95.6c-0.2,0.2-1.6-0.5-3.3-0.2c-1.8,0.2-3,1.4-3.2,1.2c-0.1-0.1,0-0.5,0.6-1
																										c0.5-0.5,1.4-1.1,2.5-1.2c1.1-0.2,2.1,0.1,2.7,0.5C146.5,95.1,146.8,95.5,146.7,95.6z"/>
																								</g>
																							</g>
																						</g>
																					</g>
																				</g>
																			</g>
																		</g>
																	</g>
																</g>
															</g>
														</g>
													</g>
												</g>
											</g>
										</g>
									</g>
								</g>
							</g>
						</g>
						<g>
							<g>
								<g>
									<g>
										<g>
											<g>
												<g>
													<g>
														<g>
															<g>
																<g>
																	<g>
																		<g>
																			<g>
																				<g>
																					<g>
																						<g>
																							<g>
																								<path class="st5" d="M155,108.7c0-0.1,1.1-0.5,2.8-1c0.4-0.1,0.9-0.3,0.9-0.6c0.1-0.3-0.2-0.8-0.5-1.3
																									c-0.6-1.1-1.2-2.2-1.8-3.3c-2.6-4.8-4.5-8.7-4.3-8.8c0.2-0.1,2.4,3.7,5,8.5c0.6,1.2,1.2,2.3,1.8,3.4
																									c0.2,0.5,0.6,1.1,0.5,1.8c-0.1,0.4-0.4,0.7-0.7,0.8c-0.3,0.1-0.5,0.2-0.8,0.2
																									C156.2,108.6,155,108.8,155,108.7z"/>
																							</g>
																						</g>
																					</g>
																				</g>
																			</g>
																		</g>
																	</g>
																</g>
															</g>
														</g>
													</g>
												</g>
											</g>
										</g>
									</g>
								</g>
							</g>
						</g>
						<g>
							<g>
								<g>
									<g>
										<g>
											<g>
												<g>
													<g>
														<g>
															<g>
																<g>
																	<g>
																		<g>
																			<g>
																				<path class="st5" d="M146.5,89.8c-0.2,0.5-2,0.3-4.1,0.5s-3.8,0.8-4.1,0.4c-0.1-0.2,0.2-0.7,0.9-1.2
																					s1.8-0.9,3.1-1.1c1.3-0.1,2.4,0.1,3.2,0.4C146.1,89.2,146.5,89.6,146.5,89.8z"/>
																			</g>
																		</g>
																	</g>
																</g>
															</g>
														</g>
													</g>
												</g>
											</g>
										</g>
									</g>
								</g>
							</g>
						</g>
						<g>
							<g>
								<g>
									<g>
										<g>
											<g>
												<g>
													<g>
														<g>
															<g>
																<g>
																	<g>
																		<g>
																			<g>
																				<path class="st5" d="M163.9,89.6c-0.3,0.5-1.8,0.3-3.6,0.5s-3.2,0.8-3.6,0.4c-0.2-0.2,0-0.6,0.6-1.1
																					s1.6-1,2.8-1.1c1.2-0.2,2.3,0.1,3,0.4C163.8,89,164.1,89.4,163.9,89.6z"/>
																			</g>
																		</g>
																	</g>
																</g>
															</g>
														</g>
													</g>
												</g>
											</g>
										</g>
									</g>
								</g>
							</g>
						</g>
						<g>
							<g>
								<g>
									<g>
										<g>
											<g>
												<g>
													<g>
														<g>
															<g>
																<path class="st16" d="M128.6,105.1c-0.2-0.1-8.3-1.3-6.9,6.8s9,5,9,4.8C130.7,116.4,128.6,105.1,128.6,105.1z"/>
															</g>
														</g>
													</g>
												</g>
											</g>
										</g>
									</g>
								</g>
							</g>
						</g>
						<g>
							<g>
								<g>
									<g>
										<g>
											<g>
												<g>
													<g>
														<g>
															<g>
																<g>
																	<path class="st17" d="M127.8,114c0,0-0.1,0.1-0.3,0.3c-0.2,0.2-0.6,0.3-1,0.2c-0.9-0.2-1.8-1.4-2.1-2.8
																		c-0.2-0.7-0.1-1.5,0-2.1s0.4-1.1,0.8-1.3c0.4-0.2,0.7,0,0.9,0.2s0.1,0.4,0.2,0.4c0,0,0.2-0.2,0-0.5
																		c-0.1-0.2-0.2-0.3-0.4-0.4c-0.2-0.1-0.5-0.2-0.8-0.1c-0.6,0.2-1.1,0.8-1.2,1.5c-0.2,0.7-0.3,1.5-0.1,2.3
																		c0.3,1.6,1.4,3,2.6,3.1c0.6,0.1,1-0.2,1.2-0.4C127.8,114.2,127.8,114,127.8,114z"/>
																</g>
															</g>
														</g>
													</g>
												</g>
											</g>
										</g>
									</g>
								</g>
							</g>
						</g>
						<g>
							<g>
								<g>
									<g>
										<g>
											<g>
												<g>
													<g>
														<g>
															<g>
																<path class="st5" d="M158.3,74.6c1.1-1-3.4-4.5-6.9-5.3c-5.1-1.3-12.6-1.3-16.8,0.8c-5,2.5-8.9,6-10.7,11.4
																	s-1.7,11.3-0.6,16.9c0.3,1.7,0.8,3.4,2,4.7c1.4,1.6,3.2,2.2,4.1,4.8c0.3,0.9,0.5,1.8,1.3,2.3
																	c1.7,1.3,3.2-0.5,3.8-2.1c1.2-3.5,0.7-7.3,0.2-10.9c-0.4-2.6-0.7-5.2-1.9-7.6c-0.6-1.3-1.5-2.4-2-3.7
																	c-0.6-1.3-0.8-2.9-0.2-4.1c0.1-0.2,0.3-0.5,0.5-0.8c1.9-2.4,4.9-3.6,7.9-3.1c4.7,0.8,12.8,1.8,14.5-0.2
																	c2.4-2.8,2.9-4.3,2.9-4.3L158.3,74.6z"/>
															</g>
														</g>
													</g>
												</g>
											</g>
										</g>
									</g>
								</g>
							</g>
						</g>
					</g>
					<g>
						<g>
							<g>
								<g>
									<path class="st8" d="M123.1,105.8c-0.2-0.1-0.4-0.1-0.6-0.2c-10.9-7.3-5.1-17.4-5.5-20.2c-0.5-3.8-4,1.8-5.4-3
										C109.7,76,116,72,123.8,67.6c3.3-1.8,11.8-3.8,19.6-3.6c7,0.2,12.3,4.2,15.5,7.5c0,0,1.7,0.5,2.2,1.1c1.6,2,1.2,3,1.2,3
										s-16.2-5.1-26.8,7.6s-6.7,21.2-10,21.9L123.1,105.8z"/>
								</g>
							</g>
						</g>
						<g>
							<g>
								<g>
									<path class="st5" d="M127.5,72.6c0,0-0.2,0.2-0.6,0.4c-0.2,0.1-0.4,0.3-0.7,0.5c-0.3,0.2-0.6,0.4-0.9,0.7
										c-0.7,0.5-1.4,1.1-2.2,1.9c-0.8,0.8-1.6,1.7-2.4,2.7s-1.4,2.1-1.9,3.1s-0.9,1.9-1.2,2.7c-0.2,0.4-0.3,0.8-0.4,1.1
										s-0.2,0.6-0.2,0.8c-0.1,0.5-0.2,0.7-0.2,0.7s0-0.3,0.1-0.7c0.1-0.2,0.1-0.5,0.2-0.8s0.2-0.7,0.3-1.1
										c0.3-0.8,0.7-1.7,1.2-2.7s1.2-2.1,1.9-3.1c0.8-1,1.6-1.9,2.4-2.7c0.8-0.8,1.6-1.4,2.3-1.9c0.3-0.2,0.7-0.4,0.9-0.6
										s0.5-0.3,0.7-0.4C127.3,72.7,127.5,72.6,127.5,72.6z"/>
								</g>
							</g>
						</g>
						<g>
							<g>
								<g>
									<path class="st5" d="M159.4,71.6h-0.1c-0.1,0-0.2-0.1-0.4-0.1c-0.4-0.1-0.9-0.2-1.6-0.3c-0.7-0.1-1.6-0.3-2.6-0.4
										s-2.2-0.2-3.5-0.1c-2.6,0.1-5.7,0.5-8.9,1.8c-1.6,0.6-3.2,1.4-4.9,2.4c-1.6,1-3.1,2.2-4.6,3.6c-1.4,1.4-2.7,2.9-3.8,4.5
										c-1.1,1.6-1.9,3.2-2.6,4.8c-1.4,3.2-2.1,6.3-2.5,9c-0.4,2.6-0.6,4.8-0.8,6.3c-0.1,0.7-0.1,1.3-0.1,1.7c0,0.2,0,0.3,0,0.4
										s0,0.2,0,0.2s0-0.1,0-0.2s0-0.3,0-0.4c0-0.4,0-1,0.1-1.7c0.1-1.5,0.3-3.6,0.7-6.3c0.4-2.6,1.1-5.8,2.5-9
										c0.7-1.6,1.5-3.3,2.6-4.9c1.1-1.6,2.4-3.1,3.8-4.5c1.5-1.4,3-2.6,4.6-3.6s3.3-1.8,4.9-2.4c3.2-1.2,6.4-1.7,9-1.7
										c1.3,0,2.5,0,3.5,0.2c1,0.1,1.9,0.3,2.6,0.4c0.7,0.2,1.3,0.3,1.6,0.4c0.2,0.1,0.3,0.1,0.4,0.1
										C159.4,71.6,159.4,71.6,159.4,71.6z"/>
								</g>
							</g>
						</g>
						<g>
							<g>
								<g>
									<path class="st5" d="M127.4,100.8c0,0.1-1,0.4-2.2,0.1c-1.2-0.2-2-0.9-2-1s0.8,0.5,2,0.7
										C126.5,101,127.4,100.7,127.4,100.8z"/>
								</g>
							</g>
						</g>
						<g>
							<g>
								<g>
									<path class="st5" d="M130.3,92.9c0,0-0.3,0.1-0.8,0s-1.2-0.3-1.9-0.7s-1.3-0.9-1.6-1.3c-0.3-0.4-0.5-0.7-0.5-0.7
										c0.1-0.1,0.8,1,2.2,1.8C129,92.7,130.3,92.8,130.3,92.9z"/>
								</g>
							</g>
						</g>
						<g>
							<g>
								<g>
									<path class="st5" d="M135.9,82.7c-0.1,0-0.7-1-1.9-2c-1.1-1-2.3-1.4-2.2-1.5c0-0.1,1.2,0.3,2.4,1.3
										C135.3,81.6,135.9,82.7,135.9,82.7z"/>
								</g>
							</g>
						</g>
						<g>
							<g>
								<g>
									<path class="st5" d="M142.4,77.7c-0.1,0-0.4-1.1-1.1-2.2c-0.7-1.2-1.6-1.9-1.6-1.9s1,0.6,1.8,1.8
										C142.2,76.6,142.4,77.7,142.4,77.7z"/>
								</g>
							</g>
						</g>
						<g>
							<g>
								<g>
									<path class="st5" d="M153,75c-0.1,0,0.1-1.2-0.5-2.4c-0.6-1.3-1.6-1.9-1.5-1.9c0,0,0.3,0.1,0.6,0.4
										c0.4,0.3,0.8,0.8,1.1,1.4s0.4,1.3,0.4,1.8C153.1,74.7,153,75,153,75z"/>
								</g>
							</g>
						</g>
						<g>
							<g>
								<g>
									<path class="st5" d="M159.8,75.4c-0.1,0,0.1-0.9-0.1-1.9c-0.2-1-0.7-1.8-0.6-1.8c0,0,0.6,0.7,0.8,1.8
										C160.1,74.5,159.9,75.4,159.8,75.4z"/>
								</g>
							</g>
						</g>
					</g>
				</g>
			</g>
			<path class="st17" d="M156.3,113.3c-0.1,0-5.4-2.1-5.4-2.1s-1.5,3,0.3,4.4s4.1,0.5,4.4-0.3C156,114.5,156.3,113.3,156.3,113.3z"
				/>
			<g>
				<path class="st5" d="M155.1,115.9c0,0-0.2,0.3-0.7,0.4c-0.5,0.2-1.3,0.2-2.2,0l0,0l0,0c-0.6-0.2-1.3-0.5-1.8-1.3
					c-0.5-0.7-0.5-1.7-0.3-2.6c0.1-0.5,0.3-1,0.6-1.5l0.1-0.2l0.2,0.1c3.2,1.2,5.5,2.3,5.5,2.4s-2.5-0.7-5.7-1.9l0.3-0.1
					c-0.2,0.4-0.4,0.9-0.5,1.3c-0.2,0.8-0.2,1.6,0.2,2.2s1,0.9,1.5,1.1l0,0c0.8,0.2,1.6,0.2,2,0.1
					C154.8,116.1,155,115.9,155.1,115.9z"/>
			</g>
		</g>
	</g>
	<rect x="64.2" y="41.7" class="st20" width="30.2" height="37.9"/>
</g>
<image style="overflow:visible;" width="2698" height="3347" xlink:href="logo-2.png"  transform="matrix(2.384433e-02 0 0 2.312781e-02 311.934 116.2956)">
</image>
</svg>
