<?xml version="1.0" encoding="utf-8"?>
<!-- Generator: Adobe Illustrator 26.3.0, SVG Export Plug-In . SVG Version: 6.00 Build 0)  -->
<svg version="1.1" xmlns="http://www.w3.org/2000/svg" xmlns:xlink="http://www.w3.org/1999/xlink" x="0px" y="0px"
	 viewBox="0 0 500 500" style="enable-background:new 0 0 500 500;" xml:space="preserve">
<style type="text/css">
	.st0{fill:#F5F5F5;}
	.st1{fill:#EBEBEB;}
	.st2{fill:#E0E0E0;}
	.st3{display:none;}
	.st4{display:inline;fill:#F5F5F5;}
	.st5{fill:#263238;}
	.st6{fill:#FF725E;}
	.st7{fill:#FAFAFA;}
	.st8{fill:#455A64;}
	.st9{fill:#FFFFFF;}
	.st10{opacity:0.6;}
	.st11{fill:#AE7461;}
	.st12{fill:#6F4439;}
	.st13{opacity:0.3;}
	.st14{fill:#FFBF9D;}
	.st15{fill:#FF9A6C;}
</style>
<g id="Background_Complete">
	<g>
		<g>
			<g>
				<path class="st0" d="M458.03,97.21c-0.9-2.41-1.82-4.86-3.34-6.93c-1.52-2.08-3.74-3.78-6.29-4.09
					c-2.56-0.31-5.39,1.07-6.22,3.5c-0.37-5.49-1.14-11.12-3.89-15.89c-2.75-4.77-7.87-8.51-13.37-8.17
					c-5.18,0.32-9.61,4.16-12.07,8.73c-2.46,4.57-3.31,9.8-4.12,14.93c-1.96-2.41-6.11-1.65-8.16,0.68c-2.05,2.34-2.57,5.6-3,8.68
					h61.75L458.03,97.21z"/>
			</g>
		</g>
	</g>
	<g>
		<g>
			<g>
				<path class="st0" d="M281.3,135.38c-0.9-2.41-1.82-4.86-3.34-6.93c-1.52-2.08-3.74-3.78-6.29-4.09
					c-2.56-0.31-5.39,1.07-6.22,3.5c-0.37-5.49-1.14-11.12-3.89-15.89c-2.75-4.77-7.87-8.51-13.37-8.17
					c-5.18,0.32-9.61,4.16-12.07,8.73c-2.46,4.57-3.31,9.8-4.12,14.93c-1.96-2.41-6.11-1.65-8.16,0.68c-2.05,2.34-2.57,5.6-3,8.68
					h61.75L281.3,135.38z"/>
			</g>
		</g>
	</g>
	<g>
		<g>
			<g>
				<path class="st0" d="M96.74,86.83c-0.9-2.41-1.82-4.86-3.34-6.93c-1.52-2.08-3.74-3.78-6.29-4.09c-2.56-0.31-5.39,1.07-6.22,3.5
					c-0.37-5.49-1.14-11.12-3.89-15.89c-2.75-4.77-7.87-8.51-13.37-8.17c-5.18,0.32-9.61,4.16-12.07,8.73
					c-2.46,4.57-3.31,9.8-4.12,14.93c-1.96-2.41-6.11-1.65-8.16,0.68c-2.05,2.34-2.57,5.6-3,8.68h61.75L96.74,86.83z"/>
			</g>
		</g>
	</g>
	<g>
		<g>
			<g>
				<g>
					<g>
						<g>
							
								<rect x="188.61" y="289.27" transform="matrix(-1 -1.224647e-16 1.224647e-16 -1 393.3732 634.0606)" class="st0" width="16.15" height="55.51"/>
						</g>
					</g>
				</g>
			</g>
		</g>
		<g>
			<g>
				<g>
					<g>
						<g>
							<path class="st1" d="M257.92,289.09c0,0-0.79-0.53,0.95-2.82c1.75-2.29-0.95-3.52-0.95-3.52c-7.63,4.41-18.28,0-18.28,0
								s12.56-3.88,14.15-7.58c1.19-2.76-0.91-3.07-2.04-3.05c1.28-0.13,4.06-0.59,4.9-2.06c1.11-1.94-3.26-4.23-3.26-4.23
								s0.71-1.06,0-3c-0.71-1.94-17.09-4.76-17.09-4.76c4.77,0.53,6.52-4.23,6.52-4.23s8.11,0.18,10.02-3
								c1.91-3.17-1.27-4.05-6.68-6.7c-5.41-2.64-17.33-12.51-17.33-12.51s7.47-0.71,9.54-2.47c2.07-1.76,0.16-2.11,0.16-2.11
								c8.9,0.88,5.88-3.88,5.88-3.88c-11.92-3.7-18.28-11.81-18.28-11.81s5.56-1.23,8.43-3.88c2.86-2.64-2.39-3.35-2.39-3.35
								s10.49-1.41,4.45-5.29c-4.59-2.95-11.94-6.91-14.22-8.1c2.5,0.92,8.18-0.18,8.18-0.18c6.68-3,0-7.4,0-7.4
								c-7.79-4.4-19.24-15.51-19.24-15.51s5.72,3,8.59,2.11c2.86-0.88-3.18-4.41-3.18-4.41s3.02,0.88,4.29,0
								c1.27-0.88-3.34-4.93-3.34-4.93c-6.85-4.45-15.3-16.14-18.84-21.16c-3.53,5.02-11.98,16.71-18.84,21.16
								c0,0-4.61,4.05-3.34,4.93c1.27,0.88,4.29,0,4.29,0s-6.04,3.52-3.18,4.41c2.86,0.88,8.59-2.11,8.59-2.11
								s-11.45,11.1-19.24,15.51c0,0-6.68,4.41,0,7.4c0,0,5.68,1.1,8.18,0.18c-2.28,1.19-9.63,5.15-14.22,8.1
								c-6.04,3.88,4.45,5.29,4.45,5.29s-5.25,0.7-2.38,3.35c2.86,2.64,8.43,3.88,8.43,3.88s-6.36,8.11-18.28,11.81
								c0,0-3.02,4.76,5.88,3.88c0,0-1.91,0.35,0.16,2.11c2.07,1.76,9.54,2.47,9.54,2.47s-11.92,9.87-17.33,12.51
								c-5.41,2.64-8.59,3.52-6.68,6.7c1.91,3.17,10.02,3,10.02,3s1.75,4.76,6.52,4.23c0,0-16.38,2.82-17.09,4.76
								c-0.72,1.94,0,3,0,3s-4.37,2.29-3.26,4.23c0.85,1.47,3.62,1.93,4.9,2.06c-1.14-0.02-3.23,0.28-2.04,3.05
								c1.59,3.7,14.15,7.58,14.15,7.58s-10.65,4.41-18.28,0c0,0-2.7,1.23-0.95,3.52c1.75,2.29,0.95,2.82,0.95,2.82
								s-3.97-3-2.23,1.59c1.75,4.58,10.97,7.4,10.97,7.4s-5.25,0.88-3.66,3.7c1.59,2.82,8.27,6.17,15.58,6.87
								s17.17-1.94,17.17-1.94s-6.68,3.52-2.07,5.46c4.61,1.94,9.86-2.47,9.86-2.47s-0.95,4.51,2.86,2.96c3.82-1.55,7-4.55,7-4.55
								s1.19,6.65,3.57,5.06c2.38,1.59,3.57-5.06,3.57-5.06s3.18,3,7,4.55c3.82,1.55,2.86-2.96,2.86-2.96s5.25,4.41,9.86,2.47
								c4.61-1.94-2.07-5.46-2.07-5.46s9.86,2.64,17.17,1.94c7.31-0.7,13.99-4.05,15.58-6.87c1.59-2.82-3.66-3.7-3.66-3.7
								s9.22-2.82,10.97-7.4C261.9,286.1,257.92,289.09,257.92,289.09z"/>
						</g>
					</g>
				</g>
			</g>
		</g>
		<g>
			<g>
				<g>
					<g>
						<g>
							<path d="M222.09,183.72c-0.09-0.04-0.17-0.08-0.25-0.12C221.93,183.63,222.02,183.67,222.09,183.72z"/>
						</g>
					</g>
				</g>
			</g>
		</g>
	</g>
	<g>
		<g>
			<g>
				<g>
					<g>
						<g>
							
								<rect x="50.21" y="309.67" transform="matrix(-1 -1.224647e-16 1.224647e-16 -1 110.5824 654.2855)" class="st1" width="10.16" height="34.94"/>
						</g>
					</g>
				</g>
			</g>
		</g>
		<g>
			<g>
				<g>
					<g>
						<g>
							<path class="st2" d="M93.83,309.56c0,0-0.5-0.33,0.6-1.77c1.1-1.44-0.6-2.22-0.6-2.22c-4.8,2.77-11.51,0-11.51,0
								s7.91-2.44,8.91-4.77c0.75-1.74-0.57-1.93-1.29-1.92c0.81-0.08,2.55-0.37,3.09-1.3c0.7-1.22-2.05-2.66-2.05-2.66
								s0.45-0.67,0-1.89c-0.45-1.22-10.76-2.99-10.76-2.99c3,0.33,4.1-2.66,4.1-2.66s5.1,0.11,6.3-1.89c1.2-2-0.8-2.55-4.2-4.21
								c-3.4-1.66-10.91-7.88-10.91-7.88s4.7-0.44,6-1.55c1.3-1.11,0.1-1.33,0.1-1.33c5.6,0.55,3.7-2.44,3.7-2.44
								c-7.51-2.33-11.51-7.43-11.51-7.43s3.5-0.78,5.3-2.44c1.8-1.66-1.5-2.11-1.5-2.11s6.61-0.89,2.8-3.33
								c-2.89-1.85-7.51-4.35-8.95-5.1c1.58,0.58,5.15-0.11,5.15-0.11c4.2-1.89,0-4.66,0-4.66c-4.9-2.77-12.11-9.76-12.11-9.76
								s3.6,1.89,5.4,1.33c1.8-0.55-2-2.77-2-2.77s1.9,0.55,2.7,0c0.8-0.55-2.1-3.11-2.1-3.11c-4.31-2.8-9.63-10.16-11.86-13.32
								c-2.22,3.16-7.54,10.52-11.86,13.32c0,0-2.9,2.55-2.1,3.11c0.8,0.55,2.7,0,2.7,0s-3.8,2.22-2,2.77
								c1.8,0.55,5.4-1.33,5.4-1.33s-7.21,6.99-12.11,9.76c0,0-4.2,2.77,0,4.66c0,0,3.57,0.69,5.15,0.11
								c-1.44,0.75-6.06,3.24-8.95,5.1c-3.8,2.44,2.8,3.33,2.8,3.33s-3.3,0.44-1.5,2.11c1.8,1.66,5.3,2.44,5.3,2.44
								s-4,5.1-11.51,7.43c0,0-1.9,2.99,3.7,2.44c0,0-1.2,0.22,0.1,1.33c1.3,1.11,6,1.55,6,1.55s-7.51,6.21-10.91,7.88
								c-3.4,1.66-5.4,2.22-4.2,4.21c1.2,2,6.3,1.89,6.3,1.89s1.1,2.99,4.1,2.66c0,0-10.31,1.77-10.76,2.99
								c-0.45,1.22,0,1.89,0,1.89s-2.75,1.44-2.05,2.66c0.53,0.93,2.28,1.21,3.09,1.3c-0.72-0.01-2.03,0.18-1.29,1.92
								c1,2.33,8.91,4.77,8.91,4.77s-6.7,2.77-11.51,0c0,0-1.7,0.78-0.6,2.22c1.1,1.44,0.6,1.77,0.6,1.77s-2.5-1.89-1.4,1
								c1.1,2.88,6.9,4.66,6.9,4.66s-3.3,0.55-2.3,2.33c1,1.77,5.2,3.88,9.81,4.33c4.6,0.44,10.81-1.22,10.81-1.22
								s-4.2,2.22-1.3,3.44c2.9,1.22,6.2-1.55,6.2-1.55s-0.6,2.84,1.8,1.86c2.4-0.98,4.4-2.86,4.4-2.86s0.75,4.18,2.25,3.18
								c1.5,1,2.25-3.18,2.25-3.18s2,1.89,4.4,2.86c2.4,0.98,1.8-1.86,1.8-1.86s3.3,2.77,6.2,1.55c2.9-1.22-1.3-3.44-1.3-3.44
								s6.2,1.66,10.81,1.22c4.6-0.44,8.81-2.55,9.81-4.33c1-1.77-2.3-2.33-2.3-2.33s5.8-1.77,6.91-4.66
								C96.34,307.67,93.83,309.56,93.83,309.56z"/>
						</g>
					</g>
				</g>
			</g>
		</g>
		<g>
			<g>
				<g>
					<g>
						<g>
							<path d="M71.28,243.23c-0.05-0.02-0.11-0.05-0.16-0.07C71.18,243.18,71.23,243.2,71.28,243.23z"/>
						</g>
					</g>
				</g>
			</g>
		</g>
	</g>
	<g>
		<g>
			<g>
				<g>
					<g>
						<g>
							
								<rect x="306.94" y="309.84" transform="matrix(-1 -1.224647e-16 1.224647e-16 -1 624.0476 654.6311)" class="st1" width="10.16" height="34.94"/>
						</g>
					</g>
				</g>
			</g>
		</g>
		<g>
			<g>
				<g>
					<g>
						<g>
							<path class="st2" d="M350.57,309.73c0,0-0.5-0.33,0.6-1.77c1.1-1.44-0.6-2.22-0.6-2.22c-4.8,2.77-11.51,0-11.51,0
								s7.91-2.44,8.91-4.77c0.75-1.74-0.57-1.93-1.29-1.92c0.81-0.08,2.55-0.37,3.09-1.3c0.7-1.22-2.05-2.66-2.05-2.66
								s0.45-0.67,0-1.89c-0.45-1.22-10.76-2.99-10.76-2.99c3,0.33,4.1-2.66,4.1-2.66s5.1,0.11,6.3-1.89c1.2-2-0.8-2.55-4.2-4.21
								c-3.4-1.66-10.91-7.88-10.91-7.88s4.7-0.44,6-1.55c1.3-1.11,0.1-1.33,0.1-1.33c5.6,0.55,3.7-2.44,3.7-2.44
								c-7.51-2.33-11.51-7.43-11.51-7.43s3.5-0.78,5.3-2.44c1.8-1.66-1.5-2.11-1.5-2.11s6.61-0.89,2.8-3.33
								c-2.89-1.85-7.51-4.35-8.95-5.1c1.58,0.58,5.15-0.11,5.15-0.11c4.2-1.89,0-4.66,0-4.66c-4.9-2.77-12.11-9.76-12.11-9.76
								s3.6,1.89,5.4,1.33c1.8-0.55-2-2.77-2-2.77s1.9,0.55,2.7,0c0.8-0.55-2.1-3.11-2.1-3.11c-4.31-2.8-9.63-10.16-11.86-13.32
								c-2.22,3.16-7.54,10.52-11.86,13.32c0,0-2.9,2.55-2.1,3.11c0.8,0.55,2.7,0,2.7,0s-3.8,2.22-2,2.77
								c1.8,0.55,5.4-1.33,5.4-1.33s-7.21,6.99-12.11,9.76c0,0-4.2,2.77,0,4.66c0,0,3.57,0.69,5.15,0.11
								c-1.44,0.75-6.06,3.24-8.95,5.1c-3.8,2.44,2.8,3.33,2.8,3.33s-3.3,0.44-1.5,2.11c1.8,1.66,5.3,2.44,5.3,2.44
								s-4,5.1-11.51,7.43c0,0-1.9,2.99,3.7,2.44c0,0-1.2,0.22,0.1,1.33c1.3,1.11,6,1.55,6,1.55s-7.51,6.21-10.91,7.88
								c-3.4,1.66-5.4,2.22-4.2,4.21c1.2,2,6.3,1.89,6.3,1.89s1.1,2.99,4.1,2.66c0,0-10.31,1.77-10.76,2.99
								c-0.45,1.22,0,1.89,0,1.89s-2.75,1.44-2.05,2.66c0.53,0.93,2.28,1.21,3.09,1.3c-0.72-0.01-2.03,0.18-1.29,1.92
								c1,2.33,8.91,4.77,8.91,4.77s-6.7,2.77-11.51,0c0,0-1.7,0.78-0.6,2.22c1.1,1.44,0.6,1.77,0.6,1.77s-2.5-1.89-1.4,1
								c1.1,2.88,6.9,4.66,6.9,4.66s-3.3,0.55-2.3,2.33c1,1.77,5.2,3.88,9.81,4.33c4.6,0.44,10.81-1.22,10.81-1.22
								s-4.2,2.22-1.3,3.44c2.9,1.22,6.2-1.55,6.2-1.55s-0.6,2.84,1.8,1.86c2.4-0.98,4.4-2.86,4.4-2.86s0.75,4.18,2.25,3.18
								c1.5,1,2.25-3.18,2.25-3.18s2,1.89,4.4,2.86c2.4,0.98,1.8-1.86,1.8-1.86s3.3,2.77,6.2,1.55c2.9-1.22-1.3-3.44-1.3-3.44
								s6.2,1.66,10.81,1.22c4.6-0.44,8.81-2.55,9.81-4.33c1-1.77-2.3-2.33-2.3-2.33s5.8-1.77,6.91-4.66
								C353.07,307.84,350.57,309.73,350.57,309.73z"/>
						</g>
					</g>
				</g>
			</g>
		</g>
		<g>
			<g>
				<g>
					<g>
						<g>
							<path d="M328.02,243.4c-0.05-0.02-0.11-0.05-0.16-0.07C327.91,243.35,327.97,243.37,328.02,243.4z"/>
						</g>
					</g>
				</g>
			</g>
		</g>
	</g>
	<g>
		<g>
			<g>
				<g>
					<g>
						<g>
							
								<rect x="416.39" y="296.67" transform="matrix(-1 -1.224647e-16 1.224647e-16 -1 846.7668 641.4565)" class="st1" width="14" height="48.12"/>
						</g>
					</g>
				</g>
			</g>
		</g>
		<g>
			<g>
				<g>
					<g>
						<g>
							<path class="st2" d="M476.46,296.51c0,0-0.69-0.46,0.83-2.44c1.52-1.99-0.83-3.05-0.83-3.05c-6.61,3.82-15.85,0-15.85,0
								s10.89-3.36,12.26-6.57c1.03-2.4-0.79-2.66-1.77-2.64c1.11-0.12,3.52-0.51,4.25-1.79c0.96-1.68-2.82-3.67-2.82-3.67
								s0.62-0.92,0-2.6c-0.62-1.68-14.81-4.12-14.81-4.12c4.13,0.46,5.65-3.67,5.65-3.67s7.03,0.15,8.68-2.6
								c1.65-2.75-1.1-3.51-5.79-5.8c-4.69-2.29-15.02-10.84-15.02-10.84s6.48-0.61,8.27-2.14c1.79-1.53,0.14-1.83,0.14-1.83
								c7.72,0.76,5.1-3.36,5.1-3.36c-10.34-3.21-15.85-10.23-15.85-10.23s4.82-1.07,7.3-3.36c2.48-2.29-2.07-2.9-2.07-2.9
								s9.1-1.22,3.86-4.58c-3.98-2.55-10.35-5.99-12.33-7.02c2.17,0.8,7.09-0.16,7.09-0.16c5.79-2.6,0-6.42,0-6.42
								c-6.75-3.82-16.67-13.44-16.67-13.44s4.96,2.6,7.44,1.83c2.48-0.76-2.76-3.82-2.76-3.82s2.62,0.76,3.72,0
								c1.1-0.76-2.89-4.28-2.89-4.28c-5.94-3.86-13.26-13.99-16.33-18.34c-3.06,4.35-10.39,14.48-16.33,18.34c0,0-4,3.51-2.89,4.28
								c1.1,0.76,3.72,0,3.72,0s-5.24,3.05-2.76,3.82c2.48,0.76,7.44-1.83,7.44-1.83s-9.92,9.62-16.67,13.44c0,0-5.79,3.82,0,6.42
								c0,0,4.92,0.95,7.09,0.16c-1.98,1.03-8.35,4.47-12.33,7.02c-5.24,3.36,3.86,4.58,3.86,4.58s-4.55,0.61-2.07,2.9
								c2.48,2.29,7.3,3.36,7.3,3.36s-5.51,7.03-15.85,10.23c0,0-2.62,4.12,5.1,3.36c0,0-1.65,0.31,0.14,1.83
								c1.79,1.53,8.27,2.14,8.27,2.14s-10.34,8.55-15.02,10.84c-4.69,2.29-7.44,3.05-5.79,5.8c1.65,2.75,8.68,2.6,8.68,2.6
								s1.52,4.12,5.65,3.67c0,0-14.19,2.44-14.81,4.12c-0.62,1.68,0,2.6,0,2.6s-3.79,1.99-2.82,3.67c0.73,1.28,3.14,1.67,4.25,1.79
								c-0.98-0.02-2.8,0.25-1.77,2.64c1.38,3.21,12.26,6.57,12.26,6.57s-9.23,3.82-15.85,0c0,0-2.34,1.07-0.83,3.05
								c1.52,1.99,0.83,2.44,0.83,2.44s-3.45-2.6-1.93,1.37c1.52,3.97,9.51,6.42,9.51,6.42s-4.55,0.76-3.17,3.21
								c1.38,2.44,7.17,5.35,13.5,5.96c6.34,0.61,14.88-1.68,14.88-1.68s-5.79,3.05-1.79,4.73c4,1.68,8.54-2.14,8.54-2.14
								s-0.83,3.91,2.48,2.57c3.31-1.34,6.06-3.94,6.06-3.94s1.03,5.76,3.1,4.38c2.07,1.38,3.1-4.38,3.1-4.38s2.76,2.6,6.06,3.94
								c3.31,1.34,2.48-2.57,2.48-2.57s4.55,3.82,8.54,2.14c4-1.68-1.79-4.73-1.79-4.73s8.54,2.29,14.88,1.68
								c6.34-0.61,12.13-3.51,13.5-5.96c1.38-2.44-3.17-3.21-3.17-3.21s7.99-2.44,9.51-6.42
								C479.9,293.92,476.46,296.51,476.46,296.51z"/>
						</g>
					</g>
				</g>
			</g>
		</g>
		<g>
			<g>
				<g>
					<g>
						<g>
							<path d="M445.4,205.18c-0.07-0.03-0.15-0.07-0.22-0.1C445.27,205.1,445.34,205.14,445.4,205.18z"/>
						</g>
					</g>
				</g>
			</g>
		</g>
	</g>
	<g>
		<path class="st2" d="M471,344.79c0,0.14-98.95,0.26-220.98,0.26c-122.08,0-221.01-0.12-221.01-0.26c0-0.14,98.93-0.26,221.01-0.26
			C372.04,344.53,471,344.64,471,344.79z"/>
	</g>
	<g>
		<g>
			<path class="st2" d="M234.78,397.6c-0.1,0.1-1.59-1.21-3.32-2.92c-1.73-1.72-3.05-3.19-2.95-3.29c0.1-0.1,1.59,1.21,3.32,2.92
				C233.56,396.03,234.88,397.5,234.78,397.6z"/>
		</g>
		<g>
			<path class="st2" d="M236.88,396.4c-0.11,0.07-1.17-1.55-1.85-3.81c-0.7-2.26-0.74-4.19-0.6-4.2c0.15-0.02,0.42,1.85,1.1,4.04
				C236.19,394.64,237.02,396.33,236.88,396.4z"/>
		</g>
		<g>
			<path class="st2" d="M241.81,388.35c0.14,0.05-0.43,1.95-1.27,4.24c-0.84,2.29-1.62,4.11-1.76,4.06
				c-0.13-0.05,0.43-1.95,1.27-4.24C240.88,390.11,241.67,388.3,241.81,388.35z"/>
		</g>
	</g>
	<g>
		<g>
			<path class="st2" d="M55.8,374.73c-0.09,0.11-1.67-1.07-3.24-2.92c-1.58-1.84-2.49-3.59-2.37-3.66c0.13-0.08,1.22,1.52,2.77,3.32
				C54.5,373.29,55.9,374.62,55.8,374.73z"/>
		</g>
		<g>
			<path class="st2" d="M58.02,375.01c-0.14,0-0.21-1.81-0.14-4.02c0.07-2.22,0.24-4.01,0.38-4.01c0.14,0,0.21,1.8,0.14,4.02
				C58.33,373.22,58.16,375.02,58.02,375.01z"/>
		</g>
		<g>
			<path class="st2" d="M66.94,368.26c0.12,0.09-0.93,1.68-2.34,3.56c-1.41,1.88-2.64,3.33-2.75,3.25
				c-0.12-0.09,0.93-1.68,2.34-3.56C65.59,369.63,66.82,368.17,66.94,368.26z"/>
		</g>
	</g>
	<g>
		<g>
			<path class="st2" d="M80.24,427.28c-0.09,0.11-1.77-1.13-3.74-2.77c-1.97-1.64-3.5-3.06-3.4-3.17c0.09-0.11,1.77,1.13,3.74,2.77
				C78.81,425.75,80.33,427.17,80.24,427.28z"/>
		</g>
		<g>
			<path class="st2" d="M82.87,426.44c-0.14,0-0.26-1.46-0.26-3.27c0-1.81,0.12-3.27,0.26-3.27c0.14,0,0.26,1.46,0.26,3.27
				C83.13,424.97,83.02,426.44,82.87,426.44z"/>
		</g>
		<g>
			<path class="st2" d="M90.88,420.18c0.13,0.04-0.58,2.14-2.08,4.41c-1.49,2.27-3.13,3.75-3.22,3.66
				c-0.11-0.11,1.33-1.72,2.79-3.94C89.83,422.09,90.74,420.12,90.88,420.18z"/>
		</g>
	</g>
	<g>
		<g>
			<path class="st2" d="M298.64,368.22c-0.1,0.1-1.19-0.89-2.42-2.2c-1.23-1.31-2.15-2.46-2.04-2.56c0.1-0.1,1.19,0.89,2.42,2.2
				C297.83,366.98,298.75,368.12,298.64,368.22z"/>
		</g>
		<g>
			<path class="st2" d="M301.21,367.23c-0.14,0.05-0.73-1.24-1.32-2.87c-0.6-1.63-0.97-3-0.84-3.05c0.14-0.05,0.73,1.24,1.32,2.87
				C300.97,365.82,301.34,367.18,301.21,367.23z"/>
		</g>
		<g>
			<path class="st2" d="M304.69,367.29c-0.14-0.03,0.06-1.46,0.46-3.19c0.39-1.73,0.82-3.1,0.96-3.07c0.14,0.03-0.06,1.46-0.46,3.19
				C305.27,365.95,304.83,367.32,304.69,367.29z"/>
		</g>
	</g>
	<g>
		<g>
			<path class="st2" d="M293.35,432.98c-0.09,0.11-1.77-1.2-3.74-2.93c-1.97-1.72-3.49-3.21-3.4-3.32c0.09-0.11,1.77,1.2,3.74,2.93
				C291.92,431.38,293.44,432.87,293.35,432.98z"/>
		</g>
		<g>
			<path class="st2" d="M295.82,432.95c-0.14,0.04-0.69-1.44-1.24-3.32c-0.55-1.87-0.88-3.42-0.74-3.46
				c0.14-0.04,0.69,1.44,1.24,3.32C295.62,431.36,295.96,432.91,295.82,432.95z"/>
		</g>
		<g>
			<path class="st2" d="M301.37,433.27c-0.14-0.03,0.01-1.45,0.34-3.17c0.33-1.72,0.71-3.1,0.85-3.07c0.14,0.03-0.01,1.45-0.34,3.17
				C301.89,431.93,301.51,433.3,301.37,433.27z"/>
		</g>
	</g>
	<g>
		<g>
			<path class="st2" d="M444.62,394.07c-0.1,0.1-1.52-1.22-3.16-2.95c-1.64-1.73-2.88-3.21-2.78-3.31c0.1-0.1,1.52,1.22,3.16,2.95
				C443.48,392.49,444.72,393.97,444.62,394.07z"/>
		</g>
		<g>
			<path class="st2" d="M448.53,393.74c-0.14,0-0.26-1.6-0.26-3.57c0-1.97,0.12-3.57,0.26-3.57c0.14,0,0.26,1.6,0.26,3.57
				C448.79,392.14,448.67,393.74,448.53,393.74z"/>
		</g>
		<g>
			<path class="st2" d="M454.57,393.79c-0.14-0.07,0.48-1.46,0.93-3.27c0.46-1.8,0.57-3.32,0.72-3.32c0.13-0.01,0.26,1.57-0.22,3.45
				C455.54,392.52,454.69,393.85,454.57,393.79z"/>
		</g>
	</g>
</g>
<g id="Background_Simple" class="st3">
	<path class="st4" d="M455.13,102.66l-1.39-2.3c-11.75-19.37-33-31.04-55.41-29.63c-2.88,0.18-5.75,0.57-8.58,1.18
		c-20.37,4.36-38.09,19.76-45.44,39.49c-4.32,11.6-5.53,24.96-13.73,34.17c-10.67,11.99-28.79,12.36-44.72,11.87
		c-15.93-0.5-34.06-0.07-44.68,11.96c-6.65,7.54-8.76,18.25-8.23,28.35c1.42,26.72,20.04,50.61,43.72,62.49
		c23.68,11.88,51.56,12.94,77.47,7.71c36.3-7.32,70.83-27.42,91.58-58.46C466.48,178.45,471.73,136.16,455.13,102.66z"/>
	<path class="st4" d="M43.27,115.08l0.72-1.72c6.03-14.51,19.38-24.74,34.89-26.11c1.99-0.18,4-0.21,6-0.09
		c14.42,0.86,28.19,9.57,35.29,22.32c4.18,7.5,6.4,16.54,12.99,21.99c8.57,7.1,21.03,5.46,31.9,3.46
		c10.87-2.01,23.34-3.61,31.88,3.53c5.35,4.47,7.92,11.6,8.61,18.57c1.82,18.47-8.44,36.8-23.44,47.42
		c-14.99,10.62-34,14.27-52.31,13.4c-25.66-1.22-51.43-11.39-68.91-30.5C43.42,168.23,35.39,139.79,43.27,115.08z"/>
	<circle class="st4" cx="250" cy="310.68" r="26.94"/>
</g>
<g id="Floor">
	<g>
		<path class="st5" d="M471,455.39c0,0.14-98.95,0.26-220.98,0.26c-122.08,0-221.01-0.12-221.01-0.26c0-0.14,98.93-0.26,221.01-0.26
			C372.04,455.13,471,455.25,471,455.39z"/>
	</g>
</g>
<g id="Plants">
	<g>
		<g>
			<g>
				<path class="st6" d="M239.99,415.27c1.95,0.57,3.53,2.12,4.45,3.94c0.92,1.82,1.24,3.89,1.26,5.92
					c0.04,3.94-1.68,8.14-3.67,11.54c-3.63-2.45-5-7.34-5.54-9.86C235.64,422.82,236.52,415.09,239.99,415.27"/>
			</g>
		</g>
		<g>
			<g>
				<path class="st6" d="M246.63,442.61c-0.8-2.13-0.18-4.65,1.32-6.37c1.5-1.71,3.78-2.64,6.05-2.75c1.05-0.05,2.21,0.11,2.92,0.9
					c0.66,0.73,0.73,1.86,0.39,2.78c-0.34,0.92-1.05,1.67-1.81,2.29C252.88,441.59,249.96,443.17,246.63,442.61"/>
			</g>
		</g>
		<g>
			<g>
				<g>
					<path class="st5" d="M243.92,455.05c-0.02,0-0.01-0.29,0.02-0.81c0.03-0.57,0.08-1.32,0.13-2.21c0.14-1.85,0.28-4.49,1.37-7.17
						c1.07-2.67,2.78-4.76,4.29-5.87c0.75-0.57,1.42-0.94,1.91-1.14c0.24-0.11,0.43-0.17,0.56-0.22c0.13-0.04,0.2-0.06,0.2-0.05
						c0.03,0.06-1.1,0.41-2.55,1.58c-1.46,1.14-3.1,3.19-4.15,5.82c-1.07,2.63-1.25,5.24-1.43,7.08c-0.09,0.93-0.16,1.68-0.22,2.2
						C243.98,454.76,243.94,455.05,243.92,455.05z"/>
				</g>
			</g>
		</g>
		<g>
			<g>
				<g>
					<path class="st5" d="M239.84,421.21c0.01,0,0.04,0.12,0.08,0.34c0.05,0.26,0.11,0.59,0.18,0.99c0.15,0.86,0.36,2.12,0.61,3.67
						c0.49,3.1,1.1,7.4,1.67,12.15c0.57,4.76,0.99,9.08,1.25,12.21c0.13,1.56,0.22,2.83,0.28,3.71c0.02,0.41,0.04,0.75,0.06,1.01
						c0.01,0.23,0.01,0.35,0,0.35s-0.03-0.12-0.06-0.35c-0.03-0.26-0.06-0.59-0.11-1.01c-0.09-0.91-0.22-2.16-0.37-3.7
						c-0.31-3.12-0.76-7.44-1.33-12.19c-0.57-4.75-1.15-9.05-1.59-12.16c-0.21-1.53-0.39-2.78-0.52-3.68c-0.05-0.41-0.1-0.74-0.13-1
						C239.84,421.34,239.83,421.21,239.84,421.21z"/>
				</g>
			</g>
		</g>
		<g>
			<g>
				<path class="st6" d="M241.27,445.68c-1.33-4.61-5.03-8.47-9.58-9.99c-1.16-0.39-2.63-0.55-3.43,0.37
					c-0.8,0.93-0.42,2.36,0.17,3.44c2.42,4.48,7.75,7.19,12.8,6.51"/>
			</g>
		</g>
		<g>
			<g>
				<g>
					<path class="st5" d="M232.68,439.31c0.01-0.02,0.27,0.06,0.73,0.22c0.23,0.08,0.52,0.17,0.84,0.32
						c0.32,0.15,0.69,0.28,1.08,0.5c0.39,0.21,0.82,0.43,1.25,0.72c0.45,0.27,0.89,0.6,1.35,0.95c0.91,0.73,1.84,1.62,2.68,2.68
						c0.83,1.07,1.47,2.19,1.95,3.25c0.23,0.54,0.44,1.05,0.58,1.55c0.17,0.49,0.27,0.96,0.37,1.39c0.11,0.43,0.14,0.83,0.2,1.17
						c0.06,0.35,0.07,0.65,0.08,0.89c0.02,0.49,0.03,0.76,0.01,0.76c-0.06,0.01-0.09-1.09-0.49-2.78c-0.11-0.42-0.22-0.89-0.4-1.36
						c-0.15-0.49-0.37-0.99-0.6-1.52c-0.49-1.04-1.12-2.14-1.94-3.19c-0.82-1.04-1.73-1.92-2.62-2.65
						c-0.45-0.35-0.88-0.69-1.32-0.96c-0.42-0.3-0.84-0.52-1.22-0.74C233.7,439.69,232.66,439.37,232.68,439.31z"/>
				</g>
			</g>
		</g>
	</g>
	<g>
		<g>
			<path class="st5" d="M53.3,455.51c-0.12,0.08-1.23-1.4-2.49-3.3c-1.25-1.9-2.17-3.51-2.05-3.59c0.12-0.08,1.23,1.4,2.49,3.3
				C52.5,453.83,53.42,455.43,53.3,455.51z"/>
		</g>
		<g>
			<path class="st5" d="M54,446.02c0.14-0.02,0.51,2.07,0.81,4.66c0.31,2.59,0.44,4.7,0.3,4.72c-0.14,0.02-0.51-2.07-0.81-4.66
				C53.99,448.15,53.86,446.03,54,446.02z"/>
		</g>
		<g>
			<path class="st5" d="M60.88,448.63c0.15,0.06-0.51,1.64-1.42,3.48c-0.92,1.84-1.39,3.43-1.53,3.4c-0.15-0.02,0.12-1.75,1.06-3.63
				C59.92,450.02,60.76,448.58,60.88,448.63z"/>
		</g>
	</g>
	<g>
		<g>
			<path class="st5" d="M288.83,455.15c-0.12,0.08-1.23-1.4-2.49-3.3c-1.25-1.9-2.17-3.51-2.05-3.59c0.12-0.08,1.23,1.4,2.49,3.3
				C288.03,453.47,288.95,455.08,288.83,455.15z"/>
		</g>
		<g>
			<path class="st5" d="M289.53,445.66c0.14-0.02,0.51,2.07,0.81,4.66c0.31,2.59,0.44,4.7,0.3,4.72c-0.14,0.02-0.51-2.07-0.81-4.66
				C289.52,447.79,289.39,445.67,289.53,445.66z"/>
		</g>
		<g>
			<path class="st5" d="M296.41,448.27c0.15,0.06-0.51,1.64-1.42,3.48c-0.92,1.84-1.39,3.43-1.53,3.4
				c-0.15-0.02,0.12-1.75,1.06-3.63C295.45,449.66,296.29,448.22,296.41,448.27z"/>
		</g>
	</g>
	<g>
		<g>
			<path class="st5" d="M453.37,455.65c-0.12,0.08-1.23-1.4-2.49-3.3c-1.25-1.9-2.17-3.51-2.05-3.59c0.12-0.08,1.23,1.4,2.49,3.3
				C452.58,453.97,453.49,455.57,453.37,455.65z"/>
		</g>
		<g>
			<path class="st5" d="M454.08,446.16c0.14-0.02,0.51,2.07,0.81,4.66c0.31,2.59,0.44,4.7,0.3,4.72c-0.14,0.02-0.51-2.07-0.81-4.66
				C454.07,448.29,453.93,446.17,454.08,446.16z"/>
		</g>
		<g>
			<path class="st5" d="M460.96,448.77c0.15,0.06-0.51,1.64-1.42,3.48c-0.92,1.84-1.39,3.43-1.53,3.4
				c-0.15-0.02,0.12-1.75,1.06-3.63C459.99,450.16,460.84,448.72,460.96,448.77z"/>
		</g>
	</g>
</g>
<g id="Speech_Bubble_2">
	<g>
		<g>
			<g>
				<g>
					<g>
						<g>
							<g>
								<g>
									<g>
										<g>
											<g>
												<g>
													<g>
														<path class="st7" d="M300.54,88.42l-9,1.6c-3.23,3.65-7.48,6.48-12.49,8c-14.41,4.35-29.62-3.81-33.98-18.24
															c-4.36-14.43,3.78-29.65,18.19-34c14.41-4.35,29.62,3.81,33.98,18.24c1.82,6.02,1.45,12.18-0.63,17.64l0.01-0.01
															L300.54,88.42z"/>
														<g>
															<path class="st5" d="M300.54,88.42c0,0-0.08-0.14-0.24-0.43c-0.17-0.3-0.41-0.73-0.73-1.3
																c-0.66-1.16-1.63-2.87-2.89-5.08c-0.02-0.03-0.06-0.04-0.09-0.02c-0.01,0-0.02,0.01-0.02,0.02l-0.01,0.01l0.12,0.06
																c1.23-3.2,2.3-7.78,1.62-13.23c-0.17-1.35-0.45-2.75-0.86-4.17c-0.21-0.71-0.49-1.41-0.73-2.13
																c-0.23-0.73-0.58-1.42-0.92-2.14c-1.36-2.84-3.31-5.65-5.89-8.07c-2.57-2.42-5.76-4.47-9.4-5.79
																c-3.63-1.33-7.7-1.94-11.84-1.58c-4.13,0.4-8.3,1.76-12.03,4.07c-0.97,0.53-1.8,1.25-2.7,1.9
																c-0.46,0.32-0.83,0.73-1.25,1.1c-0.4,0.39-0.84,0.73-1.21,1.15c-0.73,0.85-1.55,1.64-2.18,2.58
																c-0.33,0.46-0.68,0.91-1,1.38c-0.29,0.49-0.58,0.98-0.88,1.47c-2.27,3.83-3.41,8.19-3.62,12.45
																c-0.21,4.27,0.61,8.48,2.25,12.18c1.62,3.72,4.03,6.94,6.85,9.46c2.82,2.53,6.05,4.36,9.33,5.49
																c3.28,1.14,6.62,1.58,9.73,1.49c1.56-0.01,3.06-0.26,4.5-0.49c1.41-0.36,2.8-0.65,4.07-1.14
																c5.13-1.87,8.75-4.92,11.08-7.57l-0.04,0.02c2.93-0.54,5.18-0.96,6.72-1.24c0.75-0.14,1.31-0.25,1.71-0.32
																C300.35,88.46,300.54,88.42,300.54,88.42s-0.21,0.03-0.6,0.09c-0.4,0.07-0.98,0.16-1.73,0.29
																c-1.52,0.26-3.76,0.64-6.68,1.14c-0.02,0-0.03,0.01-0.04,0.02c-2.33,2.62-5.95,5.62-11.04,7.46
																c-1.26,0.48-2.64,0.76-4.04,1.12c-1.43,0.21-2.91,0.47-4.46,0.47c-3.08,0.08-6.38-0.36-9.63-1.5
																c-3.24-1.13-6.44-2.95-9.22-5.45c-2.79-2.5-5.16-5.68-6.76-9.36c-1.62-3.66-2.42-7.82-2.22-12.04
																c0.21-4.21,1.34-8.51,3.58-12.3c0.29-0.48,0.58-0.97,0.87-1.45c0.32-0.46,0.66-0.91,0.99-1.36
																c0.62-0.93,1.43-1.71,2.15-2.55c0.37-0.41,0.8-0.76,1.2-1.14c0.42-0.36,0.79-0.77,1.24-1.09
																c0.89-0.64,1.71-1.36,2.67-1.88c3.68-2.29,7.8-3.63,11.88-4.03c4.09-0.36,8.11,0.24,11.7,1.55
																c3.6,1.31,6.76,3.32,9.31,5.71c2.56,2.39,4.5,5.16,5.85,7.98c0.34,0.71,0.69,1.39,0.92,2.12
																c0.25,0.72,0.53,1.41,0.74,2.11c0.41,1.4,0.7,2.79,0.87,4.13c0.7,5.4-0.34,9.96-1.54,13.15
																c-0.01,0.03,0,0.07,0.04,0.09c0.03,0.01,0.06,0,0.08-0.02l0.01-0.01l-0.11-0.01c1.28,2.18,2.27,3.85,2.94,5
																c0.34,0.57,0.59,1,0.77,1.3C300.44,88.27,300.54,88.42,300.54,88.42z"/>
														</g>
													</g>
												</g>
											</g>
										</g>
									</g>
								</g>
							</g>
						</g>
					</g>
				</g>
			</g>
		</g>
		<g>
			<g>
				<g>
					<g>
						<g>
							<g>
								<g>
									<g>
										<g>
											<g>
												<path class="st5" d="M262.79,72.69c0-1.53-1.24-2.77-2.77-2.77c-1.53,0-2.77,1.24-2.77,2.77c0,1.53,1.24,2.77,2.77,2.77
													C261.55,75.46,262.79,74.22,262.79,72.69z"/>
											</g>
										</g>
									</g>
								</g>
							</g>
						</g>
					</g>
				</g>
			</g>
			<g>
				<g>
					<g>
						<g>
							<g>
								<g>
									<g>
										<g>
											<g>
												<path class="st5" d="M273.88,72.69c0-1.53-1.24-2.77-2.77-2.77c-1.53,0-2.77,1.24-2.77,2.77c0,1.53,1.24,2.77,2.77,2.77
													C272.64,75.46,273.88,74.22,273.88,72.69z"/>
											</g>
										</g>
									</g>
								</g>
							</g>
						</g>
					</g>
				</g>
			</g>
			<g>
				<g>
					<g>
						<g>
							<g>
								<g>
									<g>
										<g>
											<g>
												<path class="st5" d="M284.94,74.07c0.77-1.33,0.31-3.02-1.01-3.79c-1.33-0.77-3.02-0.31-3.79,1.01
													c-0.77,1.33-0.31,3.02,1.01,3.79C282.48,75.85,284.18,75.4,284.94,74.07z"/>
											</g>
										</g>
									</g>
								</g>
							</g>
						</g>
					</g>
				</g>
			</g>
		</g>
	</g>
</g>
<g id="Speech_Bubbles_1">
	<g>
		<g>
			<g>
				<g>
					<g>
						<g>
							<g>
								<g>
									<g>
										<g>
											<g>
												<g>
													<g>
														<path class="st7" d="M168.52,96.45l8.25,1.47c2.96,3.35,6.86,5.94,11.45,7.33c13.2,3.99,27.15-3.49,31.14-16.72
															c4-13.22-3.47-27.18-16.67-31.17c-13.2-3.99-27.15,3.49-31.14,16.72c-1.67,5.52-1.33,11.17,0.58,16.17l-0.01-0.01
															L168.52,96.45z"/>
														<g>
															<path class="st5" d="M168.52,96.45c0,0,0.07-0.13,0.22-0.4c0.16-0.28,0.38-0.67,0.67-1.19
																c0.61-1.07,1.5-2.63,2.65-4.66c0.02-0.03,0.05-0.04,0.08-0.02c0.01,0,0.01,0.01,0.02,0.02l0.01,0.01l-0.11,0.06
																c-1.13-2.93-2.11-7.14-1.49-12.13c0.15-1.24,0.42-2.52,0.79-3.82c0.19-0.65,0.45-1.29,0.67-1.95
																c0.21-0.67,0.53-1.31,0.84-1.96c1.24-2.61,3.03-5.18,5.4-7.4c2.36-2.22,5.28-4.09,8.61-5.31
																c3.32-1.22,7.05-1.78,10.85-1.45c3.79,0.37,7.61,1.61,11.02,3.73c0.88,0.48,1.65,1.15,2.48,1.75
																c0.42,0.29,0.76,0.67,1.15,1.01c0.37,0.35,0.77,0.67,1.11,1.06c0.67,0.78,1.42,1.5,2,2.36
																c0.3,0.42,0.62,0.83,0.92,1.26c0.27,0.45,0.54,0.9,0.8,1.34c2.08,3.52,3.13,7.51,3.32,11.41
																c0.19,3.91-0.56,7.77-2.06,11.17c-1.49,3.41-3.69,6.36-6.28,8.67c-2.59,2.32-5.55,3.99-8.55,5.03
																c-3.01,1.04-6.06,1.45-8.92,1.36c-1.43-0.01-2.8-0.24-4.12-0.45c-1.3-0.33-2.57-0.6-3.73-1.05
																c-4.7-1.72-8.02-4.51-10.15-6.94l0.04,0.02c-2.69-0.5-4.75-0.88-6.16-1.14c-0.68-0.13-1.2-0.23-1.56-0.29
																C168.69,96.49,168.52,96.45,168.52,96.45s0.19,0.03,0.55,0.09c0.37,0.06,0.89,0.15,1.59,0.27
																c1.4,0.24,3.45,0.59,6.12,1.05c0.01,0,0.03,0.01,0.04,0.02c2.14,2.4,5.46,5.16,10.12,6.84
																c1.16,0.44,2.42,0.7,3.7,1.02c1.31,0.2,2.67,0.43,4.09,0.43c2.83,0.08,5.85-0.33,8.82-1.37c2.97-1.03,5.9-2.7,8.45-5
																c2.55-2.29,4.73-5.21,6.19-8.58c1.48-3.36,2.22-7.17,2.03-11.04c-0.19-3.85-1.23-7.8-3.28-11.27
																c-0.27-0.44-0.53-0.89-0.79-1.33c-0.29-0.42-0.61-0.83-0.91-1.25c-0.57-0.85-1.31-1.57-1.97-2.34
																c-0.34-0.38-0.74-0.7-1.1-1.05c-0.38-0.33-0.72-0.71-1.13-1c-0.81-0.59-1.57-1.25-2.44-1.73
																c-3.37-2.1-7.15-3.33-10.89-3.7c-3.75-0.33-7.44,0.22-10.73,1.42c-3.3,1.2-6.2,3.04-8.53,5.24
																c-2.34,2.19-4.12,4.73-5.36,7.31c-0.31,0.65-0.63,1.28-0.84,1.94c-0.23,0.66-0.49,1.29-0.67,1.93
																c-0.38,1.29-0.64,2.55-0.8,3.79c-0.64,4.95,0.31,9.13,1.41,12.06c0.01,0.03,0,0.07-0.04,0.08
																c-0.03,0.01-0.06,0-0.07-0.02l-0.01-0.01l0.1,0c-1.17,1.99-2.08,3.53-2.69,4.58c-0.31,0.52-0.54,0.92-0.71,1.19
																C168.61,96.31,168.52,96.45,168.52,96.45z"/>
														</g>
													</g>
												</g>
											</g>
										</g>
									</g>
								</g>
							</g>
						</g>
					</g>
				</g>
			</g>
		</g>
		<g>
			<g>
				<g>
					<g>
						<g>
							<g>
								<g>
									<g>
										<g>
											<g>
												<path class="st5" d="M203.12,82.03c0-1.4,1.14-2.54,2.54-2.54c1.4,0,2.54,1.14,2.54,2.54s-1.14,2.54-2.54,2.54
													C204.26,84.57,203.12,83.43,203.12,82.03z"/>
											</g>
										</g>
									</g>
								</g>
							</g>
						</g>
					</g>
				</g>
			</g>
			<g>
				<g>
					<g>
						<g>
							<g>
								<g>
									<g>
										<g>
											<g>
												<path class="st5" d="M192.96,82.03c0-1.4,1.14-2.54,2.54-2.54c1.4,0,2.54,1.14,2.54,2.54s-1.14,2.54-2.54,2.54
													C194.1,84.57,192.96,83.43,192.96,82.03z"/>
											</g>
										</g>
									</g>
								</g>
							</g>
						</g>
					</g>
				</g>
			</g>
			<g>
				<g>
					<g>
						<g>
							<g>
								<g>
									<g>
										<g>
											<g>
												<path class="st5" d="M182.82,83.3c-0.7-1.21-0.29-2.77,0.93-3.47c1.21-0.7,2.77-0.29,3.47,0.93
													c0.7,1.22,0.29,2.77-0.93,3.47C185.07,84.93,183.52,84.51,182.82,83.3z"/>
											</g>
										</g>
									</g>
								</g>
							</g>
						</g>
					</g>
				</g>
			</g>
		</g>
	</g>
</g>
<g id="Character_2">
	<g>
		<g>
			<g>
				<g>
					<g>
						<g>
							<g>
								<g>
									<g>
										<g>
											<g>
												<g>
													<g>
														<g>
															<g>
																<g>
																	<g>
																		<path class="st5" d="M342.68,419.88l1.11,23.04c0,0-22.69,8.88-22.9,13.16l44.07-0.58l-0.27-35.97L342.68,419.88z
																			"/>
																	</g>
																</g>
															</g>
														</g>
													</g>
												</g>
											</g>
										</g>
									</g>
								</g>
							</g>
						</g>
						<g>
							<g>
								<g>
									<g>
										<g>
											<g>
												<g>
													<g>
														<g>
															<g>
																<g>
																	<g>
																		<g>
																			<path class="st2" d="M357.39,440.81c0.86,0.23,1.46,1.19,1.27,2.07c-0.19,0.88-1.15,1.51-2.01,1.3
																				c-0.86-0.21-1.62-1.35-1.33-2.2c0.28-0.85,1.45-1.53,2.24-1.11"/>
																		</g>
																	</g>
																</g>
															</g>
														</g>
													</g>
												</g>
											</g>
										</g>
									</g>
								</g>
							</g>
						</g>
						<g>
							<g>
								<g>
									<g>
										<g>
											<g>
												<g>
													<g>
														<g>
															<g>
																<g>
																	<g>
																		<path class="st8" d="M364.96,455.5l-0.17-3.62l-42.19,1.91c0,0-1.95,0.89-1.71,2.29L364.96,455.5z"/>
																	</g>
																</g>
															</g>
														</g>
													</g>
												</g>
											</g>
										</g>
									</g>
								</g>
							</g>
						</g>
						<g>
							<g>
								<g>
									<g>
										<g>
											<g>
												<g>
													<g>
														<g>
															<g>
																<g>
																	<g>
																		<g>
																			<path class="st9" d="M343.07,442.7c0.01,0.22,1.09,0.3,2.16,0.99c1.09,0.66,1.64,1.6,1.84,1.51
																				c0.2-0.04-0.14-1.35-1.45-2.16C344.32,442.23,343.02,442.5,343.07,442.7z"/>
																		</g>
																	</g>
																</g>
															</g>
														</g>
													</g>
												</g>
											</g>
										</g>
									</g>
								</g>
							</g>
						</g>
						<g>
							<g>
								<g>
									<g>
										<g>
											<g>
												<g>
													<g>
														<g>
															<g>
																<g>
																	<g>
																		<g>
																			<path class="st9" d="M338.47,444.71c-0.05,0.21,0.89,0.57,1.63,1.49c0.77,0.89,0.97,1.89,1.18,1.88
																				c0.2,0.03,0.34-1.25-0.61-2.37C339.74,444.57,338.47,444.5,338.47,444.71z"/>
																		</g>
																	</g>
																</g>
															</g>
														</g>
													</g>
												</g>
											</g>
										</g>
									</g>
								</g>
							</g>
						</g>
						<g>
							<g>
								<g>
									<g>
										<g>
											<g>
												<g>
													<g>
														<g>
															<g>
																<g>
																	<g>
																		<g>
																			<path class="st9" d="M335.92,450.36c0.2,0.04,0.48-1.05-0.09-2.24c-0.56-1.19-1.58-1.65-1.67-1.47
																				c-0.12,0.18,0.54,0.81,0.99,1.8C335.63,449.42,335.7,450.34,335.92,450.36z"/>
																		</g>
																	</g>
																</g>
															</g>
														</g>
													</g>
												</g>
											</g>
										</g>
									</g>
								</g>
							</g>
						</g>
						<g>
							<g>
								<g>
									<g>
										<g>
											<g>
												<g>
													<g>
														<g>
															<g>
																<g>
																	<g>
																		<g>
																			<path class="st9" d="M343.39,437.43c0.09,0.2,1.08-0.12,2.29-0.05c1.22,0.04,2.17,0.44,2.28,0.26
																				c0.12-0.16-0.81-0.96-2.25-1.02C344.28,436.55,343.28,437.25,343.39,437.43z"/>
																		</g>
																	</g>
																</g>
															</g>
														</g>
													</g>
												</g>
											</g>
										</g>
									</g>
								</g>
							</g>
						</g>
					</g>
				</g>
				<g>
					<g>
						<g>
							<g>
								<g>
									<g>
										<g>
											<g>
												<g>
													<path class="st5" d="M394.61,427.59l2.39,27.8l-4.36,22.54c-0.31,1.62,0.79,3.18,2.41,3.39l0,0
														c0.91,0.12,1.8-0.21,2.42-0.9c3.93-4.35,18.3-20.42,18.01-22.44c-0.33-2.34-0.6-29.49-0.6-29.49L394.61,427.59z"/>
												</g>
											</g>
										</g>
									</g>
								</g>
							</g>
						</g>
						<g>
							<g>
								<g>
									<g>
										<g>
											<g>
												<g>
													<path class="st8" d="M395.05,481.32l20.32-25.22l0.07,1.18c0.06,1.02-0.23,2.03-0.83,2.85
														c-1.61,2.19-6.19,8.14-17.06,20.29C396.92,481.12,395.98,481.46,395.05,481.32L395.05,481.32z"/>
												</g>
											</g>
										</g>
									</g>
								</g>
							</g>
						</g>
						<g class="st10">
							<g>
								<g>
									<g>
										<g>
											<g>
												<g>
													<g>
														<path class="st9" d="M409.17,447.48c-0.66,0.53-0.81,1.6-0.32,2.29c0.49,0.69,1.56,0.86,2.23,0.34
															c0.67-0.52,0.89-1.79,0.33-2.42c-0.56-0.63-1.83-0.76-2.36-0.1"/>
													</g>
												</g>
											</g>
										</g>
									</g>
								</g>
							</g>
						</g>
						<g>
							<g>
								<g>
									<g>
										<g>
											<g>
												<g>
													<g>
														<path class="st9" d="M400.55,468.74c-0.15,0.09-0.86-1.33-2.54-2.01c-1.66-0.73-3.15-0.24-3.2-0.41
															c-0.03-0.07,0.31-0.31,0.94-0.44c0.63-0.14,1.56-0.11,2.49,0.28c0.92,0.39,1.6,1.04,1.95,1.59
															C400.55,468.3,400.62,468.71,400.55,468.74z"/>
													</g>
												</g>
											</g>
										</g>
									</g>
								</g>
							</g>
						</g>
						<g>
							<g>
								<g>
									<g>
										<g>
											<g>
												<g>
													<g>
														<path class="st9" d="M398.83,472.6c-0.12,0.13-1.06-0.72-2.51-1.04c-1.44-0.35-2.65-0.01-2.7-0.18
															c-0.09-0.14,1.19-0.81,2.84-0.42C398.11,471.33,398.97,472.51,398.83,472.6z"/>
													</g>
												</g>
											</g>
										</g>
									</g>
								</g>
							</g>
						</g>
						<g>
							<g>
								<g>
									<g>
										<g>
											<g>
												<g>
													<g>
														<path class="st9" d="M403.88,463.72c-0.12,0.14-1.56-1.17-3.76-1.87c-2.19-0.73-4.11-0.51-4.13-0.7
															c-0.05-0.15,1.96-0.67,4.31,0.11C402.67,462.03,404.01,463.64,403.88,463.72z"/>
													</g>
												</g>
											</g>
										</g>
									</g>
								</g>
							</g>
						</g>
						<g>
							<g>
								<g>
									<g>
										<g>
											<g>
												<g>
													<g>
														<path class="st9" d="M403.85,455.21c-0.06,0.17-1.62-0.37-3.59-0.32c-1.98,0.03-3.51,0.64-3.58,0.47
															c-0.08-0.13,1.44-1.05,3.57-1.08C402.37,454.23,403.93,455.08,403.85,455.21z"/>
													</g>
												</g>
											</g>
										</g>
									</g>
								</g>
							</g>
						</g>
						<g>
							<g>
								<g>
									<g>
										<g>
											<g>
												<g>
													<g>
														<path class="st9" d="M403.36,447.03c-0.07,0.17-1.66-0.66-3.73-0.43c-2.08,0.19-3.47,1.31-3.58,1.16
															c-0.05-0.05,0.23-0.42,0.84-0.84c0.6-0.41,1.56-0.82,2.68-0.94c1.12-0.11,2.14,0.1,2.81,0.39
															C403.05,446.66,403.39,446.97,403.36,447.03z"/>
													</g>
												</g>
											</g>
										</g>
									</g>
								</g>
							</g>
						</g>
						<g>
							<g>
								<g>
									<g>
										<g>
											<g>
												<g>
													<g>
														<path class="st9" d="M399.57,445.04c-0.03,0-0.12-0.37-0.1-1.05c0.02-0.68,0.15-1.68,0.65-2.81
															c0.26-0.54,0.53-1.22,1.27-1.64c0.37-0.21,0.94-0.18,1.29,0.17c0.35,0.34,0.48,0.79,0.51,1.23
															c0.08,1.77-1.3,3.58-3.25,3.96c-1.95,0.35-3.81-0.68-4.68-2.15c-0.2-0.38-0.34-0.86-0.16-1.35
															c0.18-0.49,0.72-0.71,1.12-0.67c0.82,0.07,1.37,0.51,1.87,0.84c0.99,0.71,1.63,1.48,2.01,2.04
															c0.38,0.56,0.51,0.92,0.48,0.93c-0.09,0.08-0.78-1.32-2.73-2.62c-0.49-0.29-1.06-0.67-1.65-0.69
															c-0.29-0.01-0.53,0.12-0.61,0.36c-0.09,0.23-0.01,0.58,0.16,0.88c0.74,1.21,2.43,2.14,4.08,1.82
															c1.64-0.3,2.86-1.9,2.8-3.32c-0.02-0.34-0.13-0.68-0.32-0.87c-0.19-0.19-0.46-0.23-0.71-0.11
															c-0.52,0.25-0.84,0.86-1.1,1.37C399.48,443.49,399.7,445.06,399.57,445.04z"/>
													</g>
												</g>
											</g>
										</g>
									</g>
								</g>
							</g>
						</g>
					</g>
				</g>
				<g>
					<g>
						<g>
							<g>
								<path class="st5" d="M321.98,231.47c0,0-3.34,13.14-2.13,29.14c0.47,6.19,21.05,177.52,21.05,177.52h27.79l-7.81-161.03
									l2.28,0.5c0,0,15.17,68.68,16.41,79.8c1.11,9.99,14.74,88.55,14.74,88.55l26.22-0.3l-9.75-101.4l-9.44-92.16l-3.55-26.83
									L321.98,231.47z"/>
							</g>
						</g>
					</g>
				</g>
			</g>
		</g>
		<g>
			<g>
				<g>
					<g>
						<g>
							<g>
								<g>
									<g>
										<g>
											<g>
												<g>
													<g>
														<g>
															<path class="st11" d="M369.05,121.45l0.59-48.78c0.54-12.13-6.06-22.56-18.2-22.76l-1.12,0.05
																c-11.3,0.47-20.35,9.53-20.8,20.83c-0.41,10.52-0.73,22.14-0.43,27.76c0.62,11.63,12.34,12.96,12.34,12.96
																c0.03,0,0.07,7.08,0.07,10.5l-2.73,7.99l9.58-2.33L369.05,121.45z"/>
														</g>
													</g>
												</g>
											</g>
										</g>
									</g>
								</g>
							</g>
						</g>
					</g>
					<g>
						<g>
							<g>
								<g>
									<g>
										<g>
											<g>
												<g>
													<g>
														<g>
															<g>
																<path class="st12" d="M341.44,111.51c0,0,7.35,0.13,14.97-5.11c0,0-3.28,8.9-14.94,8.33L341.44,111.51z"/>
															</g>
														</g>
													</g>
												</g>
											</g>
										</g>
									</g>
								</g>
							</g>
						</g>
					</g>
					<g>
						<g>
							<g>
								<g>
									<g>
										<g>
											<g>
												<g>
													<g>
														<g>
															<g>
																<g>
																	<g>
																		<g>
																			<g>
																				<g>
																					<g>
																						<path class="st5" d="M333.24,80.83c0,0.88,0.75,1.6,1.67,1.61c0.92,0.01,1.66-0.69,1.65-1.57
																							c0-0.88-0.75-1.6-1.67-1.61C333.98,79.25,333.24,79.95,333.24,80.83z"/>
																					</g>
																				</g>
																			</g>
																		</g>
																	</g>
																</g>
															</g>
														</g>
													</g>
												</g>
											</g>
										</g>
									</g>
								</g>
							</g>
						</g>
					</g>
					<g>
						<g>
							<g>
								<g>
									<g>
										<g>
											<g>
												<g>
													<g>
														<g>
															<g>
																<g>
																	<g>
																		<g>
																			<g>
																				<g>
																					<g>
																						<g>
																							<path class="st5" d="M332.21,75.83c0.21,0.21,1.44-0.78,3.22-0.84c1.79-0.1,3.14,0.77,3.32,0.54
																								c0.09-0.1-0.13-0.48-0.72-0.88c-0.58-0.39-1.56-0.75-2.67-0.7c-1.11,0.05-2.03,0.5-2.56,0.94
																								C332.28,75.34,332.11,75.74,332.21,75.83z"/>
																						</g>
																					</g>
																				</g>
																			</g>
																		</g>
																	</g>
																</g>
															</g>
														</g>
													</g>
												</g>
											</g>
										</g>
									</g>
								</g>
							</g>
						</g>
					</g>
					<g>
						<g>
							<g>
								<g>
									<g>
										<g>
											<g>
												<g>
													<g>
														<g>
															<g>
																<g>
																	<g>
																		<g>
																			<g>
																				<g>
																					<g>
																						<path class="st5" d="M349.33,80.83c0.01,0.88,0.75,1.6,1.67,1.61c0.92,0.01,1.66-0.69,1.65-1.57
																							c-0.01-0.88-0.75-1.6-1.67-1.61C350.06,79.25,349.32,79.95,349.33,80.83z"/>
																					</g>
																				</g>
																			</g>
																		</g>
																	</g>
																</g>
															</g>
														</g>
													</g>
												</g>
											</g>
										</g>
									</g>
								</g>
							</g>
						</g>
					</g>
					<g>
						<g>
							<g>
								<g>
									<g>
										<g>
											<g>
												<g>
													<g>
														<g>
															<g>
																<g>
																	<g>
																		<g>
																			<g>
																				<g>
																					<g>
																						<g>
																							<path class="st5" d="M349.77,75.52c0.22,0.21,1.44-0.78,3.23-0.84c1.79-0.09,3.14,0.77,3.32,0.54
																								c0.09-0.1-0.13-0.48-0.72-0.88c-0.58-0.39-1.56-0.75-2.67-0.7c-1.11,0.05-2.03,0.5-2.56,0.94
																								C349.83,75.03,349.66,75.43,349.77,75.52z"/>
																						</g>
																					</g>
																				</g>
																			</g>
																		</g>
																	</g>
																</g>
															</g>
														</g>
													</g>
												</g>
											</g>
										</g>
									</g>
								</g>
							</g>
						</g>
					</g>
					<g>
						<g>
							<g>
								<g>
									<g>
										<g>
											<g>
												<g>
													<g>
														<g>
															<g>
																<g>
																	<g>
																		<g>
																			<g>
																				<g>
																					<g>
																						<path class="st5" d="M343.92,89.53c0-0.1-1.12-0.25-2.93-0.4c-0.46-0.03-0.9-0.1-0.98-0.41
																							c-0.12-0.33,0.05-0.83,0.25-1.37c0.38-1.12,0.79-2.3,1.21-3.53c1.67-5.03,2.86-9.16,2.66-9.22
																							c-0.2-0.07-1.72,3.96-3.39,8.99c-0.4,1.24-0.78,2.42-1.15,3.55c-0.15,0.53-0.42,1.13-0.16,1.8
																							c0.14,0.34,0.48,0.57,0.78,0.64c0.3,0.08,0.55,0.07,0.78,0.08C342.79,89.67,343.91,89.63,343.92,89.53z"/>
																					</g>
																				</g>
																			</g>
																		</g>
																	</g>
																</g>
															</g>
														</g>
													</g>
												</g>
											</g>
										</g>
									</g>
								</g>
							</g>
						</g>
					</g>
					<g>
						<g>
							<g>
								<g>
									<g>
										<g>
											<g>
												<g>
													<g>
														<g>
															<g>
																<g>
																	<g>
																		<path class="st5" d="M348.96,69.95c0.26,0.45,1.98-0.11,4.09-0.24c2.11-0.18,3.89,0.12,4.08-0.36
																			c0.08-0.23-0.29-0.62-1.05-0.96c-0.75-0.34-1.9-0.58-3.16-0.49c-1.26,0.09-2.36,0.5-3.06,0.95
																			C349.15,69.29,348.84,69.73,348.96,69.95z"/>
																	</g>
																</g>
															</g>
														</g>
													</g>
												</g>
											</g>
										</g>
									</g>
								</g>
							</g>
						</g>
					</g>
					<g>
						<g>
							<g>
								<g>
									<g>
										<g>
											<g>
												<g>
													<g>
														<g>
															<g>
																<g>
																	<g>
																		<path class="st5" d="M331.91,70.57c0.38,0.4,1.83-0.06,3.58-0.13c1.75-0.12,3.24,0.19,3.57-0.25
																			c0.14-0.21-0.1-0.61-0.76-0.98c-0.65-0.37-1.73-0.65-2.93-0.59c-1.2,0.06-2.24,0.46-2.84,0.89
																			C331.94,69.95,331.75,70.38,331.91,70.57z"/>
																	</g>
																</g>
															</g>
														</g>
													</g>
												</g>
											</g>
										</g>
									</g>
								</g>
							</g>
						</g>
					</g>
					<g>
						<g>
							<g>
								<g>
									<g>
										<g>
											<g>
												<g>
													<g>
														<path class="st11" d="M369.05,81.33c0.19-0.09,7.9-2.7,7.97,5.27c0.07,7.97-7.94,6.4-7.96,6.17
															C369.06,92.55,369.05,81.33,369.05,81.33z"/>
													</g>
												</g>
											</g>
										</g>
									</g>
								</g>
							</g>
						</g>
					</g>
					<g>
						<g>
							<g>
								<g>
									<g>
										<g>
											<g>
												<g>
													<g>
														<g>
															<path class="st12" d="M371.48,89.73c0.03-0.03,0.14,0.1,0.38,0.2c0.23,0.1,0.62,0.17,1.04,0.01
																c0.84-0.32,1.54-1.66,1.56-3.1c0.01-0.73-0.15-1.41-0.41-1.98c-0.25-0.58-0.63-0.98-1.05-1.06
																c-0.42-0.09-0.72,0.16-0.82,0.39c-0.1,0.22-0.05,0.38-0.09,0.4c-0.02,0.02-0.17-0.13-0.11-0.46
																c0.03-0.16,0.12-0.35,0.31-0.5c0.19-0.16,0.47-0.24,0.77-0.21c0.61,0.04,1.17,0.6,1.46,1.22
																c0.32,0.63,0.52,1.4,0.5,2.22c-0.04,1.61-0.84,3.12-1.99,3.46c-0.56,0.15-1.03-0.01-1.27-0.2
																C371.49,89.93,371.45,89.75,371.48,89.73z"/>
														</g>
													</g>
												</g>
											</g>
										</g>
									</g>
								</g>
							</g>
						</g>
					</g>
				</g>
				<g>
					<g>
						<g>
							<g>
								<g>
									<g>
										<g>
											<g>
												<path class="st5" d="M313.44,60.31c0.12-0.47,0.46-0.86,0.87-1.11c0.91-0.55,1.96-0.49,2.97-0.52
													c2.53-0.07,5.03-0.74,7.27-1.91c-0.79-0.39-1.53-0.87-2.16-1.48c-1.3-1.27-2.07-3.23-1.5-4.96
													c0.11-0.32,0.29-0.66,0.62-0.77c0.52-0.16,0.97,0.34,1.34,0.74c1.2,1.31,2.3,1.87,4.07,1.67
													c1.1-0.12,2.16-0.38,3.02-0.93c0.03-0.04,0.06-0.08,0.1-0.11c0.41-0.43,0.81-0.85,1.2-1.24c0,0,0,0,0,0l0,0
													c2.96-3.01,5.52-5.1,8.16-6.2c3.87-1.61,10.37-2.32,14.44-1.3c4.07,1.02,7.75,4.27,8.36,8.42
													c2.25-1.95,5.67-1.97,8.45-0.89l0.07-0.03c3.1,1.06,4.89,4.3,5.83,7.44c0.05,0.17,0.1,0.35,0.15,0.52
													c1.06,1.64,2.5,3.04,4.2,4.01c0.3,0.17,0.64,0.38,0.68,0.72c0.04,0.34-0.24,0.62-0.52,0.83
													c-0.73,0.54-1.59,0.9-2.49,1.07c0.29,0.74,0.63,1.47,1.05,2.16c0.36,0.59,0.78,1.29,0.48,1.9
													c-0.23,0.48-0.83,0.68-1.36,0.61c-0.53-0.07-0.99-0.36-1.44-0.63c0.35,0.82,0.71,1.64,1.06,2.46
													c-1.11,0.21-2.27,0.13-3.36-0.19c-0.62,2.95-1.05,8.41-1.79,10.41c-2.11,0.06-2.63-0.16-3.69,0.2
													c-1.37,0.47-0.82,2.91-2.62,2.24c-0.92-0.34-2.36-3.79-2.68-4.72c-2.1-6.16-2.85-12.77-2.19-19.24
													c-1.29-1.35-2.85-2.44-4.55-3.21l0.14,0.12c-3.27-1.09-6.97-2.17-10.04-0.6c-2.38,1.21-3.77,3.72-5.54,5.72
													c-3.35,3.8-7.18,5.85-12.24,6.13c-0.42,3.52-0.49,9.28-0.62,12.56l-2.88-6.54l0,0.03c-0.23-0.38-0.42-0.77-0.61-1.16
													l-0.06-0.12v-0.01c-0.29-0.62-0.57-1.24-0.94-1.86c-0.01,0.01-0.02,0.02-0.03,0.03c-1.76,1.59-4.41-0.78-3.03-2.71
													c0.27-0.38,0.6-0.72,0.98-1.01c-0.8,0.77-2.01,1.15-3.08,0.84c-1.07-0.32-1.91-1.38-1.83-2.5
													c0.05-0.76,0.59-1.44,1.27-1.75c-1.44,0.13-2.91-0.17-4.17-0.87C313.99,62.1,313.18,61.34,313.44,60.31z"/>
											</g>
										</g>
									</g>
								</g>
							</g>
						</g>
					</g>
					<g>
						<g>
							<g>
								<g>
									<g>
										<g>
											<g>
												<path class="st8" d="M358.56,51.98c-0.02,0.03,0.49,0.3,1.18,1.06c0.68,0.75,1.46,2.06,1.83,3.85
													c0.19,0.89,0.32,1.89,0.33,2.96c0.02,1.07-0.06,2.22-0.12,3.44c-0.06,1.21-0.14,2.49-0.04,3.83
													c0.05,0.66,0.13,1.34,0.29,2.01c0.15,0.66,0.34,1.38,0.85,1.95c0.4,0.46,1.07,0.66,1.65,0.53
													c0.58-0.11,1.1-0.43,1.47-0.85c0.74-0.88,0.91-2,1.09-2.98l-0.24,0.03c0.41,0.88,0.83,1.74,1.45,2.43
													c0.61,0.69,1.44,1.14,2.28,1.21c0.42,0.03,0.84-0.04,1.2-0.22c0.37-0.18,0.63-0.49,0.81-0.81
													c0.17-0.33,0.26-0.69,0.24-1.04c-0.02-0.35-0.16-0.67-0.38-0.9l-0.12,0.11c0.91,1.01,1.87,1.55,2.53,1.85
													c0.33,0.15,0.6,0.24,0.78,0.29c0.18,0.05,0.28,0.07,0.28,0.07c0-0.01-0.09-0.04-0.26-0.11
													c-0.17-0.07-0.43-0.17-0.76-0.33c-0.64-0.32-1.57-0.87-2.44-1.88l-0.12,0.11c0.4,0.41,0.43,1.14,0.1,1.73
													c-0.17,0.29-0.41,0.57-0.73,0.72c-0.32,0.16-0.7,0.22-1.09,0.19c-0.77-0.07-1.55-0.49-2.12-1.15
													c-0.58-0.66-0.99-1.5-1.39-2.38l-0.17-0.37l-0.07,0.4c-0.18,0.98-0.36,2.05-1.04,2.85c-0.34,0.38-0.81,0.67-1.32,0.76
													c-0.51,0.1-1.05-0.06-1.4-0.45c-0.44-0.49-0.63-1.17-0.78-1.82c-0.15-0.66-0.24-1.32-0.28-1.97
													c-0.09-1.31-0.03-2.58,0.03-3.79c0.06-1.21,0.13-2.37,0.1-3.46c-0.02-1.09-0.16-2.1-0.37-3
													c-0.41-1.81-1.22-3.14-1.94-3.88C359.1,52.22,358.56,51.98,358.56,51.98z"/>
											</g>
										</g>
									</g>
								</g>
							</g>
						</g>
					</g>
					<g>
						<g>
							<g>
								<g>
									<g>
										<g>
											<g>
												<path class="st8" d="M322.62,63.73c0,0,0.03,0.03,0.09,0.08c0.08,0.06,0.18,0.13,0.29,0.21c0.13,0.09,0.29,0.2,0.5,0.31
													c0.2,0.11,0.43,0.25,0.71,0.37c1.09,0.5,2.83,0.99,5,0.84c2.15-0.15,4.72-0.94,7.01-2.68c2.31-1.7,4.33-4.19,5.97-7.04
													c0.83-1.42,1.51-2.88,2.25-4.22c0.74-1.35,1.56-2.59,2.57-3.58c0.99-0.99,2.14-1.73,3.34-2.08
													c0.59-0.18,1.2-0.23,1.77-0.22c0.58,0.02,1.12,0.13,1.63,0.29c1.01,0.33,1.83,0.87,2.45,1.44
													c0.62,0.57,1.05,1.17,1.34,1.69c0.54,1.07,0.58,1.75,0.62,1.74c0,0,0-0.04-0.01-0.12c-0.02-0.1-0.04-0.21-0.06-0.36
													c-0.06-0.31-0.2-0.76-0.46-1.31c-0.28-0.54-0.7-1.16-1.33-1.75c-0.63-0.59-1.46-1.16-2.49-1.51
													c-0.52-0.17-1.08-0.29-1.68-0.32c-0.59-0.01-1.23,0.03-1.84,0.22c-1.24,0.35-2.43,1.11-3.45,2.12
													c-1.03,1.01-1.87,2.27-2.62,3.63c-0.76,1.36-1.43,2.81-2.26,4.22c-1.63,2.82-3.61,5.29-5.88,6.97
													c-2.24,1.73-4.76,2.52-6.87,2.69c-2.13,0.17-3.86-0.28-4.94-0.75C323.16,64.13,322.64,63.7,322.62,63.73z"/>
											</g>
										</g>
									</g>
								</g>
							</g>
						</g>
					</g>
					<g>
						<g>
							<g>
								<g>
									<g>
										<g>
											<g>
												<path class="st8" d="M321.5,58.62c-0.01,0.02,0.14,0.12,0.42,0.29c0.28,0.17,0.7,0.39,1.25,0.61
													c0.54,0.23,1.21,0.45,1.97,0.62c0.76,0.16,1.61,0.28,2.51,0.3c0.9,0.01,1.75-0.07,2.52-0.2
													c0.76-0.15,1.44-0.33,1.99-0.54c0.55-0.2,0.98-0.4,1.27-0.56c0.29-0.16,0.44-0.25,0.43-0.27
													c-0.02-0.05-0.66,0.29-1.77,0.65c-0.55,0.18-1.22,0.35-1.97,0.47c-0.75,0.12-1.59,0.19-2.47,0.18
													c-0.88-0.02-1.72-0.13-2.46-0.28c-0.75-0.16-1.41-0.35-1.95-0.56C322.15,58.94,321.52,58.58,321.5,58.62z"/>
											</g>
										</g>
									</g>
								</g>
							</g>
						</g>
					</g>
				</g>
			</g>
			<path class="st12" d="M344.08,93.71c0.14,0,6.28-2.4,6.28-2.4s1.78,3.55-0.37,5.18c-2.15,1.63-4.77,0.6-5.19-0.37
				C344.39,95.15,344.08,93.71,344.08,93.71z"/>
			<g>
				<path class="st5" d="M345.47,96.81c0.03-0.05,0.29,0.18,0.86,0.27c0.56,0.1,1.42,0.09,2.4-0.14l-0.02,0
					c0.65-0.25,1.37-0.63,1.8-1.34c0.42-0.7,0.46-1.66,0.23-2.59c-0.14-0.56-0.35-1.11-0.59-1.58l0.31,0.11
					c-1.86,0.7-3.5,1.29-4.68,1.7c-1.18,0.4-1.9,0.62-1.92,0.56c-0.02-0.06,0.66-0.38,1.8-0.87c1.15-0.49,2.76-1.14,4.62-1.87
					l0.21-0.08l0.11,0.19c0.29,0.53,0.51,1.1,0.66,1.71c0.25,1,0.22,2.13-0.31,2.97c-0.54,0.84-1.38,1.24-2.09,1.47l-0.01,0l-0.01,0
					c-1.07,0.2-1.96,0.15-2.55-0.03C345.67,97.13,345.44,96.82,345.47,96.81z"/>
			</g>
		</g>
		<g>
			<path class="st11" d="M289.76,191.93l21.03,13.2c7.58,4,13.06,1.11,14.88-5.3l-0.19-23.48c0,0-13.34-7.1-15.38-7.41
				c-0.68-0.1-1.69,13.64-1.69,13.64l-20.24-5.67l-5.11,10.35L289.76,191.93z"/>
			<g>
				<path class="st11" d="M287.93,174.14c-0.13-0.23-5.79-9.21-8.99-12.58c-3.2-3.37-3.28-7.05-5.56-7.35
					c-2.27-0.31-2.69,2.89-1.6,6.18c1.09,3.28,4.04,4.97,3.2,6.15c-0.84,1.18-19.06-1.9-19.06-1.9s-2.36-2.41-4.21-0.39
					c0,0-2.94-0.7-2.71,1.58c0.24,2.44,5.57,2.54,5.57,2.54l2.64,4.73l6.15,2.27c0,0,0.37,2.61,2.21,4.38
					c1.83,1.77,3.18,2.77,3.43,2.82c0.25,0.05,5.72,3.41,8.5,4.09c2.78,0.67,6.48,1.26,6.48,1.26l5.05-10.1
					C289.05,177.81,289.16,176.26,287.93,174.14z"/>
				<g>
					<path class="st11" d="M263.44,175.71c0,0-0.91-2.28-0.69-4.21c0.22-1.93,2.04-10.48,2.87-10.65c0.83-0.17,2.26-0.66,2.65,1.65
						c0.39,2.32-0.94,7.79-0.94,7.92c0,0.13,0.86,1.67,1.01,3.71"/>
					<g>
						<path class="st12" d="M268.34,174.15c-0.04,0-0.08-0.43-0.27-1.18c-0.09-0.38-0.23-0.83-0.43-1.35
							c-0.1-0.26-0.21-0.53-0.34-0.81l-0.1-0.23c-0.06-0.1-0.02-0.29-0.01-0.34c0.03-0.17,0.06-0.33,0.1-0.51
							c0.26-1.37,0.57-3.02,0.74-4.85c0.07-0.91,0.14-1.89-0.12-2.8c-0.13-0.45-0.36-0.87-0.74-1.04c-0.38-0.17-0.88-0.08-1.4,0.04
							c-0.1-0.04-0.22,0.21-0.33,0.42c-0.11,0.23-0.2,0.47-0.28,0.71c-0.17,0.48-0.32,0.97-0.46,1.45
							c-0.28,0.96-0.51,1.91-0.73,2.81c-0.43,1.8-0.78,3.44-1.01,4.81c-0.21,1.35,0.05,2.48,0.2,3.24c0.17,0.76,0.31,1.17,0.27,1.19
							c-0.03,0.01-0.23-0.38-0.47-1.13c-0.21-0.75-0.55-1.89-0.37-3.34c0.19-1.4,0.51-3.05,0.91-4.86c0.2-0.91,0.43-1.86,0.71-2.84
							c0.14-0.49,0.28-0.99,0.46-1.49c0.09-0.25,0.18-0.5,0.3-0.76c0.06-0.13,0.12-0.25,0.21-0.39c0.04-0.06,0.1-0.14,0.18-0.21
							c0.05-0.04,0.13-0.08,0.2-0.1l0.1-0.02c0.51-0.11,1.12-0.26,1.72,0c0.6,0.27,0.88,0.87,1.02,1.37
							c0.28,1.05,0.18,2.06,0.1,2.99c-0.2,1.87-0.55,3.51-0.86,4.88c-0.04,0.17-0.08,0.34-0.11,0.5c-0.02,0.11-0.04,0.1-0.02,0.15
							l0.09,0.22c0.12,0.29,0.22,0.58,0.31,0.85c0.17,0.54,0.29,1.01,0.35,1.4C268.39,173.7,268.36,174.15,268.34,174.15z"/>
					</g>
				</g>
				<g>
					<path class="st12" d="M283.05,177.84c-0.03,0.09-1-0.46-2.8-0.71c-0.89-0.1-2-0.08-3.18,0.29c-1.17,0.35-2.42,1.08-3.43,2.12
						l-0.44,0.45l0.01-0.62c0.02-1.63,0.05-3.4,0.08-5.25l0-0.01l0-0.02c0.01-0.18,0.03-0.37,0.05-0.57
						c0.06-1.09,0.04-2.2-0.28-3.13c-0.29-0.92-1.3-1.44-2.11-1.14c-0.2,0.07-0.37,0.18-0.49,0.32c-0.12,0.12-0.15,0.32-0.21,0.54
						c-0.1,0.44-0.17,0.88-0.24,1.3c-0.13,0.84-0.25,1.64-0.36,2.37c-0.2,1.37-0.37,2.53-0.51,3.45c-0.13,0.81-0.22,1.26-0.26,1.25
						c-0.03-0.01-0.01-0.46,0.06-1.28c0.07-0.82,0.18-2.01,0.34-3.47c0.08-0.73,0.18-1.53,0.3-2.39c0.06-0.43,0.13-0.87,0.22-1.34
						c0.02-0.11,0.06-0.24,0.09-0.36c0.04-0.14,0.12-0.28,0.21-0.39c0.19-0.22,0.43-0.38,0.69-0.47c0.52-0.19,1.13-0.15,1.64,0.12
						c0.5,0.26,0.92,0.75,1.1,1.29c0.38,1.08,0.38,2.21,0.33,3.35c-0.02,0.21-0.03,0.41-0.05,0.6l0-0.03
						c-0.04,1.85-0.08,3.62-0.11,5.25l-0.43-0.16c1.12-1.14,2.43-1.85,3.68-2.2c1.25-0.36,2.42-0.34,3.34-0.19
						c0.46,0.08,0.87,0.17,1.21,0.3c0.35,0.1,0.64,0.21,0.86,0.33C282.82,177.69,283.06,177.82,283.05,177.84z"/>
				</g>
				<g>
					<path class="st12" d="M262.72,169.9c-0.03,0.08-1.45-0.42-3.63-1.26l-0.06-0.02l-0.05-0.07c-0.37-0.61-0.93-1.28-1.54-1.96
						c-0.62-0.67-1.29-1.42-2.06-2.04c-0.58-0.46-1.24-0.8-1.89-0.86c-0.64-0.04-1.25,0.26-1.6,0.68l0-0.27
						c0.84,1.24,1.52,2.29,1.99,3.04c0.47,0.75,0.72,1.19,0.68,1.22c-0.04,0.03-0.37-0.36-0.9-1.06c-0.53-0.7-1.28-1.71-2.15-2.93
						l-0.1-0.14l0.1-0.13c0.44-0.58,1.18-0.95,2-0.92c0.81,0.05,1.55,0.45,2.18,0.95c0.84,0.68,1.48,1.42,2.11,2.12
						c0.61,0.71,1.14,1.38,1.54,2.09l-0.11-0.1C261.39,169.18,262.75,169.82,262.72,169.9z"/>
				</g>
			</g>
		</g>
		<path class="st6" d="M319.18,130c-3.47,2.57-6.29,6.16-7.18,12.72l-5.38,32.01l15.31,4.34l5.3-36.39L319.18,130z"/>
		<g>
			<path class="st6" d="M336.32,120.45L319.18,130c-1.44,9.56,0.72,63.53,0.72,63.53l-0.8,51.75c24.02,11.89,51.71,7.54,81.08-2.03
				c0.19-2.24,0.15-4.32-0.61-5.93l-4.71-45.36c0,0,1.22-35.05,1.22-35.71c0-0.66,2.63-33.27,2.63-33.27l-28.2-8.43
				c0,0-11.96,9.92-21.5,10.4c-8.23,0.41-7.79-6.98-7.79-6.98L336.32,120.45z"/>
			<g>
				<path class="st5" d="M318.69,142.76c0.04,0,0.07,0.56,0.1,1.57c0.02,1.1,0.05,2.54,0.09,4.27c0.04,3.69,0.1,8.62,0.17,14.08
					c0.08,5.5,0.2,10.47,0.32,14.07c0.06,1.73,0.11,3.16,0.15,4.26c0.04,1.01,0.04,1.57,0,1.57c-0.04,0-0.11-0.55-0.21-1.55
					c-0.1-1-0.21-2.46-0.32-4.26c-0.22-3.6-0.4-8.58-0.48-14.08c-0.08-5.5-0.06-10.48-0.02-14.08c0.03-1.73,0.06-3.17,0.08-4.27
					C318.62,143.32,318.65,142.76,318.69,142.76z"/>
			</g>
		</g>
		<g>
			<path class="st11" d="M366.26,202.43c-0.36,0.92-9.17,5.61-9.17,5.61h-4.02c0,0-2.58-3.56-2.43-4.09
				c0.15-0.53,1.67-6.37-0.45-6.06c-2.12,0.3-3.56,4.08-3.87,5.07c-0.3,0.99,0.38,2.58,0.38,2.58s-3.64-4.47-6.14-3.34
				c-2.5,1.14-1.29,2.73-1.29,2.73l7.28,6.29c0,0-4.93-0.61-4.85,2.96l4.4,2.05l7.17,1.22c0.87,0.15,1.76,0.07,2.59-0.21l1.75-0.6
				c0,0,4.26-0.47,6.61-1.31c2.35-0.83,4.82-3.57,4.82-3.57l9.21-10.15c0,0,1.29-5.23-1.67-6.67c-2.96-1.44-1.97-0.08-2.96-1.44
				c-0.99-1.36-4.8-3.04-5,1.06c-0.15,3.18,1.21,3.94,1.44,3.94C370.28,198.48,367.7,198.79,366.26,202.43z"/>
			<g>
				<path class="st12" d="M353.56,208.04c-0.03,0.14-1.74-0.09-3.84-0.52l-0.05-0.01l-0.04-0.03c-0.03-0.02-0.07-0.05-0.11-0.07
					c-1.86-1.19-3.26-2.41-3.05-2.6c0.04-0.01,0.36,0.24,0.97,0.63c0.84,0.55,1.58,1.02,2.36,1.53c0.04,0.02,0.07,0.05,0.11,0.07
					l-0.09-0.04C351.92,207.44,353.58,207.9,353.56,208.04z"/>
			</g>
			<g>
				<path class="st12" d="M365.45,207.37c0,0.05-0.3,0.08-0.78,0.26c-0.47,0.18-1.14,0.57-1.71,1.23l0.02-0.02
					c-0.43,0.69-0.88,1.44-1.37,2.23l-0.05,0.08l-0.09,0.03c-0.47,0.15-0.97,0.35-1.46,0.57c-0.9,0.41-1.71,0.88-2.35,1.42
					c-0.65,0.54-1.11,1.15-1.04,1.74c0.04,0.59,0.39,1.02,0.62,1.28c0.24,0.27,0.39,0.4,0.37,0.43c-0.02,0.03-0.22-0.05-0.51-0.29
					c-0.28-0.24-0.73-0.65-0.84-1.39c-0.05-0.36,0.03-0.79,0.25-1.16c0.22-0.36,0.51-0.69,0.85-0.99c0.68-0.6,1.52-1.11,2.45-1.53
					c0.51-0.23,1.02-0.43,1.53-0.59l-0.14,0.11c0.51-0.77,0.99-1.5,1.44-2.19l0.01-0.02l0.01-0.01c0.69-0.72,1.42-1.05,1.96-1.19
					C365.14,207.27,365.45,207.33,365.45,207.37z"/>
			</g>
			<g>
				<path class="st12" d="M370.05,198.48c0.04-0.07,0.26,0,0.61,0.06c0.35,0.06,0.85,0.1,1.4,0.11c1.11,0.01,2.03-0.07,2.06,0.07
					c0.03,0.14-0.88,0.46-2.07,0.45c-0.59,0-1.13-0.11-1.5-0.27C370.19,198.73,370.02,198.54,370.05,198.48z"/>
			</g>
			<path class="st11" d="M378.24,201.59c0,0,4.74-1.3,9.63-2.79l10.89-3.91l-3.38-19.57l22.86-8.01c0,0,3.94,28.59,2.97,35.87
				c-0.94,7.12-4.91,8.81-10.47,10.62c-5.56,1.81-46.24-0.21-46.81,0.67c-0.57,0.88,5.54-8.04,5.54-8.04L378.24,201.59z"/>
			<g>
				<path class="st12" d="M370.78,209.61c0.12,0.07-0.71,1.57-2.24,2.98c-1.53,1.42-3.08,2.13-3.14,2.01
					c-0.08-0.13,1.32-1.02,2.79-2.39C369.67,210.84,370.66,209.52,370.78,209.61z"/>
			</g>
			<g>
				<path class="st12" d="M408.84,198.72c-0.11,0.13-1.92-1.62-4.73-2.73c-2.8-1.15-5.31-1.14-5.3-1.31
					c-0.03-0.12,2.58-0.37,5.5,0.82C407.23,196.67,408.95,198.66,408.84,198.72z"/>
			</g>
			<g>
				<path class="st12" d="M358.39,209.86c0.02,0.07-0.95,0.46-2.47,1.22c-0.39,0.2-0.81,0.41-1.24,0.63
					c-0.23,0.11-0.46,0.23-0.69,0.35l-0.19,0.09l-0.1,0.05c-0.06,0.03-0.17,0.04-0.18,0.03l-0.41-0.04
					c-1.14-0.12-2.36-0.25-3.65-0.38c-0.65-0.07-1.28-0.14-1.89-0.21c-0.61-0.08-1.2-0.15-1.74-0.15c-1.09-0.02-2.08,0.16-2.77,0.59
					c-0.71,0.4-1.03,1.02-1.18,1.44c-0.14,0.44-0.15,0.7-0.18,0.7c-0.03,0-0.1-0.27-0.01-0.76c0.09-0.47,0.41-1.2,1.17-1.7
					c0.75-0.52,1.82-0.75,2.97-0.76c0.59-0.01,1.17,0.05,1.78,0.12c0.61,0.07,1.23,0.13,1.88,0.2c1.27,0.15,2.49,0.29,3.62,0.42
					l0.41,0.05c-0.03,0.03,0.18-0.07,0.28-0.11c0.24-0.11,0.47-0.22,0.7-0.33c0.44-0.2,0.87-0.39,1.27-0.57
					C357.33,210.06,358.37,209.8,358.39,209.86z"/>
			</g>
		</g>
		<g>
			<path class="st6" d="M398.71,122.97c0.66,0.22,8.29,2.47,12.45,13.41c4.16,10.95,9.66,39.55,9.66,39.55l-26.08,5.27l-3.91-35.44
				L398.71,122.97z"/>
			<g>
				<path class="st5" d="M389.23,148.67c0.04,0,0.12,0.45,0.24,1.27c0.13,0.93,0.3,2.09,0.5,3.48c0.42,2.94,1.02,6.99,1.8,11.45
					c0.78,4.46,1.58,8.48,2.18,11.38c0.28,1.37,0.52,2.53,0.71,3.44c0.16,0.81,0.24,1.27,0.2,1.28c-0.03,0.01-0.17-0.43-0.4-1.23
					c-0.22-0.8-0.52-1.96-0.87-3.41c-0.69-2.89-1.56-6.91-2.34-11.37c-0.78-4.47-1.33-8.54-1.65-11.49
					c-0.16-1.48-0.28-2.67-0.34-3.5C389.21,149.13,389.2,148.67,389.23,148.67z"/>
			</g>
			<g>
				<path class="st5" d="M397.95,125.98c0.11,0.14-3.27,1.74-5.9,5.34c-2.68,3.56-3.23,7.25-3.4,7.19c-0.06-0.01,0-0.93,0.4-2.35
					c0.4-1.42,1.23-3.33,2.58-5.15c1.36-1.82,2.94-3.16,4.18-3.96C397.06,126.24,397.93,125.92,397.95,125.98z"/>
			</g>
		</g>
	</g>
</g>
<g id="Character_1">
	<g>
		<g>
			<g>
				<g>
					<g>
						<g>
							<g>
								<g>
									<g>
										<path class="st5" d="M116.03,424.97l1.53,23.67l-6.4,20.47c-0.46,1.48,0.42,3.03,1.93,3.39l0,0
											c0.84,0.2,1.72-0.01,2.37-0.58c4.14-3.63,19.32-17.06,19.25-18.97c-0.08-2.21,0.43-27.48,0.43-27.48L116.03,424.97z"/>
									</g>
								</g>
							</g>
						</g>
					</g>
				</g>
			</g>
			<g>
				<g>
					<g>
						<g>
							<g>
								<g>
									<g>
										<path class="st8" d="M113.09,472.5l21.7-21.3l-0.05,1.1c-0.04,0.95-0.42,1.86-1.07,2.56c-1.74,1.87-6.66,6.92-18.13,17.06
											C114.88,472.51,113.95,472.73,113.09,472.5L113.09,472.5z"/>
									</g>
								</g>
							</g>
						</g>
					</g>
				</g>
			</g>
			<g>
				<g>
					<g>
						<g>
							<g>
								<g>
									<g>
										<g>
											<path class="st9" d="M119.55,461.4c-0.15,0.07-0.68-1.32-2.19-2.13c-1.49-0.85-2.94-0.55-2.97-0.71
												c-0.02-0.06,0.32-0.25,0.93-0.31c0.61-0.06,1.48,0.06,2.31,0.52c0.83,0.46,1.4,1.13,1.68,1.68
												C119.59,460.99,119.62,461.38,119.55,461.4z"/>
										</g>
									</g>
								</g>
							</g>
						</g>
					</g>
				</g>
			</g>
			<g>
				<g>
					<g>
						<g>
							<g>
								<g>
									<g>
										<g>
											<path class="st9" d="M117.54,464.8c-0.13,0.11-0.93-0.78-2.25-1.22c-1.32-0.48-2.49-0.28-2.53-0.44
												c-0.07-0.14,1.21-0.63,2.71-0.1C116.99,463.55,117.68,464.74,117.54,464.8z"/>
										</g>
									</g>
								</g>
							</g>
						</g>
					</g>
				</g>
			</g>
			<g>
				<g>
					<g>
						<g>
							<g>
								<g>
									<g>
										<g>
											<path class="st9" d="M123.2,457.09c-0.13,0.12-1.35-1.25-3.35-2.12c-1.99-0.91-3.82-0.9-3.82-1.07
												c-0.04-0.14,1.91-0.42,4.05,0.55C122.23,455.39,123.33,457.02,123.2,457.09z"/>
										</g>
									</g>
								</g>
							</g>
						</g>
					</g>
				</g>
			</g>
			<g>
				<g>
					<g>
						<g>
							<g>
								<g>
									<g>
										<g>
											<path class="st9" d="M124.04,449.19c-0.08,0.15-1.49-0.51-3.35-0.66c-1.87-0.18-3.37,0.23-3.42,0.07
												c-0.07-0.13,1.46-0.82,3.47-0.64C122.74,448.12,124.13,449.07,124.04,449.19z"/>
										</g>
									</g>
								</g>
							</g>
						</g>
					</g>
				</g>
			</g>
		</g>
		<g>
			<g>
				<g>
					<g>
						<g>
							<g>
								<g>
									<g>
										<g>
											<g>
												<g>
													<g>
														<g>
															<path class="st5" d="M179.15,419.93l-0.78,22.94c0,0,23.06,8.5,23.33,12.75l-44.54,0.09l-0.25-35.79L179.15,419.93z"
																/>
														</g>
													</g>
												</g>
											</g>
										</g>
									</g>
								</g>
							</g>
						</g>
					</g>
				</g>
			</g>
			<g>
				<g>
					<g>
						<g>
							<g>
								<g>
									<g>
										<g>
											<g>
												<g>
													<g>
														<g>
															<g>
																<path class="st2" d="M164.59,440.97c-0.86,0.24-1.45,1.21-1.25,2.08c0.2,0.87,1.18,1.48,2.05,1.26
																	c0.87-0.22,1.61-1.36,1.32-2.21c-0.3-0.84-1.49-1.5-2.28-1.07"/>
															</g>
														</g>
													</g>
												</g>
											</g>
										</g>
									</g>
								</g>
							</g>
						</g>
					</g>
				</g>
			</g>
			<g>
				<g>
					<g>
						<g>
							<g>
								<g>
									<g>
										<g>
											<g>
												<g>
													<g>
														<g>
															<path class="st8" d="M157.16,455.71l0.12-3.61l42.66,1.27c0,0,1.98,0.86,1.76,2.26L157.16,455.71z"/>
														</g>
													</g>
												</g>
											</g>
										</g>
									</g>
								</g>
							</g>
						</g>
					</g>
				</g>
			</g>
			<g>
				<g>
					<g>
						<g>
							<g>
								<g>
									<g>
										<g>
											<g>
												<g>
													<g>
														<g>
															<g>
																<path class="st9" d="M179.09,442.64c-0.01,0.22-1.09,0.32-2.16,1.02c-1.09,0.67-1.64,1.62-1.84,1.53
																	c-0.2-0.04,0.12-1.34,1.43-2.17C177.82,442.18,179.14,442.44,179.09,442.64z"/>
															</g>
														</g>
													</g>
												</g>
											</g>
										</g>
									</g>
								</g>
							</g>
						</g>
					</g>
				</g>
			</g>
			<g>
				<g>
					<g>
						<g>
							<g>
								<g>
									<g>
										<g>
											<g>
												<g>
													<g>
														<g>
															<g>
																<path class="st9" d="M183.76,444.56c0.05,0.21-0.89,0.58-1.63,1.5c-0.76,0.9-0.95,1.89-1.16,1.89
																	c-0.2,0.03-0.36-1.24,0.58-2.37C182.48,444.45,183.76,444.36,183.76,444.56z"/>
															</g>
														</g>
													</g>
												</g>
											</g>
										</g>
									</g>
								</g>
							</g>
						</g>
					</g>
				</g>
			</g>
			<g>
				<g>
					<g>
						<g>
							<g>
								<g>
									<g>
										<g>
											<g>
												<g>
													<g>
														<g>
															<g>
																<path class="st9" d="M186.43,450.15c-0.2,0.05-0.5-1.04,0.05-2.23c0.55-1.2,1.57-1.67,1.66-1.49
																	c0.12,0.18-0.54,0.82-0.98,1.8C186.7,449.21,186.64,450.13,186.43,450.15z"/>
															</g>
														</g>
													</g>
												</g>
											</g>
										</g>
									</g>
								</g>
							</g>
						</g>
					</g>
				</g>
			</g>
			<g>
				<g>
					<g>
						<g>
							<g>
								<g>
									<g>
										<g>
											<g>
												<g>
													<g>
														<g>
															<g>
																<path class="st9" d="M178.69,437.39c-0.09,0.2-1.09-0.1-2.32-0.01c-1.23,0.06-2.19,0.48-2.3,0.29
																	c-0.13-0.16,0.81-0.96,2.26-1.04C177.77,436.53,178.79,437.22,178.69,437.39z"/>
															</g>
														</g>
													</g>
												</g>
											</g>
										</g>
									</g>
								</g>
							</g>
						</g>
					</g>
				</g>
			</g>
		</g>
		<path class="st5" d="M181.84,266.24l-2.97-21.11l-81.27-3.7l-2.48,25.1l8.75,75.74c1.14,6.4,0.42,36.19,1.61,44.19
			c0.3,1.99,8.91,56.65,8.91,56.65h21.99c0,0,1.27-54.01,1.45-58.5c0.18-4.48,1.03-34.65,1.03-42.35c0-9.34,4.05-57.5,4.05-57.5
			l5.64,65.11c0,0-0.46,19.73-0.04,23.91c0.74,7.3,6.38,67.63,6.38,67.63l24.68,0.49c0,0,5.14-70.38,5.29-83.97
			C185.05,342.25,181.8,267.28,181.84,266.24z"/>
		<path class="st8" d="M161.34,127.42c0,0,13.07,3.45,17.77,19.38c3.39,11.49,9.66,27.85,9.66,27.85l-21.18,3.56L161.34,127.42z"/>
		<g>
			<path class="st8" d="M92.78,130.5c0,0,9.68-4.65,21.1-8.62h3.64l21.99,1.38c4.94,0.28,18.23,2.9,21.83,4.16
				c0,0,6.28,40.95,7.51,49.07c1.33,8.78,2.66,17.81,2.66,17.81l7.06,47.17c2.24,2.91,1.66,5.92,1.34,8.92
				c-24.64,10.79-52.03,12.79-83.47,0.42c-0.8-1.67-0.84-3.31,0.16-4.91c0.32-9.6,1.04-30.47,1.48-36.89c0,0-3.47-19.51-5.99-26.99
				c-3.02-8.94-8.08-23.31-8.08-30.68C84.02,144.55,92.78,130.5,92.78,130.5z"/>
			<path class="st13" d="M109.48,211.67c0,0,8.02,7,13.1,6.72c5.08-0.28,18.77-11.57,18.77-11.57s21.38,7.9,26.14,8.05
				c4.76,0.14,7.1,0.03,7.1,0.03V203.7l-31.69-10.15l-29.07,4.3L109.48,211.67z"/>
			<g>
				<path class="st5" d="M163.48,140.89c0.14-0.02,2.06,11.88,4.28,26.57c2.22,14.7,3.9,26.63,3.76,26.65
					c-0.14,0.02-2.06-11.87-4.28-26.57C165.02,152.85,163.34,140.91,163.48,140.89z"/>
			</g>
			<g>
				<path class="st14" d="M99.17,190.85c-0.2,0.07-3.81,1.34-4.04,3.5c-0.23,2.17,2.02,4.33,2.02,4.33s-2.4,2.39,0.41,4.9
					c0,0-1.98,3.88,3.49,5.01c0,0-0.58,3.76,2.9,4.56c3.48,0.8,5.28-1.09,5.53-1.48c0.56-0.86,0-1.37,0-1.37l6.49-0.8
					c0,0,14.47-1.6,16.07-3.08s-0.8-14.9-3.53-15.6C125.79,190.13,103.44,189.28,99.17,190.85z"/>
				<g>
					<path class="st15" d="M104.94,205.02c0.05,0.15-1.09,0.57-2.14,1.57c-1.07,0.98-1.58,2.08-1.73,2.02
						c-0.13-0.03,0.2-1.32,1.37-2.4C103.6,205.12,104.92,204.89,104.94,205.02z"/>
				</g>
				<g>
					<path class="st15" d="M101.82,201.15c0.06,0.15-1.03,0.55-2.24,1.16c-1.22,0.61-1.93,1.48-2.06,1.39
						c-0.12-0.06,0.48-1.17,1.82-1.85C100.64,201.2,101.78,201.03,101.82,201.15z"/>
				</g>
				<g>
					<path class="st15" d="M100.35,196.62c0.04,0.15-0.85,0.49-1.78,1.16c-0.94,0.66-1.57,1.38-1.69,1.29
						c-0.12-0.07,0.36-0.99,1.39-1.71C99.29,196.63,100.32,196.49,100.35,196.62z"/>
				</g>
			</g>
			<g>
				<path class="st14" d="M187.72,174.83c-0.15,0.03,4.39,15.22,4.39,15.22l-20.07,4.98l-1.71-8.72l-1.05-8.42L187.72,174.83z"/>
				<path class="st14" d="M129.16,184.04c0.69,0.34,42.72,2.21,42.72,2.21s15.53-0.58,19.58,1.67c0,0,5.22,14.47-0.95,20.42
					c-5.08,4.9-10.12,4.78-16.59,3.81c-7.32-1.1-39.78-12.91-39.78-12.91L129.16,184.04z"/>
				<g>
					<path class="st15" d="M186.34,188.68c-0.06,0.16-3.26-1.34-7.51-2.04c-4.24-0.73-7.76-0.36-7.77-0.53
						c-0.01-0.06,0.86-0.24,2.29-0.32c1.42-0.08,3.41-0.03,5.57,0.33c2.15,0.36,4.05,0.96,5.37,1.51
						C185.6,188.17,186.36,188.62,186.34,188.68z"/>
				</g>
			</g>
			<g>
				<g>
					<path class="st14" d="M159.16,155.73c0,0,1.52-2.19,2.1-3.51c0.57-1.32,0.71-6.15,2.12-7.51c1.41-1.36,5.77-5.45,7.42-7.02
						c1.66-1.57,2.18-2.56,3.2-1.52c1.02,1.04,1.19,2.96,0.25,4.69c-0.94,1.72-4.2,4.66-3.72,6.38c0.48,1.71,0.43,3.33,3.39,3.3
						c2.96-0.03,11.14-2.48,15.14-3.43c5.62-1.33,6.91,0.48,6.91,0.48s2.8-0.66,3.38,0.6c0.58,1.26-1.39,2.91-2.26,3.59
						c-0.87,0.69-0.17,3.47-6.38,7.2c-0.81,0.49,1.06,1.89-5.1,4.61c-3.51,1.55-5.89,3.11-9.91,3.85
						c-8.53,1.58-12.23,6.49-12.23,6.49c-0.19,0.01-12.15-11.57-9.93-13.44C155.33,158.96,159.16,155.73,159.16,155.73z"/>
					<g>
						<path class="st15" d="M195.94,147.4c0.01-0.01,0.21,0.15,0.22,0.59c0.01,0.44-0.33,1.01-0.92,1.43
							c-1.23,0.74-2.96,1.52-4.93,2.31c-1.97,0.78-3.81,1.35-5.15,1.71c-1.34,0.35-2.19,0.5-2.21,0.43
							c-0.04-0.15,3.25-1.07,7.16-2.63c1.94-0.78,3.73-1.53,4.91-2.13c0.56-0.35,0.88-0.79,0.93-1.14
							C196.02,147.62,195.89,147.41,195.94,147.4z"/>
					</g>
					<g>
						<path class="st15" d="M196.92,152.01c0.04,0.06-0.65,0.6-1.84,1.37c-1.19,0.77-2.9,1.74-4.87,2.63
							c-1.97,0.9-3.82,1.55-5.18,1.95c-1.36,0.4-2.22,0.56-2.24,0.5c-0.04-0.15,3.31-1.13,7.21-2.92
							C193.9,153.77,196.84,151.88,196.92,152.01z"/>
					</g>
					<g>
						<path class="st15" d="M184.25,162.12c-0.05-0.13,1.39-0.85,3.16-1.72c1.78-0.87,3.23-1.56,3.31-1.43
							c0.07,0.13-1.28,1.03-3.08,1.9C185.85,161.75,184.3,162.26,184.25,162.12z"/>
					</g>
				</g>
				<g>
					<path class="st14" d="M96.45,186.9c0,0,11.98,24.97,22.4,26.43c10.41,1.46,18.33-9.89,22.02-14.06
						c4.73-5.36,27.99-31.15,27.99-31.15l-12.31-9.99l-31.65,22.5l-6.05-10L96.45,186.9z"/>
					<g>
						<path class="st15" d="M112.72,210.2c-0.02,0.03-0.37-0.16-1-0.53c-0.34-0.17-0.64-0.49-1.05-0.82
							c-0.41-0.32-0.82-0.74-1.28-1.22c-1.81-1.88-3.96-4.78-6.09-8.13c-2.12-3.35-3.85-6.5-5.06-8.8c-0.6-1.15-1.07-2.09-1.37-2.75
							c-0.31-0.66-0.46-1.03-0.43-1.05c0.03-0.02,0.24,0.33,0.61,0.95c0.41,0.73,0.92,1.62,1.52,2.67c1.28,2.25,3.06,5.36,5.17,8.69
							c2.12,3.33,4.2,6.24,5.92,8.16c0.43,0.48,0.81,0.92,1.2,1.25c0.38,0.33,0.67,0.69,0.98,0.87
							C112.42,209.91,112.74,210.16,112.72,210.2z"/>
					</g>
					<g>
						<path class="st15" d="M152.48,186.31c0.03,0.02-0.19,0.36-0.61,0.95c-0.43,0.59-1.07,1.42-1.9,2.41
							c-1.65,2-4.01,4.69-6.67,7.61c-2.67,2.91-5.13,5.51-6.94,7.36c-0.9,0.93-1.64,1.67-2.16,2.17c-0.52,0.5-0.82,0.77-0.85,0.74
							c-0.03-0.02,0.23-0.34,0.7-0.88c0.56-0.62,1.24-1.39,2.04-2.28c1.83-2,4.2-4.59,6.82-7.46c2.66-2.91,5.06-5.56,6.78-7.49
							c0.79-0.91,1.47-1.67,2.02-2.3C152.17,186.58,152.45,186.29,152.48,186.31z"/>
					</g>
				</g>
				<g>
					<path class="st8" d="M108.97,149.59c6.7,12.47,14.22,25.48,14.22,25.48l-28.24,15.84c0,0-11.09-25.06-11.18-25.73
						c0,0-3.93-15.37-0.33-23.96c2.88-6.87,9.34-10.73,9.34-10.73"/>
					<g>
						<path class="st5" d="M92.78,130.5c0,0.01-0.05,0.04-0.15,0.11c-0.12,0.08-0.26,0.19-0.44,0.32c-0.39,0.28-0.96,0.71-1.66,1.3
							c-1.4,1.19-3.41,3.04-5.26,5.89c-0.92,1.42-1.76,3.12-2.31,5.07c-0.55,1.95-0.76,4.16-0.82,6.49
							c-0.08,4.67,0.55,9.94,1.86,15.45l0.01,0.03c0.3,0.8,0.72,1.78,1.1,2.67c0.4,0.92,0.8,1.84,1.2,2.78
							c0.82,1.87,1.65,3.79,2.51,5.74c1.72,3.9,3.49,7.94,5.32,12.08c0.35,0.8,0.71,1.6,1.05,2.39l-0.36-0.12
							c10.42-5.83,20.1-11.24,28.26-15.8l-0.08,0.3c-4.24-7.68-7.76-14.06-10.24-18.55c-1.21-2.21-2.16-3.96-2.83-5.19
							c-0.31-0.58-0.55-1.03-0.73-1.37c-0.16-0.31-0.24-0.48-0.23-0.48s0.11,0.15,0.29,0.45c0.19,0.33,0.45,0.77,0.79,1.34
							c0.69,1.21,1.68,2.94,2.93,5.13c2.52,4.47,6.1,10.81,10.4,18.45l0.11,0.19l-0.19,0.11c-8.15,4.59-17.81,10.02-28.22,15.88
							l-0.25,0.14l-0.12-0.26c-0.35-0.78-0.7-1.58-1.06-2.39c-1.82-4.14-3.6-8.18-5.31-12.08c-0.85-1.95-1.68-3.87-2.49-5.74
							c-0.4-0.94-0.8-1.87-1.19-2.79c-0.39-0.95-0.77-1.77-1.13-2.8l0.01,0.03c-1.29-5.57-1.9-10.86-1.79-15.58
							c0.08-2.36,0.31-4.58,0.89-6.57c0.58-1.99,1.45-3.7,2.4-5.13c1.91-2.87,3.97-4.7,5.41-5.85c0.73-0.58,1.31-0.98,1.72-1.24
							c0.19-0.12,0.34-0.21,0.47-0.28C92.72,130.52,92.78,130.49,92.78,130.5z"/>
					</g>
				</g>
				<g>
					<path class="st15" d="M121.24,194.99c-0.06,0.01-0.24-0.84-0.27-2.24c-0.04-1.39,0.13-3.34,0.69-5.4
						c0.57-2.06,1.43-3.81,2.18-4.99c0.75-1.18,1.33-1.82,1.38-1.78c0.15,0.09-1.96,2.85-3.06,6.9
						C121.02,191.54,121.41,194.99,121.24,194.99z"/>
				</g>
			</g>
		</g>
		<g>
			<g>
				<g>
					<g>
						<g>
							<g>
								<path class="st5" d="M101.28,107.6c1.2-1.05,2.89-1.34,4.11-2.37c1.22-1.03,1.8-2.67,1.88-4.28
									c0.08-1.61-0.29-3.2-0.68-4.76l13.01,16.7c-1.03,1.84-2.15,3.69-3.77,5.02c-1.62,1.33-3.86,2.04-5.82,1.32
									c-1.95-0.72-3.28-3.19-2.38-5.1c-1.75,1.66-4.79,1.69-6.49-0.02C99.44,112.4,99.47,109.19,101.28,107.6z"/>
							</g>
						</g>
					</g>
					<g>
						<g>
							<g>
								<path class="st5" d="M138.89,58.82c3.15,2.36,3.67,4.7,3.8,5.96c0.04,0.37-0.02,0.84-0.37,0.95c-0.17,0.06-0.35,0-0.52-0.05
									c-3.52-1.09-7.04-2.19-10.56-3.28"/>
							</g>
						</g>
					</g>
					<g>
						<g>
							<g>
								<g>
									<g>
										<g>
											<g>
												<g>
													<g>
														<g>
															<g>
																<path class="st5" d="M109.72,100.91c-2.38-4.35-4.74-8.75-6.35-13.45c-1.61-4.71-2.44-9.78-1.65-14.7
																	c0.12-0.75,1.38-5.84,2.11-5.91c0.53-0.05,0.04,4.56,0.39,4.97c3.33,3.87,5.02,8.99,5.6,14.11
																	C110.39,91.05,110.24,95.79,109.72,100.91"/>
															</g>
														</g>
													</g>
												</g>
											</g>
										</g>
									</g>
								</g>
							</g>
						</g>
						<path class="st14" d="M150.55,100.99c-0.73-5.75-3.17-17.46-5.49-28.03c-2.5-11.36-13.12-18.85-24.41-17.22l-1.12,0.16
							c-11.99,2.47-16.63,14.26-13.88,26.45l8.25,40.89l0.76,0.75c5.29,5.19,11.43,8,18,7.83c4.81-0.12,8.72-3.9,9.04-8.7l0,0
							c0.06-0.13-1.04-6.7-1.02-6.7C140.69,116.42,152.06,112.89,150.55,100.99z"/>
						<g>
							<g>
								<g>
									<g>
										<g>
											<g>
												<g>
													<g>
														<g>
															<g>
																<g>
																	<g>
																		<path class="st15" d="M140.69,116.42c0,0-7.26,1.5-15.76-2.38c0,0,4.88,8.4,16.33,5.65L140.69,116.42z"/>
																	</g>
																</g>
															</g>
														</g>
													</g>
												</g>
											</g>
										</g>
									</g>
								</g>
							</g>
						</g>
						<g>
							<g>
								<g>
									<g>
										<g>
											<g>
												<g>
													<g>
														<g>
															<g>
																<g>
																	<g>
																		<g>
																			<g>
																				<g>
																					<g>
																						<g>
																							<g>
																								<path class="st5" d="M142.92,84.54c0.16,0.89-0.45,1.76-1.36,1.94c-0.91,0.18-1.77-0.39-1.92-1.28
																									c-0.16-0.89,0.45-1.76,1.36-1.94C141.91,83.08,142.77,83.65,142.92,84.54z"/>
																							</g>
																						</g>
																					</g>
																				</g>
																			</g>
																		</g>
																	</g>
																</g>
															</g>
														</g>
													</g>
												</g>
											</g>
										</g>
									</g>
								</g>
							</g>
						</g>
						<g>
							<g>
								<g>
									<g>
										<g>
											<g>
												<g>
													<g>
														<g>
															<g>
																<g>
																	<g>
																		<g>
																			<g>
																				<g>
																					<g>
																						<g>
																							<g>
																								<g>
																									<path class="st5" d="M143.32,78.56c-0.18,0.25-1.56-0.52-3.35-0.25c-1.79,0.24-2.97,1.37-3.19,1.17
																										c-0.11-0.08,0.05-0.51,0.56-1.02c0.5-0.5,1.4-1.05,2.52-1.21c1.11-0.15,2.11,0.13,2.7,0.48
																										C143.16,78.07,143.41,78.45,143.32,78.56z"/>
																								</g>
																							</g>
																						</g>
																					</g>
																				</g>
																			</g>
																		</g>
																	</g>
																</g>
															</g>
														</g>
													</g>
												</g>
											</g>
										</g>
									</g>
								</g>
							</g>
						</g>
						<g>
							<g>
								<g>
									<g>
										<g>
											<g>
												<g>
													<g>
														<g>
															<g>
																<g>
																	<g>
																		<g>
																			<g>
																				<g>
																					<g>
																						<g>
																							<g>
																								<path class="st5" d="M127.53,86.76c0.16,0.89-0.46,1.76-1.36,1.94c-0.91,0.18-1.77-0.39-1.92-1.28
																									c-0.16-0.89,0.46-1.76,1.36-1.94C126.52,85.29,127.38,85.86,127.53,86.76z"/>
																							</g>
																						</g>
																					</g>
																				</g>
																			</g>
																		</g>
																	</g>
																</g>
															</g>
														</g>
													</g>
												</g>
											</g>
										</g>
									</g>
								</g>
							</g>
						</g>
						<g>
							<g>
								<g>
									<g>
										<g>
											<g>
												<g>
													<g>
														<g>
															<g>
																<g>
																	<g>
																		<g>
																			<g>
																				<g>
																					<g>
																						<g>
																							<g>
																								<g>
																									<path class="st5" d="M125.87,81.52c-0.18,0.25-1.57-0.52-3.35-0.25c-1.79,0.24-2.97,1.37-3.19,1.17
																										c-0.11-0.09,0.04-0.51,0.56-1.02c0.5-0.5,1.4-1.05,2.52-1.21c1.11-0.15,2.11,0.13,2.7,0.48
																										C125.72,81.03,125.96,81.41,125.87,81.52z"/>
																								</g>
																							</g>
																						</g>
																					</g>
																				</g>
																			</g>
																		</g>
																	</g>
																</g>
															</g>
														</g>
													</g>
												</g>
											</g>
										</g>
									</g>
								</g>
							</g>
						</g>
						<g>
							<g>
								<g>
									<g>
										<g>
											<g>
												<g>
													<g>
														<g>
															<g>
																<g>
																	<g>
																		<g>
																			<g>
																				<g>
																					<g>
																						<g>
																							<g>
																								<path class="st5" d="M134.22,94.62c-0.02-0.1,1.06-0.46,2.83-0.96c0.45-0.11,0.87-0.27,0.9-0.6
																									c0.06-0.35-0.2-0.83-0.5-1.34c-0.59-1.07-1.2-2.18-1.84-3.35c-2.57-4.78-4.51-8.74-4.32-8.84
																									c0.19-0.1,2.43,3.69,5,8.47c0.62,1.18,1.22,2.31,1.79,3.38c0.25,0.5,0.63,1.06,0.49,1.79
																									c-0.07,0.37-0.37,0.67-0.66,0.79c-0.28,0.13-0.54,0.18-0.76,0.22C135.37,94.55,134.25,94.72,134.22,94.62z"
																									/>
																							</g>
																						</g>
																					</g>
																				</g>
																			</g>
																		</g>
																	</g>
																</g>
															</g>
														</g>
													</g>
												</g>
											</g>
										</g>
									</g>
								</g>
							</g>
						</g>
						<g>
							<g>
								<g>
									<g>
										<g>
											<g>
												<g>
													<g>
														<g>
															<g>
																<g>
																	<g>
																		<g>
																			<g>
																				<path class="st5" d="M125.66,75.73c-0.18,0.5-1.98,0.26-4.09,0.52c-2.12,0.22-3.83,0.85-4.11,0.4
																					c-0.13-0.22,0.17-0.69,0.86-1.17c0.68-0.48,1.78-0.94,3.05-1.09c1.27-0.14,2.43,0.07,3.2,0.39
																					C125.34,75.1,125.74,75.49,125.66,75.73z"/>
																			</g>
																		</g>
																	</g>
																</g>
															</g>
														</g>
													</g>
												</g>
											</g>
										</g>
									</g>
								</g>
							</g>
						</g>
						<g>
							<g>
								<g>
									<g>
										<g>
											<g>
												<g>
													<g>
														<g>
															<g>
																<g>
																	<g>
																		<g>
																			<g>
																				<path class="st5" d="M143.14,75.57c-0.31,0.47-1.82,0.28-3.57,0.54c-1.75,0.21-3.18,0.8-3.59,0.42
																					c-0.18-0.19-0.01-0.64,0.57-1.13c0.58-0.49,1.59-0.98,2.79-1.14c1.2-0.16,2.3,0.05,2.97,0.37
																					C143,74.95,143.27,75.34,143.14,75.57z"/>
																			</g>
																		</g>
																	</g>
																</g>
															</g>
														</g>
													</g>
												</g>
											</g>
										</g>
									</g>
								</g>
							</g>
						</g>
						<g>
							<g>
								<g>
									<g>
										<g>
											<g>
												<g>
													<g>
														<g>
															<g>
																<path class="st14" d="M107.82,91.01c-0.21-0.06-8.32-1.26-6.94,6.83c1.38,8.08,9.04,5,9.01,4.77
																	C109.87,102.36,107.82,91.01,107.82,91.01z"/>
															</g>
														</g>
													</g>
												</g>
											</g>
										</g>
									</g>
								</g>
							</g>
						</g>
						<g>
							<g>
								<g>
									<g>
										<g>
											<g>
												<g>
													<g>
														<g>
															<g>
																<g>
																	<path class="st15" d="M106.96,99.97c-0.04-0.02-0.12,0.12-0.34,0.27c-0.21,0.15-0.59,0.29-1.03,0.21
																		c-0.89-0.16-1.82-1.39-2.11-2.84c-0.15-0.73-0.11-1.46,0.04-2.08c0.14-0.63,0.44-1.11,0.85-1.27
																		c0.4-0.17,0.74,0.03,0.88,0.24c0.14,0.21,0.12,0.38,0.17,0.38c0.03,0.02,0.15-0.17,0.03-0.49
																		c-0.06-0.15-0.19-0.33-0.4-0.45c-0.22-0.12-0.51-0.15-0.8-0.07c-0.6,0.15-1.05,0.82-1.23,1.51
																		c-0.2,0.7-0.26,1.52-0.09,2.34c0.33,1.62,1.4,3,2.61,3.13c0.58,0.05,1.02-0.21,1.22-0.44
																		C106.97,100.16,106.99,99.98,106.96,99.97z"/>
																</g>
															</g>
														</g>
													</g>
												</g>
											</g>
										</g>
									</g>
								</g>
							</g>
						</g>
						<g>
							<g>
								<g>
									<g>
										<g>
											<g>
												<g>
													<g>
														<g>
															<g>
																<path class="st5" d="M137.55,60.55c1.15-0.96-3.45-4.47-6.85-5.34c-5.14-1.31-12.63-1.3-16.78,0.78
																	c-4.99,2.52-8.89,6.02-10.65,11.42c-1.76,5.4-1.73,11.29-0.57,16.86c0.35,1.7,0.85,3.45,2,4.72
																	c1.42,1.58,3.16,2.16,4.09,4.78c0.31,0.86,0.54,1.77,1.26,2.31c1.73,1.3,3.23-0.51,3.78-2.14
																	c1.17-3.49,0.68-7.3,0.18-10.95c-0.35-2.59-0.72-5.24-1.88-7.58c-0.63-1.27-1.48-2.43-2.03-3.73
																	c-0.56-1.31-0.8-2.86-0.16-4.13c0.1-0.21,0.28-0.48,0.52-0.78c1.88-2.42,4.9-3.61,7.88-3.12
																	c4.74,0.77,12.76,1.75,14.47-0.17c2.45-2.75,2.88-4.33,2.88-4.33L137.55,60.55z"/>
															</g>
														</g>
													</g>
												</g>
											</g>
										</g>
									</g>
								</g>
							</g>
						</g>
					</g>
					<g>
						<g>
							<g>
								<g>
									<path class="st8" d="M102.28,91.69c-0.17-0.11-0.4-0.1-0.57-0.21c-10.95-7.32-5.11-17.44-5.48-20.16
										c-0.5-3.76-4.01,1.77-5.45-3.03c-1.91-6.36,4.38-10.42,12.22-14.78c3.29-1.83,11.8-3.79,19.62-3.59
										c6.97,0.18,12.33,4.22,15.54,7.49c0,0,1.71,0.48,2.21,1.13c1.58,2.02,1.21,3.03,1.21,3.03s-16.25-5.1-26.82,7.59
										c-10.58,12.68-6.73,21.19-9.99,21.92L102.28,91.69z"/>
								</g>
							</g>
						</g>
						<g>
							<g>
								<g>
									<path class="st5" d="M106.74,58.54c0.01,0.01-0.21,0.16-0.6,0.41c-0.2,0.12-0.44,0.27-0.71,0.47
										c-0.27,0.19-0.59,0.39-0.92,0.65c-0.67,0.49-1.43,1.14-2.22,1.9c-0.78,0.78-1.6,1.68-2.37,2.7
										c-0.76,1.03-1.4,2.07-1.92,3.05c-0.51,0.99-0.92,1.91-1.2,2.7c-0.16,0.39-0.26,0.76-0.37,1.08
										c-0.11,0.32-0.19,0.6-0.25,0.82c-0.13,0.46-0.21,0.71-0.22,0.7c-0.02,0,0.03-0.26,0.13-0.73c0.05-0.23,0.11-0.52,0.21-0.84
										c0.1-0.32,0.19-0.7,0.34-1.09c0.27-0.81,0.66-1.74,1.17-2.74c0.52-0.99,1.16-2.05,1.92-3.09c0.78-1.03,1.61-1.94,2.4-2.72
										c0.81-0.76,1.59-1.4,2.28-1.88c0.33-0.25,0.66-0.45,0.94-0.63c0.28-0.18,0.53-0.32,0.73-0.43
										C106.5,58.64,106.73,58.52,106.74,58.54z"/>
								</g>
							</g>
						</g>
						<g>
							<g>
								<g>
									<path class="st5" d="M138.61,57.55c0,0-0.05,0-0.15-0.02c-0.11-0.02-0.25-0.05-0.43-0.09c-0.37-0.09-0.93-0.2-1.64-0.34
										c-0.72-0.12-1.6-0.27-2.63-0.37c-1.03-0.11-2.21-0.17-3.51-0.14c-2.6,0.06-5.7,0.54-8.92,1.78
										c-1.61,0.61-3.25,1.41-4.85,2.4c-1.6,0.99-3.15,2.19-4.6,3.57c-1.44,1.39-2.72,2.9-3.77,4.47
										c-1.05,1.58-1.91,3.21-2.59,4.83c-1.37,3.23-2.07,6.34-2.53,8.96c-0.45,2.62-0.64,4.77-0.77,6.26
										c-0.06,0.73-0.1,1.3-0.13,1.71c-0.02,0.19-0.03,0.33-0.04,0.45c-0.01,0.1-0.02,0.15-0.02,0.15s0-0.05,0-0.15
										c0-0.11,0.01-0.26,0.01-0.45c0.01-0.39,0.04-0.97,0.09-1.72c0.1-1.49,0.27-3.64,0.7-6.28c0.45-2.63,1.13-5.76,2.5-9.02
										c0.68-1.63,1.54-3.27,2.6-4.87c1.06-1.59,2.35-3.11,3.8-4.52c1.46-1.39,3.03-2.59,4.64-3.59c1.62-0.99,3.27-1.79,4.89-2.4
										c3.25-1.23,6.38-1.7,8.99-1.74c1.31-0.03,2.49,0.05,3.52,0.17c1.03,0.11,1.91,0.27,2.63,0.41
										c0.71,0.16,1.27,0.28,1.64,0.39c0.18,0.05,0.32,0.09,0.42,0.12C138.56,57.53,138.61,57.55,138.61,57.55z"/>
								</g>
							</g>
						</g>
						<g>
							<g>
								<g>
									<path class="st5" d="M106.64,86.75c0.03,0.05-0.96,0.38-2.18,0.13c-1.22-0.24-2.02-0.92-1.98-0.96
										c0.04-0.06,0.85,0.5,2.02,0.72C105.66,86.89,106.63,86.68,106.64,86.75z"/>
								</g>
							</g>
						</g>
						<g>
							<g>
								<g>
									<path class="st5" d="M109.51,78.82c0,0.03-0.33,0.05-0.84-0.03c-0.52-0.08-1.22-0.28-1.93-0.67
										c-0.71-0.39-1.27-0.88-1.62-1.27c-0.35-0.4-0.52-0.68-0.49-0.7c0.06-0.05,0.84,1.02,2.22,1.76
										C108.22,78.67,109.53,78.74,109.51,78.82z"/>
								</g>
							</g>
						</g>
						<g>
							<g>
								<g>
									<path class="st5" d="M115.08,68.66c-0.06,0.04-0.72-1-1.87-1.96c-1.14-0.96-2.27-1.42-2.24-1.49
										c0.01-0.06,1.22,0.31,2.39,1.3C114.55,67.5,115.14,68.64,115.08,68.66z"/>
								</g>
							</g>
						</g>
						<g>
							<g>
								<g>
									<path class="st5" d="M121.58,63.66c-0.07,0.02-0.39-1.06-1.14-2.21c-0.74-1.15-1.6-1.87-1.56-1.92
										c0.03-0.05,0.98,0.6,1.75,1.79C121.41,62.5,121.64,63.65,121.58,63.66z"/>
								</g>
							</g>
						</g>
						<g>
							<g>
								<g>
									<path class="st5" d="M132.22,60.92c-0.07,0,0.07-1.17-0.53-2.41c-0.58-1.26-1.56-1.87-1.51-1.93
										c0.01-0.02,0.28,0.09,0.63,0.39c0.36,0.29,0.79,0.79,1.09,1.44c0.3,0.65,0.41,1.3,0.42,1.77
										C132.32,60.65,132.25,60.93,132.22,60.92z"/>
								</g>
							</g>
						</g>
						<g>
							<g>
								<g>
									<path class="st5" d="M139.02,61.3c-0.07-0.01,0.07-0.89-0.14-1.93c-0.2-1.05-0.66-1.8-0.6-1.84
										c0.04-0.04,0.62,0.69,0.83,1.79C139.33,60.42,139.07,61.32,139.02,61.3z"/>
								</g>
							</g>
						</g>
					</g>
				</g>
			</g>
			<path class="st15" d="M135.46,99.19c-0.12,0-5.37-2.06-5.37-2.06s-1.52,3.04,0.32,4.43c1.84,1.4,4.08,0.52,4.44-0.32
				C135.2,100.42,135.46,99.19,135.46,99.19z"/>
			<g>
				<path class="st5" d="M134.28,101.84c0.03,0.02-0.17,0.29-0.69,0.44c-0.51,0.16-1.28,0.21-2.2,0.04l-0.01,0l-0.01,0
					c-0.61-0.2-1.34-0.54-1.81-1.27c-0.46-0.73-0.49-1.7-0.27-2.56c0.13-0.53,0.32-1.01,0.57-1.47l0.11-0.19l0.21,0.08
					c3.17,1.24,5.52,2.26,5.48,2.37c-0.04,0.12-2.47-0.7-5.66-1.9l0.31-0.11c-0.21,0.4-0.39,0.87-0.5,1.34
					c-0.2,0.79-0.17,1.6,0.19,2.19c0.36,0.59,0.97,0.92,1.51,1.13l-0.02,0c0.84,0.2,1.57,0.22,2.04,0.13
					C134.02,101.99,134.25,101.8,134.28,101.84z"/>
			</g>
		</g>
	</g>
</g>
</svg>
