<?xml version="1.0" encoding="utf-8"?>
<!-- Generator: Adobe Illustrator 26.3.0, SVG Export Plug-In . SVG Version: 6.00 Build 0)  -->
<svg version="1.1" id="OBJECTS" xmlns="http://www.w3.org/2000/svg" xmlns:xlink="http://www.w3.org/1999/xlink" x="0px" y="0px"
	 viewBox="0 0 750 500" style="enable-background:new 0 0 750 500;" xml:space="preserve">
<style type="text/css">
	.st0{fill:#EBEBFF;}
	.st1{fill:#D6D7F4;}
	.st2{fill:#3D5AC4;}
	.st3{fill:#5571E9;}
	.st4{fill:#27429C;}
	.st5{fill:#312C76;}
	.st6{fill:#151247;}
	.st7{opacity:0.16;fill:#5571E9;}
	.st8{clip-path:url(#XMLID_00000074401560094654472830000006228185737684234669_);fill:#FFFFFF;}
	.st9{fill:#14103D;}
	.st10{fill:#EB8175;}
	.st11{fill:#231C61;}
	.st12{fill:#E1AD9D;}
	.st13{fill:#C8C6F2;}
	.st14{fill:#D8D7FD;}
	.st15{fill:#091218;}
	.st16{fill:#1B2934;}
	.st17{fill:#FFFFFF;}
	.st18{fill:#E16C5F;}
	.st19{clip-path:url(#XMLID_00000008122027386242178360000010806197647569622696_);fill:#231C61;}
	.st20{fill:#F5D100;}
	.st21{fill:none;stroke:#F1AB00;stroke-width:0.2802;stroke-miterlimit:10;}
	.st22{fill:none;stroke:#FFFFFF;stroke-width:1.1206;stroke-linecap:round;stroke-linejoin:round;stroke-miterlimit:10;}
	.st23{fill:#334FBE;}
	.st24{fill:#4265D1;}
	.st25{clip-path:url(#XMLID_00000018936802353065514590000014192818810436134329_);fill:#231C61;}
	.st26{fill:none;stroke:#F1AB00;stroke-width:0.2834;stroke-miterlimit:10;}
	.st27{fill:none;stroke:#FFFFFF;stroke-width:1.1334;stroke-linecap:round;stroke-linejoin:round;stroke-miterlimit:10;}
	.st28{fill:none;stroke:#3D5AC4;stroke-width:2.6489;stroke-miterlimit:10;}
	.st29{fill:none;stroke:#5571E9;stroke-width:2.6489;stroke-miterlimit:10;}
	.st30{fill:#2F4DAB;}
	.st31{fill:none;stroke:#231C61;stroke-width:2.1624;stroke-miterlimit:10;}
	.st32{fill:none;stroke:#231C61;stroke-width:1.1138;stroke-miterlimit:10;}
	.st33{fill:#373482;}
	.st34{fill:none;stroke:#5571E9;stroke-width:2.6489;stroke-linecap:round;stroke-linejoin:round;stroke-miterlimit:10;}
	.st35{clip-path:url(#XMLID_00000015333298943511126810000009702203879422637186_);fill:#FAFAFA;}
	.st36{fill:#E8C400;}
	.st37{clip-path:url(#XMLID_00000027579419953878007860000015823029998814629816_);fill:#FAFAFA;}
	.st38{fill:none;stroke:#3D5AC4;stroke-width:1.1366;stroke-linecap:round;stroke-linejoin:round;stroke-miterlimit:10;}
</style>
<g>
	<g>
		<g>
			<g>
				<g>
					<path class="st0" d="M553.3,281.23c3.73-12.07,4.6-24.92,1.92-37.27c-4.18-19.32-17.64-42.71-56.48-52.8
						c-73.53-19.11-99.07-74.98-167.85-57.19c0,0-36.91,6.71-54.38,67.79c-17.47,61.08-85.92,62.12-62.36,115.3
						c3.85,8.69,14.23,18.17,29.12,27.13l278.95-0.94C541.5,320.09,547.5,300.04,553.3,281.23z"/>
				</g>
				<g>
					<path class="st1" d="M487.48,237.55h-10.47V226.1c0-5.75-4-10.55-9.37-11.8V200.1h-3.85v13.94
						c-6.18,0.56-11.02,5.74-11.02,12.07v11.79h-10.41v13.13h-0.7v24.41l-18.92-0.14v-29.17h-21.68v21.38h-15.21v20.77h-18.39v54.97
						h61.09v-0.01h13.12v0.01h76.6v-69.32h-30.8L487.48,237.55z"/>
					<polygon class="st1" points="271.52,267.77 271.52,240.44 281.76,240.44 281.76,225.82 285.62,225.82 285.62,240.44 
						295.05,240.44 295.05,267.77 305.64,267.77 305.64,284.14 322.52,284.14 322.52,228.37 357.75,228.37 357.75,343.24 
						334.79,343.24 324.9,343.24 300.01,343.24 288.52,343.24 258.49,343.24 258.49,267.77 					"/>
				</g>
			</g>
			<g>
				<g>
					<g>
						<path class="st2" d="M464.01,342.96l-160.58,0.13c-6.08,0-11.02-4.92-11.02-11l0,0l182.61-0.14l0,0
							C475.01,338.02,470.09,342.96,464.01,342.96z"/>
						<path class="st3" d="M464,339.17l-160.58,0.13c-4.75,0-8.78-3-10.33-7.21l-0.68,0c0,6.08,4.94,11.01,11.02,11l160.58-0.13
							c6.08,0,11.01-4.94,11-11.02l-0.68,0C472.78,336.15,468.75,339.17,464,339.17z"/>
						<path class="st4" d="M394.08,335.69l-20.75,0.02c-2.04,0-3.69-1.65-3.69-3.68l0,0l28.12-0.02l0,0
							C397.77,334.04,396.12,335.69,394.08,335.69z"/>
					</g>
					<g>
						<path class="st3" d="M465.61,331.95l-163.81,0.13l-0.08-98.88c0-5.67,4.59-10.27,10.26-10.28l143.27-0.11
							c5.67,0,10.27,4.59,10.28,10.26L465.61,331.95z"/>
						<rect x="310.29" y="231.41" class="st5" width="146.75" height="92.06"/>
						<rect x="310.32" y="314.67" class="st6" width="146.75" height="8.8"/>
						<rect x="310.25" y="231.41" class="st6" width="146.75" height="4.37"/>
						<g>
							<polygon class="st7" points="359.19,231.43 310.29,280.41 310.32,323.53 310.43,323.53 402.42,231.39 							"/>
							<polygon class="st7" points="329.27,323.52 350.94,323.5 442.93,231.36 421.26,231.38 							"/>
							<polygon class="st7" points="439.81,323.43 457.06,306.15 457.04,273.47 405.26,323.45 							"/>
						</g>
					</g>
				</g>
				<g>
					<defs>
						<rect id="XMLID_8_" x="301.72" y="270.73" width="163.89" height="18.09"/>
					</defs>
					<use xlink:href="#XMLID_8_"  style="overflow:visible;fill:#F5D100;"/>
					<clipPath id="XMLID_00000063600056845155998760000002772682952660980867_">
						<use xlink:href="#XMLID_8_"  style="overflow:visible;"/>
					</clipPath>
					<polygon style="clip-path:url(#XMLID_00000063600056845155998760000002772682952660980867_);fill:#FFFFFF;" points="
						322.17,295.17 308.07,295.17 320.2,267.4 334.31,267.4 					"/>
					<polygon style="clip-path:url(#XMLID_00000063600056845155998760000002772682952660980867_);fill:#FFFFFF;" points="
						352.24,295.17 338.14,295.17 350.28,267.4 364.38,267.4 					"/>
					<polygon style="clip-path:url(#XMLID_00000063600056845155998760000002772682952660980867_);fill:#FFFFFF;" points="
						382.31,295.17 368.21,295.17 380.35,267.4 394.45,267.4 					"/>
					<polygon style="clip-path:url(#XMLID_00000063600056845155998760000002772682952660980867_);fill:#FFFFFF;" points="
						412.38,295.17 398.28,295.17 410.42,267.4 424.52,267.4 					"/>
					<polygon style="clip-path:url(#XMLID_00000063600056845155998760000002772682952660980867_);fill:#FFFFFF;" points="
						442.46,295.17 428.35,295.17 440.49,267.4 454.59,267.4 					"/>
				</g>
			</g>
			<g>
				<g>
					<g>
						<g>
							<g>
								<path class="st9" d="M288.56,239.49l-3.2,0.12l-1.88-0.59c-0.86-0.27-1.8,0.05-2.31,0.8l-0.24,0.35l9.37,5.17l1.81-3.88
									L288.56,239.49z"/>
								<path class="st9" d="M290.31,245.43l-9.44-5.21l0.33-0.6c0.07-0.12,0.21-0.16,0.33-0.1l9.23,5.1L290.31,245.43"/>
							</g>
							<polygon class="st10" points="292.12,241.46 294.59,237.18 292.12,232.76 288.56,239.49 							"/>
						</g>
						<path class="st9" d="M311.51,216.83c0,0-13.35-3.83-14.63-0.23c-1.29,3.6-9.07,19.55-9.07,19.55l5.81,3.03l8.72-15.14
							l11.73-1.02L311.51,216.83z"/>
					</g>
					<g>
						<g>
							<g>
								<path class="st9" d="M300.66,244.35l-2.61,1.66l-1.93,0.39c-0.89,0.18-1.55,0.92-1.63,1.82l-0.04,0.42l10.7-0.02l-0.3-4.28
									L300.66,244.35z"/>
								<path class="st9" d="M305.19,248.7l-10.78,0.02l0-0.68c0-0.13,0.11-0.24,0.24-0.24l10.54-0.02L305.19,248.7"/>
							</g>
							<polygon class="st10" points="304.85,244.36 305.19,237.18 300.93,236.7 300.66,244.35 							"/>
						</g>
						<path class="st11" d="M313.31,216.22l-12.58,0.57c0,0-1.81,0.1-1.69,4.33c0.12,4.24,0.11,21.28,0.11,21.28l6.04,0.21
							l1.16-17.85l12.59-0.16c2.65-0.03,5.12-1.55,6.17-3.99c0.4-0.93,0.59-1.98,0.35-3.08L313.31,216.22z"/>
					</g>
				</g>
				<g>
					<g>
						<g>
							<path class="st12" d="M301.37,213.68c0,1.19-0.81,1.37-2,1.38c-1.19,0-2.32-0.17-2.32-1.37c0-1.19,0.96-2.16,2.16-2.17
								C300.4,211.52,301.37,212.49,301.37,213.68z"/>
							<path class="st12" d="M302.89,214.9l-2.5,0.01c-0.65,0-1.19-0.53-1.19-1.18l0,0c0-0.65,0.53-1.19,1.18-1.19l2.5-0.01
								c0.65,0,1.19,0.53,1.19,1.18l0,0C304.07,214.37,303.54,214.9,302.89,214.9z"/>
						</g>
						<path class="st13" d="M302.79,215.16l-0.83-4.09l10.27-1.12l2.05-12c0.21-1.09,1.79-2.44,2.88-2.24l-0.31-0.09
							c1.09,0.21,2.09,1.47,1.89,2.56l-2,14.36c-0.15,0.77-0.73,1.39-1.5,1.58L302.79,215.16z"/>
					</g>
					<path class="st14" d="M323.31,195.98c0.21,0.02,0.42,0.07,0.62,0.14l0.1,0.04c1.76,0.69,2.96,2.58,3.04,4.35l-1.61,17.03
						c-10.64-0.09-12.15-1.32-12.15-1.32l0.85-17.42c0.13-1.64,0.88-3.19,2.75-3.34l0,0L323.31,195.98z"/>
					<g>
						<g>
							<g>
								<path class="st10" d="M311.59,215.02c0.08,1.19-0.71,1.42-1.9,1.51c-1.19,0.08-2.33-0.02-2.41-1.21
									c-0.08-1.19,0.82-2.22,2.01-2.3C310.48,212.93,311.51,213.83,311.59,215.02z"/>
								<path class="st10" d="M313.19,216.14l-2.49,0.17c-0.65,0.04-1.22-0.45-1.27-1.1l0,0c-0.04-0.65,0.45-1.22,1.1-1.27
									l2.49-0.17c0.65-0.04,1.22,0.45,1.26,1.1l0,0C314.33,215.52,313.84,216.09,313.19,216.14z"/>
							</g>
							<path class="st14" d="M313.11,216.4l-1.1-4.02l11.19-1.8l-0.64-10.41c0.13-1.1,1.34-2.34,2.44-2.21l0,0
								c1.1,0.13,2.19,1.33,2.05,2.43l0.81,12.47c-0.1,0.78-0.64,1.44-1.39,1.67L313.11,216.4z"/>
						</g>
					</g>
					<g>
						<path class="st15" d="M293.74,202.57l12.21,1.15c0.4,0.04,0.72,0.35,0.77,0.75l1.28,11c0.06,0.54-0.39,1-0.93,0.95
							l-12.42-1.17c-0.41-0.04-0.73-0.36-0.77-0.77l-1.08-10.99C292.76,202.97,293.21,202.52,293.74,202.57z"/>
						<path class="st16" d="M293.04,202.5l12.21,1.15c0.4,0.04,0.72,0.35,0.77,0.75l1.28,11.01c0.06,0.54-0.39,1-0.93,0.95
							l-12.42-1.17c-0.41-0.04-0.73-0.36-0.77-0.77l-1.08-10.99C292.05,202.9,292.5,202.45,293.04,202.5z"/>
						<path class="st15" d="M307.66,215.55l8.34,0.79c0.25,0.02,0.44,0.25,0.42,0.5l0,0c-0.02,0.25-0.25,0.44-0.5,0.42l-8.85-0.8
							L307.66,215.55z"/>
						<path class="st17" d="M300.04,209.18c-0.07,0.73-0.72,1.27-1.46,1.21c-0.73-0.07-1.27-0.72-1.21-1.46
							c0.07-0.73,0.72-1.27,1.46-1.21C299.57,207.79,300.11,208.44,300.04,209.18z"/>
					</g>
					<polygon class="st13" points="322.17,202.57 322.45,210.39 312,212.37 321.21,209.5 					"/>
				</g>
				<g>
					<g>
						<path class="st10" d="M316.63,194.94l0.7,1.87c0.25,0.68,0.88,1.14,1.6,1.19l0,0c1.37,0.09,2.35-1.29,1.81-2.55l-1.22-2.88
							L316.63,194.94z"/>
						<path class="st18" d="M317.25,196.61c0,0,3.44-0.65,2.93-3.66c-0.51-3.01-3.74-0.66-3.74-0.66l0.32,3L317.25,196.61z"/>
						<g>
							<g>
								<defs>
									<path id="XMLID_1_" d="M311.95,187.61c-1.26,2.7-0.1,5.91,2.6,7.17c2.7,1.26,5.91,0.1,7.17-2.6c1.26-2.7,0.1-5.91-2.6-7.17
										C316.42,183.74,313.21,184.91,311.95,187.61z"/>
								</defs>
								<use xlink:href="#XMLID_1_"  style="overflow:visible;fill:#EB8175;"/>
								<clipPath id="XMLID_00000156576344808627912090000000007675666429766033_">
									<use xlink:href="#XMLID_1_"  style="overflow:visible;"/>
								</clipPath>
								<path style="clip-path:url(#XMLID_00000156576344808627912090000000007675666429766033_);fill:#231C61;" d="M318.84,190.96
									c0,0-0.85,4.32,2.33,4.42c3.18,0.09,1.45-8.11,1.45-8.11l-5.03-5.06l-7.69,1.89l0.76,4.97c0,0,1.22,0.65,7.84-0.44
									L318.84,190.96z"/>
								<polygon style="clip-path:url(#XMLID_00000156576344808627912090000000007675666429766033_);fill:#231C61;" points="
									315.7,187.57 318.22,191.27 320.4,188.86 								"/>
							</g>
							<path class="st10" d="M317.99,189.95c-0.36,0.76-0.03,1.67,0.74,2.03c0.76,0.36,1.67,0.03,2.03-0.74
								c0.36-0.76,0.03-1.67-0.74-2.03C319.25,188.86,318.34,189.19,317.99,189.95z"/>
						</g>
					</g>
					<g>
						<path class="st20" d="M310.9,188.99c0,0-1.17-4.25,1.59-6.88c2.27-2.17,5.99-2.03,8.01,0.38c0.95,1.13,1.71,2.84,1.78,5.4
							L310.9,188.99z"/>
						<path class="st21" d="M311.48,188.92l-0.03-2.65c-0.01-0.67,0.52-1.23,1.19-1.26l0,0c0.66-0.03,1.24,0.46,1.3,1.12l0.27,2.65"
							/>
						<line class="st22" x1="322.28" y1="187.89" x2="309.9" y2="189.07"/>
					</g>
				</g>
			</g>
			<g>
				<g>
					<g>
						<polygon class="st10" points="435,331.34 437.77,334.03 434.61,335.73 431.9,333.08 						"/>
						<path class="st9" d="M415.46,311.26l1.85,8.21c0.37,1.64,1.09,3.22,2.11,4.67l12.21,10.97l4.83-3.93l-10.42-11.04l-3.82-14.56
							L415.46,311.26z"/>
						<g>
							<path class="st9" d="M434.52,335.65l-1,3.19l-1.14,1.59c-0.53,0.73-0.51,1.72,0.05,2.43l0.26,0.33l7.79-7.26l-3.11-2.91
								L434.52,335.65z"/>
							<polyline class="st9" points="440.55,335.96 432.7,343.27 432.07,342.6 439.92,335.28 440.55,335.96 							"/>
						</g>
					</g>
					<g>
						<polygon class="st10" points="408.3,336.33 407.26,339.81 403.69,338.85 404.73,335.44 						"/>
						<path class="st11" d="M413.1,302.1l-10.01,33.85l6.32,1.58l5.64-16.97l6.92-11.1c0.35-0.5,0.7-1.01,0.99-1.55
							c0.55-1.02,0.8-2.12,0.79-3.23l-0.02-2.2L413.1,302.1z"/>
						<g>
							<path class="st9" d="M403.9,338.52l-3.16,1.17l-1.97,0.07c-0.91,0.03-1.68,0.66-1.91,1.53l-0.11,0.41l10.58,1.74l0.41-4.28
								L403.9,338.52z"/>
							<polyline class="st9" points="407.37,343.51 396.7,341.76 396.85,340.84 407.52,342.6 407.37,343.51 							"/>
						</g>
					</g>
				</g>
				<g>
					<g>
						<g>
							<polygon class="st23" points="399.12,267.72 395.07,274.03 397.01,275.43 401.2,268.75 							"/>
							<path class="st24" d="M393.87,257.26c0,0,1.87,7.83,11.35,10.91c0.27,0.09,0.48,0.32,0.52,0.6c0.12,0.91,0.12,2.87-1.97,3.45
								c-0.2,0.05-0.42,0.01-0.59-0.09c-1.45-0.91-8.58-5.07-15.5-3.87L393.87,257.26z"/>
							<path class="st23" d="M393.87,257.26c0,0-1.74,7.81-6.2,10.99C387.67,268.25,388.3,261.4,393.87,257.26z"/>
						</g>
						<g>
							<g>
								<g>
									<path class="st10" d="M393.75,273.62c-0.29,1.44,0.89,3.19,2.33,3.48c1.44,0.29,2.84-0.63,3.13-2.07
										c0.29-1.44-0.89-3.19-2.33-3.48C395.45,271.26,394.05,272.19,393.75,273.62z"/>
								</g>
								<polyline class="st10" points="401.36,277.84 398.55,274.91 396.72,277.17 401.36,280.57 								"/>
							</g>
							<path class="st13" d="M400.91,275.13l-2.97,4.41l8.11,7.42c0.49,0.14,1.01,0.19,1.52,0.15l10.71-1.39
								c1.69-0.08,2.99-1.51,2.91-3.2l0,0c-0.08-1.69,0.24-4.13-1.44-4.05l-12.44,2.56L400.91,275.13z"/>
						</g>
					</g>
					<g>
						<g>
							<path class="st14" d="M424.93,285.25c0.29-2.34-0.78-4.65-2.76-5.93c-0.89-0.57-1.78-0.96-2.41-0.85
								c-2.14,0.36-4.33,1.33-5.27,4.21c-1.6,4.9-2.05,19.39-2.05,19.39l11.48,0.39L424.93,285.25z"/>
						</g>
						<polygon class="st13" points="420.69,285.61 424.14,298.3 424.84,287.54 						"/>
					</g>
					<g>
						<g>
							<g>
								<path class="st10" d="M434.76,310.64c1.08-0.99,1.16-3.1,0.18-4.18c-0.99-1.09-2.67-1.16-3.75-0.18
									c-1.09,0.99-1.16,3.1-0.18,4.18C431.99,311.55,433.67,311.63,434.76,310.64z"/>
							</g>
							<polyline class="st10" points="429.55,301.61 431.64,306.77 434.45,306.03 432.72,300.55 							"/>
						</g>
						<path class="st14" d="M429.68,305.59l5.75-1.26l-3.9-13.33c-0.14-0.49-0.38-0.96-0.69-1.37l-7.16-8.91
							c-0.97-1.39-2.6-1.14-3.98-0.17l0,0c-1.39,0.97-1.72,2.87-0.76,4.26l6.89,8.29L429.68,305.59z"/>
					</g>
				</g>
				<g>
					<g>
						<path class="st10" d="M417.07,276.73l0.22,2.01c0.08,0.73,0.57,1.34,1.27,1.56l0,0c1.32,0.43,2.62-0.68,2.41-2.05l-0.48-3.13
							L417.07,276.73z"/>
						<path class="st18" d="M417.26,278.52c0,0,3.54-0.12,3.8-3.19c0.25-3.07-3.51-1.24-3.51-1.24l-0.44,3.02L417.26,278.52z"/>
						<g>
							<g>
								<defs>
									<path id="XMLID_11_" d="M414.3,268.38c-1.91,2.33-1.57,5.77,0.76,7.68c2.33,1.91,5.77,1.57,7.68-0.76
										c1.91-2.33,1.57-5.77-0.76-7.68C419.65,265.7,416.21,266.05,414.3,268.38z"/>
								</defs>
								<use xlink:href="#XMLID_11_"  style="overflow:visible;fill:#EB8175;"/>
								<clipPath id="XMLID_00000001630746279030267920000017501241798287920550_">
									<use xlink:href="#XMLID_11_"  style="overflow:visible;"/>
								</clipPath>
								<path style="clip-path:url(#XMLID_00000001630746279030267920000017501241798287920550_);fill:#231C61;" d="M420.22,273.38
									c0,0-1.91,4.03,1.18,4.91c3.09,0.88,3.44-7.59,3.44-7.59l-3.67-6.21l-8.01-0.06l-0.49,5.07c0,0,1.04,0.94,7.79,1.52
									L420.22,273.38z"/>
								<polygon style="clip-path:url(#XMLID_00000001630746279030267920000017501241798287920550_);fill:#231C61;" points="
									417.98,269.28 419.54,273.53 422.28,271.71 								"/>
							</g>
							<path class="st10" d="M419.64,272.18c-0.54,0.66-0.44,1.63,0.22,2.17c0.66,0.54,1.63,0.44,2.17-0.22
								c0.54-0.66,0.44-1.63-0.22-2.17C421.15,271.43,420.18,271.52,419.64,272.18z"/>
						</g>
					</g>
					<g>
						<path class="st20" d="M412.9,269.94c0,0-0.27-4.45,3.01-6.48c2.7-1.67,6.35-0.76,7.85,2.05c0.7,1.32,1.1,3.16,0.64,5.71
							L412.9,269.94z"/>
						<path class="st26" d="M413.49,269.99l0.52-2.63c0.13-0.67,0.77-1.11,1.44-1l0,0c0.66,0.11,1.13,0.72,1.05,1.38l-0.29,2.68"/>
						<line class="st27" x1="424.39" y1="271.22" x2="411.89" y2="269.81"/>
					</g>
				</g>
			</g>
			<g>
				<g>
					<line class="st28" x1="500.69" y1="303.57" x2="487.75" y2="316.32"/>
					<line class="st28" x1="500.69" y1="289.95" x2="487.75" y2="302.7"/>
					<line class="st28" x1="500.69" y1="276.32" x2="487.75" y2="289.07"/>
					<line class="st28" x1="500.69" y1="262.7" x2="487.75" y2="275.45"/>
					<line class="st28" x1="500.69" y1="249.07" x2="487.75" y2="261.82"/>
					<line class="st28" x1="500.69" y1="235.44" x2="487.75" y2="248.2"/>
					<line class="st28" x1="500.69" y1="221.82" x2="487.75" y2="234.57"/>
					<line class="st28" x1="500.69" y1="208.19" x2="487.75" y2="220.94"/>
					<line class="st28" x1="500.69" y1="194.57" x2="487.75" y2="207.32"/>
					<line class="st28" x1="500.69" y1="180.94" x2="487.75" y2="193.69"/>
					<line class="st28" x1="500.69" y1="167.31" x2="487.75" y2="180.07"/>
					<line class="st28" x1="487.75" y1="302.7" x2="500.69" y2="302.7"/>
					<line class="st28" x1="487.75" y1="289.07" x2="500.69" y2="289.07"/>
					<line class="st28" x1="487.75" y1="275.45" x2="500.69" y2="275.45"/>
					<line class="st28" x1="487.75" y1="261.82" x2="500.69" y2="261.82"/>
					<line class="st28" x1="487.75" y1="248.2" x2="500.69" y2="248.2"/>
					<line class="st28" x1="487.75" y1="234.57" x2="500.69" y2="234.57"/>
					<line class="st28" x1="487.75" y1="220.94" x2="500.69" y2="220.94"/>
					<line class="st28" x1="487.75" y1="207.32" x2="500.69" y2="207.32"/>
					<line class="st28" x1="487.75" y1="193.69" x2="500.69" y2="193.69"/>
					<line class="st28" x1="487.75" y1="180.07" x2="500.69" y2="180.07"/>
					<line class="st29" x1="487.75" y1="320.02" x2="487.75" y2="169.49"/>
					<line class="st29" x1="500.69" y1="320.02" x2="500.69" y2="169.49"/>
					<rect x="481.09" y="316.32" class="st11" width="25.76" height="26.76"/>
				</g>
				<g>
					<g>
						<path class="st2" d="M500.72,169.49h-13.46c-2.38,0-4.3-1.93-4.3-4.3v-16.89c0-2.38,1.93-4.3,4.3-4.3h13.46
							c2.38,0,4.3,1.93,4.3,4.3v16.89C505.02,167.57,503.1,169.49,500.72,169.49z"/>
						<path class="st30" d="M493.64,162.08h-8.67v-11.92h8.67c1.8,0,3.26,1.46,3.26,3.26v5.41
							C496.89,160.62,495.44,162.08,493.64,162.08z"/>
					</g>
					<g>
						<g>
							<line class="st31" x1="402.42" y1="170.88" x2="412.77" y2="200.94"/>
							<line class="st31" x1="395.22" y1="167.31" x2="375.05" y2="194.57"/>
							<g>
								<path class="st20" d="M401.25,180.69l20.85,27.26c2.29,3,1.72,7.29-1.28,9.59l-27.26,20.85c-3,2.29-7.29,1.72-9.59-1.28
									l-20.85-27.26c-2.29-3-1.72-7.29,1.28-9.59l27.26-20.85C394.66,177.11,398.95,177.69,401.25,180.69z"/>
								<path class="st32" d="M399.68,185.81l17.06,22.31c1.88,2.45,1.41,5.97-1.05,7.84l-22.31,17.06
									c-2.45,1.88-5.97,1.41-7.84-1.05l-17.06-22.31c-1.88-2.45-1.41-5.97,1.05-7.84l22.31-17.06
									C394.29,182.89,397.8,183.36,399.68,185.81z"/>
								<g>
									<path class="st11" d="M394.38,219.07c-0.54,4.05-6.68,3.23-6.14-0.82C388.78,214.17,394.92,214.99,394.38,219.07z
										 M397.02,196.46l-2.41,17.01l-5.17-0.69c0.76-5.72,1.4-11.29,2.17-17.05L397.02,196.46z"/>
								</g>
							</g>
						</g>
						<g>
							<g>
								<circle class="st11" cx="399.47" cy="164.77" r="8.65"/>
								<path class="st33" d="M405.58,164.77c0,3.38-2.74,6.12-6.12,6.12c-3.38,0-6.12-2.74-6.12-6.12c0-3.38,2.74-6.12,6.12-6.12
									C402.85,158.65,405.58,161.39,405.58,164.77z"/>
							</g>
							<g>
								<line class="st28" x1="433.39" y1="125.67" x2="433.39" y2="144.01"/>
								<line class="st28" x1="416.95" y1="125.67" x2="416.95" y2="144.01"/>
								<line class="st28" x1="449.78" y1="125.67" x2="449.78" y2="144.01"/>
								<line class="st28" x1="467.98" y1="125.67" x2="467.98" y2="144.01"/>
								<line class="st28" x1="484.97" y1="125.67" x2="484.97" y2="144.01"/>
								<line class="st28" x1="502.58" y1="125.67" x2="502.58" y2="144.01"/>
								<line class="st28" x1="519.88" y1="125.67" x2="519.88" y2="144.01"/>
								<line class="st28" x1="416.09" y1="144.01" x2="433.39" y2="125.67"/>
								<line class="st28" x1="433.39" y1="144.01" x2="450.69" y2="125.67"/>
								<line class="st28" x1="450.69" y1="144.01" x2="467.98" y2="125.67"/>
								<line class="st28" x1="467.98" y1="144.01" x2="485.28" y2="125.67"/>
								<line class="st28" x1="485.28" y1="144.01" x2="502.58" y2="125.67"/>
								<line class="st28" x1="502.58" y1="144.01" x2="519.88" y2="125.67"/>
								<polygon class="st34" points="399.47,144.01 540.51,144.01 521.52,125.67 414.06,125.67 								"/>
								<line class="st34" x1="399.47" y1="144.01" x2="399.47" y2="164.77"/>
							</g>
						</g>
					</g>
				</g>
			</g>
			<g>
				<g>
					<g>
						<defs>
							<path id="XMLID_4_" d="M324.9,340.61l9.87-25.52c0.47-1.22,2.19-1.22,2.66,0l9.87,25.52H324.9z"/>
						</defs>
						<use xlink:href="#XMLID_4_"  style="overflow:visible;fill:#F5D100;"/>
						<clipPath id="XMLID_00000145058663412729321820000013588030795628350595_">
							<use xlink:href="#XMLID_4_"  style="overflow:visible;"/>
						</clipPath>
						
							<rect x="327.19" y="320.58" style="clip-path:url(#XMLID_00000145058663412729321820000013588030795628350595_);fill:#FAFAFA;" width="17.53" height="5.42"/>
						
							<rect x="326.23" y="330.81" style="clip-path:url(#XMLID_00000145058663412729321820000013588030795628350595_);fill:#FAFAFA;" width="19.83" height="5.42"/>
					</g>
					<rect x="323.1" y="340.61" class="st36" width="26.13" height="2.15"/>
				</g>
				<g>
					<g>
						<defs>
							<path id="XMLID_3_" d="M468.26,340.69l9.87-25.52c0.47-1.22,2.19-1.22,2.66,0l9.87,25.52H468.26z"/>
						</defs>
						<use xlink:href="#XMLID_3_"  style="overflow:visible;fill:#F5D100;"/>
						<clipPath id="XMLID_00000110462723968492409940000017889140428664928689_">
							<use xlink:href="#XMLID_3_"  style="overflow:visible;"/>
						</clipPath>
						
							<rect x="470.55" y="320.66" style="clip-path:url(#XMLID_00000110462723968492409940000017889140428664928689_);fill:#FAFAFA;" width="17.53" height="5.42"/>
						
							<rect x="469.59" y="330.89" style="clip-path:url(#XMLID_00000110462723968492409940000017889140428664928689_);fill:#FAFAFA;" width="19.83" height="5.42"/>
					</g>
					<rect x="466.46" y="340.69" class="st36" width="26.13" height="2.15"/>
				</g>
			</g>
			<g>
				<g>
					
						<ellipse transform="matrix(0.1473 -0.9891 0.9891 0.1473 -63.3925 522.3914)" class="st3" cx="271.28" cy="297.96" rx="20.5" ry="20.5"/>
					<g>
						<line class="st38" x1="271.28" y1="290.65" x2="271.28" y2="342.76"/>
						<line class="st38" x1="263.31" y1="291.72" x2="271.28" y2="300.66"/>
						<path class="st38" d="M278.35,300.16c-0.57,0.57-7.07,7.34-7.07,7.34"/>
					</g>
				</g>
				<line class="st38" x1="209.57" y1="343.26" x2="553.47" y2="343.26"/>
			</g>
		</g>
	</g>
</g>
</svg>
