<?xml version="1.0" encoding="utf-8"?>
<!-- Generator: Adobe Illustrator 26.3.0, SVG Export Plug-In . SVG Version: 6.00 Build 0)  -->
<svg version="1.1" id="OBJECTS" xmlns="http://www.w3.org/2000/svg" xmlns:xlink="http://www.w3.org/1999/xlink" x="0px" y="0px"
	 viewBox="0 0 371.36 264.6" style="enable-background:new 0 0 371.36 264.6;" xml:space="preserve">
<style type="text/css">
	.st0{fill:#EBEBFF;}
	.st1{fill:#D6D7F4;}
	.st2{fill:#3D5AC4;}
	.st3{fill:#5571E9;}
	.st4{fill:#27429C;}
	.st5{fill:#312C76;}
	.st6{fill:#151247;}
	.st7{opacity:0.16;fill:#5571E9;}
	.st8{clip-path:url(#XMLID_00000054980817259635236550000004986706238097034679_);fill:#FFFFFF;}
	.st9{fill:#14103D;}
	.st10{fill:#EB8175;}
	.st11{fill:#231C61;}
	.st12{fill:#E1AD9D;}
	.st13{fill:#C8C6F2;}
	.st14{fill:#D8D7FD;}
	.st15{fill:#091218;}
	.st16{fill:#1B2934;}
	.st17{fill:#FFFFFF;}
	.st18{fill:#E16C5F;}
	.st19{clip-path:url(#XMLID_00000103232366777462034770000002050576807772829083_);fill:#231C61;}
	.st20{fill:#F5D100;}
	.st21{fill:none;stroke:#F1AB00;stroke-width:0.2802;stroke-miterlimit:10;}
	.st22{fill:none;stroke:#FFFFFF;stroke-width:1.1206;stroke-linecap:round;stroke-linejoin:round;stroke-miterlimit:10;}
	.st23{fill:#334FBE;}
	.st24{fill:#4265D1;}
	.st25{clip-path:url(#XMLID_00000144327149362642967110000012752821760744821691_);fill:#231C61;}
	.st26{fill:none;stroke:#F1AB00;stroke-width:0.2834;stroke-miterlimit:10;}
	.st27{fill:none;stroke:#FFFFFF;stroke-width:1.1334;stroke-linecap:round;stroke-linejoin:round;stroke-miterlimit:10;}
	.st28{fill:none;stroke:#3D5AC4;stroke-width:2.6489;stroke-miterlimit:10;}
	.st29{fill:none;stroke:#5571E9;stroke-width:2.6489;stroke-miterlimit:10;}
	.st30{fill:#2F4DAB;}
	.st31{fill:none;stroke:#231C61;stroke-width:2.1624;stroke-miterlimit:10;}
	.st32{fill:none;stroke:#231C61;stroke-width:1.1138;stroke-miterlimit:10;}
	.st33{fill:#373482;}
	.st34{fill:none;stroke:#5571E9;stroke-width:2.6489;stroke-linecap:round;stroke-linejoin:round;stroke-miterlimit:10;}
	.st35{clip-path:url(#XMLID_00000045607367743279064760000017566340304334963625_);fill:#FAFAFA;}
	.st36{fill:#E8C400;}
	.st37{clip-path:url(#XMLID_00000024694268306244408870000000251997545485913255_);fill:#FAFAFA;}
	.st38{fill:none;stroke:#3D5AC4;stroke-width:1.1366;stroke-linecap:round;stroke-linejoin:round;stroke-miterlimit:10;}
</style>
<g>
	<g>
		<g>
			<g>
				<g>
					<path class="st0" d="M352.55,177.37c3.73-12.07,4.6-24.92,1.92-37.27c-4.18-19.32-17.64-42.71-56.48-52.8
						c-73.53-19.11-99.07-74.98-167.85-57.19c0,0-36.91,6.71-54.38,67.79c-17.47,61.08-85.92,62.12-62.36,115.3
						c3.85,8.69,14.23,18.18,29.12,27.13l278.95-0.94C340.75,216.22,346.75,196.17,352.55,177.37z"/>
				</g>
				<g>
					<path class="st1" d="M286.73,133.69h-10.47v-11.45c0-5.75-4-10.55-9.37-11.8V96.23h-3.85v13.94
						c-6.18,0.56-11.02,5.74-11.02,12.07v11.79h-10.41v13.13h-0.7v24.41l-18.92-0.14v-29.17H200.3v21.38h-15.21v20.77H166.7v54.97
						h61.09v-0.01h13.12v0.01h76.6v-69.32h-30.8L286.73,133.69z"/>
					<polygon class="st1" points="70.77,163.9 70.77,136.57 81.01,136.57 81.01,121.96 84.86,121.96 84.86,136.57 94.3,136.57 
						94.3,163.9 104.89,163.9 104.89,180.27 121.77,180.27 121.77,124.5 157,124.5 157,239.38 134.04,239.38 124.15,239.38 
						99.26,239.38 87.77,239.38 57.74,239.38 57.74,163.9 					"/>
				</g>
			</g>
			<g>
				<g>
					<g>
						<path class="st2" d="M263.25,239.1l-160.58,0.13c-6.08,0-11.02-4.92-11.02-11l0,0l182.61-0.14l0,0
							C274.26,234.16,269.34,239.09,263.25,239.1z"/>
						<path class="st3" d="M263.25,235.31l-160.58,0.13c-4.75,0-8.78-3-10.33-7.21l-0.68,0c0,6.08,4.94,11.01,11.02,11l160.58-0.13
							c6.08,0,11.01-4.94,11-11.02l-0.68,0C272.03,232.29,268,235.3,263.25,235.31z"/>
						<path class="st4" d="M193.33,231.83l-20.75,0.02c-2.04,0-3.69-1.65-3.69-3.68l0,0l28.12-0.02l0,0
							C197.02,230.17,195.37,231.82,193.33,231.83z"/>
					</g>
					<g>
						<path class="st3" d="M264.86,228.08l-163.81,0.13l-0.08-98.88c0-5.67,4.59-10.27,10.26-10.28l143.27-0.11
							c5.67,0,10.27,4.59,10.28,10.26L264.86,228.08z"/>
						<rect x="109.54" y="127.54" class="st5" width="146.75" height="92.06"/>
						<rect x="109.57" y="210.81" class="st6" width="146.75" height="8.8"/>
						<rect x="109.5" y="127.54" class="st6" width="146.75" height="4.37"/>
						<g>
							<polygon class="st7" points="158.44,127.56 109.54,176.54 109.57,219.66 109.68,219.66 201.67,127.53 							"/>
							<polygon class="st7" points="128.52,219.65 150.19,219.63 242.18,127.5 220.51,127.52 							"/>
							<polygon class="st7" points="239.06,219.56 256.31,202.29 256.28,169.6 204.51,219.58 							"/>
						</g>
					</g>
				</g>
				<g>
					<defs>
						<rect id="XMLID_8_" x="100.97" y="166.87" width="163.89" height="18.09"/>
					</defs>
					<use xlink:href="#XMLID_8_"  style="overflow:visible;fill:#F5D100;"/>
					<clipPath id="XMLID_00000027580245715926505520000016954799439779663265_">
						<use xlink:href="#XMLID_8_"  style="overflow:visible;"/>
					</clipPath>
					<polygon style="clip-path:url(#XMLID_00000027580245715926505520000016954799439779663265_);fill:#FFFFFF;" points="
						121.42,191.3 107.31,191.3 119.45,163.54 133.55,163.54 					"/>
					<polygon style="clip-path:url(#XMLID_00000027580245715926505520000016954799439779663265_);fill:#FFFFFF;" points="
						151.49,191.3 137.39,191.3 149.52,163.54 163.63,163.54 					"/>
					<polygon style="clip-path:url(#XMLID_00000027580245715926505520000016954799439779663265_);fill:#FFFFFF;" points="
						181.56,191.3 167.46,191.3 179.6,163.54 193.7,163.54 					"/>
					<polygon style="clip-path:url(#XMLID_00000027580245715926505520000016954799439779663265_);fill:#FFFFFF;" points="
						211.63,191.3 197.53,191.3 209.67,163.54 223.77,163.54 					"/>
					<polygon style="clip-path:url(#XMLID_00000027580245715926505520000016954799439779663265_);fill:#FFFFFF;" points="
						241.7,191.3 227.6,191.3 239.74,163.54 253.84,163.54 					"/>
				</g>
			</g>
			<g>
				<g>
					<g>
						<g>
							<g>
								<path class="st9" d="M87.81,135.63l-3.2,0.12l-1.88-0.59c-0.86-0.27-1.8,0.05-2.31,0.8l-0.24,0.35l9.37,5.17l1.81-3.88
									L87.81,135.63z"/>
								<path class="st9" d="M89.56,141.57l-9.44-5.21l0.33-0.6c0.07-0.12,0.21-0.16,0.33-0.1l9.23,5.1L89.56,141.57"/>
							</g>
							<polygon class="st10" points="91.37,137.6 93.84,133.32 91.37,128.9 87.81,135.63 							"/>
						</g>
						<path class="st9" d="M110.75,112.97c0,0-13.35-3.83-14.63-0.23c-1.29,3.6-9.07,19.55-9.07,19.55l5.81,3.03l8.72-15.14
							l11.73-1.02L110.75,112.97z"/>
					</g>
					<g>
						<g>
							<g>
								<path class="st9" d="M99.9,140.49l-2.61,1.66l-1.93,0.39c-0.89,0.18-1.55,0.92-1.63,1.82l-0.04,0.42l10.7-0.02l-0.3-4.28
									L99.9,140.49z"/>
								<path class="st9" d="M104.44,144.84l-10.78,0.02l0-0.68c0-0.13,0.11-0.24,0.24-0.24l10.54-0.02L104.44,144.84"/>
							</g>
							<polygon class="st10" points="104.1,140.49 104.44,133.32 100.18,132.84 99.9,140.49 							"/>
						</g>
						<path class="st11" d="M112.56,112.36l-12.58,0.57c0,0-1.81,0.1-1.69,4.33c0.12,4.24,0.11,21.28,0.11,21.28l6.04,0.21
							l1.16-17.85l12.59-0.16c2.65-0.03,5.12-1.55,6.17-3.99c0.4-0.93,0.59-1.98,0.35-3.08L112.56,112.36z"/>
					</g>
				</g>
				<g>
					<g>
						<g>
							<path class="st12" d="M100.62,109.82c0,1.19-0.81,1.37-2,1.38c-1.19,0-2.32-0.17-2.32-1.37c0-1.19,0.96-2.16,2.16-2.17
								C99.65,107.66,100.62,108.62,100.62,109.82z"/>
							<path class="st12" d="M102.14,111.04l-2.5,0.01c-0.65,0-1.19-0.53-1.19-1.18l0,0c0-0.65,0.53-1.19,1.18-1.19l2.5-0.01
								c0.65,0,1.19,0.53,1.19,1.18l0,0C103.32,110.5,102.79,111.04,102.14,111.04z"/>
						</g>
						<path class="st13" d="M102.04,111.29l-0.83-4.09l10.27-1.12l2.05-12c0.21-1.09,1.79-2.44,2.88-2.24l-0.31-0.09
							c1.09,0.21,2.09,1.47,1.89,2.56l-2,14.36c-0.15,0.77-0.73,1.39-1.5,1.58L102.04,111.29z"/>
					</g>
					<path class="st14" d="M122.56,92.11c0.21,0.02,0.42,0.07,0.62,0.14l0.1,0.04c1.76,0.69,2.96,2.58,3.04,4.35l-1.61,17.03
						c-10.64-0.09-12.15-1.32-12.15-1.32l0.85-17.42c0.13-1.64,0.88-3.19,2.75-3.34l0,0L122.56,92.11z"/>
					<g>
						<g>
							<g>
								<path class="st10" d="M110.84,111.16c0.08,1.19-0.71,1.42-1.9,1.51c-1.19,0.08-2.33-0.02-2.41-1.21
									c-0.08-1.19,0.82-2.22,2.01-2.3C109.72,109.07,110.76,109.97,110.84,111.16z"/>
								<path class="st10" d="M112.43,112.27l-2.49,0.17c-0.65,0.04-1.22-0.45-1.27-1.1l0,0c-0.04-0.65,0.45-1.22,1.1-1.27
									l2.49-0.17c0.65-0.04,1.22,0.45,1.26,1.1l0,0C113.58,111.66,113.08,112.23,112.43,112.27z"/>
							</g>
							<path class="st14" d="M112.35,112.53l-1.1-4.02l11.19-1.8l-0.64-10.41c0.13-1.1,1.34-2.34,2.44-2.21l0,0
								c1.1,0.13,2.19,1.33,2.05,2.43l0.81,12.47c-0.1,0.78-0.64,1.44-1.39,1.67L112.35,112.53z"/>
						</g>
					</g>
					<g>
						<path class="st15" d="M92.99,98.71l12.21,1.15c0.4,0.04,0.72,0.35,0.77,0.75l1.28,11c0.06,0.54-0.39,1-0.93,0.95l-12.42-1.17
							c-0.41-0.04-0.73-0.36-0.77-0.77l-1.08-10.99C92,99.1,92.45,98.65,92.99,98.71z"/>
						<path class="st16" d="M92.28,98.64l12.21,1.15c0.4,0.04,0.72,0.35,0.77,0.75l1.28,11.01c0.06,0.54-0.39,1-0.93,0.95
							l-12.42-1.17c-0.41-0.04-0.73-0.36-0.77-0.77l-1.08-10.99C91.3,99.04,91.75,98.59,92.28,98.64z"/>
						<path class="st15" d="M106.91,111.69l8.34,0.79c0.25,0.02,0.44,0.25,0.42,0.5l0,0c-0.02,0.25-0.25,0.44-0.5,0.42l-8.85-0.8
							L106.91,111.69z"/>
						<path class="st17" d="M99.28,105.32c-0.07,0.73-0.72,1.27-1.46,1.21c-0.73-0.07-1.27-0.72-1.21-1.46
							c0.07-0.73,0.72-1.27,1.46-1.21C98.81,103.93,99.35,104.58,99.28,105.32z"/>
					</g>
					<polygon class="st13" points="121.42,98.7 121.69,106.53 111.25,108.51 120.45,105.63 					"/>
				</g>
				<g>
					<g>
						<path class="st10" d="M115.88,91.07l0.7,1.87c0.25,0.68,0.88,1.14,1.6,1.19l0,0c1.37,0.09,2.35-1.29,1.81-2.55l-1.22-2.88
							L115.88,91.07z"/>
						<path class="st18" d="M116.5,92.74c0,0,3.44-0.65,2.93-3.66c-0.51-3.01-3.74-0.66-3.74-0.66l0.32,3L116.5,92.74z"/>
						<g>
							<g>
								<defs>
									<path id="XMLID_1_" d="M111.2,83.74c-1.26,2.7-0.1,5.91,2.6,7.17c2.7,1.26,5.91,0.1,7.17-2.6c1.26-2.7,0.1-5.91-2.6-7.17
										C115.67,79.88,112.46,81.05,111.2,83.74z"/>
								</defs>
								<use xlink:href="#XMLID_1_"  style="overflow:visible;fill:#EB8175;"/>
								<clipPath id="XMLID_00000099621577426387887900000005315859614722002109_">
									<use xlink:href="#XMLID_1_"  style="overflow:visible;"/>
								</clipPath>
								<path style="clip-path:url(#XMLID_00000099621577426387887900000005315859614722002109_);fill:#231C61;" d="M118.08,87.09
									c0,0-0.85,4.32,2.33,4.42c3.18,0.09,1.45-8.11,1.45-8.11l-5.03-5.06l-7.69,1.89l0.76,4.97c0,0,1.22,0.65,7.84-0.44
									L118.08,87.09z"/>
								<polygon style="clip-path:url(#XMLID_00000099621577426387887900000005315859614722002109_);fill:#231C61;" points="
									114.94,83.71 117.47,87.41 119.65,85 								"/>
							</g>
							<path class="st10" d="M117.24,86.09c-0.36,0.76-0.03,1.67,0.74,2.03c0.76,0.36,1.67,0.03,2.03-0.74
								c0.36-0.76,0.03-1.67-0.74-2.03C118.5,85,117.59,85.33,117.24,86.09z"/>
						</g>
					</g>
					<g>
						<path class="st20" d="M110.15,85.13c0,0-1.17-4.25,1.59-6.88c2.27-2.17,5.99-2.03,8.01,0.38c0.95,1.13,1.71,2.84,1.78,5.4
							L110.15,85.13z"/>
						<path class="st21" d="M110.73,85.06l-0.03-2.65c-0.01-0.67,0.52-1.23,1.19-1.26l0,0c0.66-0.03,1.24,0.46,1.3,1.12l0.27,2.65"
							/>
						<line class="st22" x1="121.53" y1="84.02" x2="109.15" y2="85.21"/>
					</g>
				</g>
			</g>
			<g>
				<g>
					<g>
						<polygon class="st10" points="234.25,227.48 237.02,230.17 233.86,231.87 231.15,229.21 						"/>
						<path class="st9" d="M214.71,207.39l1.85,8.21c0.37,1.64,1.09,3.22,2.11,4.67l12.21,10.97l4.83-3.93l-10.42-11.04l-3.82-14.56
							L214.71,207.39z"/>
						<g>
							<path class="st9" d="M233.77,231.79l-1,3.19l-1.14,1.59c-0.53,0.73-0.51,1.72,0.05,2.43l0.26,0.33l7.79-7.26l-3.11-2.91
								L233.77,231.79z"/>
							<polyline class="st9" points="239.8,232.09 231.95,239.41 231.32,238.74 239.17,231.42 239.8,232.09 							"/>
						</g>
					</g>
					<g>
						<polygon class="st10" points="207.55,232.47 206.51,235.95 202.94,234.99 203.98,231.57 						"/>
						<path class="st11" d="M212.35,198.24l-10.01,33.85l6.32,1.58l5.64-16.97l6.92-11.1c0.35-0.5,0.7-1.01,0.99-1.55
							c0.55-1.02,0.8-2.12,0.79-3.23l-0.02-2.2L212.35,198.24z"/>
						<g>
							<path class="st9" d="M203.14,234.65l-3.16,1.17l-1.97,0.07c-0.91,0.03-1.68,0.66-1.91,1.53l-0.11,0.41l10.58,1.74l0.41-4.28
								L203.14,234.65z"/>
							<polyline class="st9" points="206.61,239.65 195.95,237.89 196.1,236.98 206.76,238.73 206.61,239.65 							"/>
						</g>
					</g>
				</g>
				<g>
					<g>
						<g>
							<polygon class="st23" points="198.37,163.86 194.32,170.17 196.26,171.56 200.45,164.88 							"/>
							<path class="st24" d="M193.11,153.39c0,0,1.87,7.83,11.35,10.91c0.27,0.09,0.48,0.32,0.52,0.6c0.12,0.91,0.12,2.87-1.97,3.45
								c-0.2,0.05-0.42,0.01-0.59-0.09c-1.45-0.91-8.58-5.07-15.5-3.87L193.11,153.39z"/>
							<path class="st23" d="M193.11,153.39c0,0-1.74,7.81-6.2,10.99C186.91,164.38,187.54,157.54,193.11,153.39z"/>
						</g>
						<g>
							<g>
								<g>
									<path class="st10" d="M193,169.76c-0.29,1.44,0.89,3.19,2.33,3.48c1.44,0.29,2.84-0.63,3.13-2.07
										c0.29-1.44-0.89-3.19-2.33-3.48C194.7,167.4,193.3,168.32,193,169.76z"/>
								</g>
								<polyline class="st10" points="200.61,173.98 197.8,171.05 195.97,173.3 200.61,176.7 								"/>
							</g>
							<path class="st13" d="M200.16,171.27l-2.97,4.41l8.11,7.42c0.49,0.14,1.01,0.19,1.52,0.15l10.71-1.39
								c1.69-0.08,2.99-1.51,2.91-3.2l0,0c-0.08-1.69,0.24-4.13-1.44-4.05l-12.44,2.56L200.16,171.27z"/>
						</g>
					</g>
					<g>
						<g>
							<path class="st14" d="M224.17,181.39c0.29-2.34-0.78-4.65-2.76-5.93c-0.89-0.57-1.78-0.96-2.41-0.85
								c-2.13,0.36-4.33,1.33-5.27,4.21c-1.6,4.9-2.05,19.39-2.05,19.39l11.48,0.39L224.17,181.39z"/>
						</g>
						<polygon class="st13" points="219.94,181.75 223.39,194.43 224.09,183.67 						"/>
					</g>
					<g>
						<g>
							<g>
								<path class="st10" d="M234.01,206.78c1.08-0.99,1.16-3.1,0.18-4.18c-0.99-1.08-2.67-1.16-3.75-0.18
									c-1.09,0.99-1.16,3.1-0.18,4.18C231.24,207.68,232.92,207.76,234.01,206.78z"/>
							</g>
							<polyline class="st10" points="228.8,197.74 230.89,202.91 233.7,202.17 231.96,196.69 							"/>
						</g>
						<path class="st14" d="M228.93,201.73l5.75-1.26l-3.9-13.33c-0.14-0.49-0.38-0.96-0.69-1.37l-7.16-8.91
							c-0.97-1.39-2.6-1.14-3.98-0.17l0,0c-1.39,0.97-1.72,2.87-0.76,4.26l6.89,8.29L228.93,201.73z"/>
					</g>
				</g>
				<g>
					<g>
						<path class="st10" d="M216.31,172.87l0.22,2.01c0.08,0.73,0.57,1.34,1.27,1.56l0,0c1.32,0.43,2.62-0.68,2.41-2.05l-0.48-3.13
							L216.31,172.87z"/>
						<path class="st18" d="M216.51,174.66c0,0,3.54-0.12,3.8-3.19c0.25-3.07-3.51-1.24-3.51-1.24l-0.44,3.02L216.51,174.66z"/>
						<g>
							<g>
								<defs>
									<path id="XMLID_11_" d="M213.55,164.51c-1.91,2.33-1.57,5.77,0.76,7.68c2.33,1.91,5.77,1.57,7.68-0.76
										c1.91-2.33,1.57-5.77-0.76-7.68C218.9,161.84,215.46,162.18,213.55,164.51z"/>
								</defs>
								<use xlink:href="#XMLID_11_"  style="overflow:visible;fill:#EB8175;"/>
								<clipPath id="XMLID_00000115490692064836092770000011229819034356329365_">
									<use xlink:href="#XMLID_11_"  style="overflow:visible;"/>
								</clipPath>
								<path style="clip-path:url(#XMLID_00000115490692064836092770000011229819034356329365_);fill:#231C61;" d="M219.47,169.51
									c0,0-1.91,4.03,1.18,4.91c3.09,0.88,3.44-7.59,3.44-7.59l-3.67-6.21l-8.01-0.06l-0.49,5.07c0,0,1.04,0.94,7.79,1.52
									L219.47,169.51z"/>
								<polygon style="clip-path:url(#XMLID_00000115490692064836092770000011229819034356329365_);fill:#231C61;" points="
									217.23,165.42 218.79,169.67 221.52,167.85 								"/>
							</g>
							<path class="st10" d="M218.88,168.32c-0.54,0.66-0.44,1.63,0.22,2.17c0.66,0.54,1.63,0.44,2.17-0.22
								c0.54-0.66,0.44-1.63-0.22-2.17C220.4,167.56,219.42,167.66,218.88,168.32z"/>
						</g>
					</g>
					<g>
						<path class="st20" d="M212.14,166.08c0,0-0.27-4.45,3.01-6.48c2.7-1.67,6.35-0.76,7.85,2.05c0.7,1.32,1.1,3.16,0.64,5.71
							L212.14,166.08z"/>
						<path class="st26" d="M212.74,166.13l0.52-2.63c0.13-0.67,0.77-1.11,1.44-1l0,0c0.66,0.11,1.13,0.72,1.05,1.38l-0.29,2.68"/>
						<line class="st27" x1="223.64" y1="167.36" x2="211.13" y2="165.95"/>
					</g>
				</g>
			</g>
			<g>
				<g>
					<line class="st28" x1="299.94" y1="199.71" x2="287" y2="212.46"/>
					<line class="st28" x1="299.94" y1="186.08" x2="287" y2="198.83"/>
					<line class="st28" x1="299.94" y1="172.46" x2="287" y2="185.21"/>
					<line class="st28" x1="299.94" y1="158.83" x2="287" y2="171.58"/>
					<line class="st28" x1="299.94" y1="145.21" x2="287" y2="157.96"/>
					<line class="st28" x1="299.94" y1="131.58" x2="287" y2="144.33"/>
					<line class="st28" x1="299.94" y1="117.95" x2="287" y2="130.71"/>
					<line class="st28" x1="299.94" y1="104.33" x2="287" y2="117.08"/>
					<line class="st28" x1="299.94" y1="90.7" x2="287" y2="103.45"/>
					<line class="st28" x1="299.94" y1="77.08" x2="287" y2="89.83"/>
					<line class="st28" x1="299.94" y1="63.45" x2="287" y2="76.2"/>
					<line class="st28" x1="287" y1="198.83" x2="299.94" y2="198.83"/>
					<line class="st28" x1="287" y1="185.21" x2="299.94" y2="185.21"/>
					<line class="st28" x1="287" y1="171.58" x2="299.94" y2="171.58"/>
					<line class="st28" x1="287" y1="157.96" x2="299.94" y2="157.96"/>
					<line class="st28" x1="287" y1="144.33" x2="299.94" y2="144.33"/>
					<line class="st28" x1="287" y1="130.71" x2="299.94" y2="130.71"/>
					<line class="st28" x1="287" y1="117.08" x2="299.94" y2="117.08"/>
					<line class="st28" x1="287" y1="103.45" x2="299.94" y2="103.45"/>
					<line class="st28" x1="287" y1="89.83" x2="299.94" y2="89.83"/>
					<line class="st28" x1="287" y1="76.2" x2="299.94" y2="76.2"/>
					<line class="st29" x1="287" y1="216.15" x2="287" y2="65.63"/>
					<line class="st29" x1="299.94" y1="216.15" x2="299.94" y2="65.63"/>
					<rect x="280.33" y="212.46" class="st11" width="25.76" height="26.76"/>
				</g>
				<g>
					<g>
						<path class="st2" d="M299.97,65.63h-13.46c-2.38,0-4.3-1.93-4.3-4.3V44.44c0-2.38,1.93-4.3,4.3-4.3h13.46
							c2.38,0,4.3,1.93,4.3,4.3v16.89C304.27,63.7,302.35,65.63,299.97,65.63z"/>
						<path class="st30" d="M292.88,58.21h-8.67V46.29h8.67c1.8,0,3.26,1.46,3.26,3.26v5.41C296.14,56.75,294.68,58.21,292.88,58.21
							z"/>
					</g>
					<g>
						<g>
							<line class="st31" x1="201.67" y1="67.02" x2="212.01" y2="97.08"/>
							<line class="st31" x1="194.47" y1="63.45" x2="174.29" y2="90.7"/>
							<g>
								<path class="st20" d="M200.5,76.82l20.85,27.26c2.29,3,1.72,7.29-1.28,9.59l-27.26,20.85c-3,2.29-7.29,1.72-9.59-1.28
									l-20.85-27.26c-2.29-3-1.72-7.29,1.28-9.59l27.26-20.85C193.91,73.25,198.2,73.82,200.5,76.82z"/>
								<path class="st32" d="M198.92,81.95l17.06,22.31c1.88,2.45,1.41,5.97-1.05,7.84l-22.31,17.06
									c-2.45,1.88-5.97,1.41-7.84-1.05l-17.06-22.31c-1.88-2.45-1.41-5.97,1.05-7.84l22.31-17.06
									C193.54,79.03,197.05,79.5,198.92,81.95z"/>
								<g>
									<path class="st11" d="M193.63,115.21c-0.54,4.05-6.68,3.23-6.14-0.82C188.03,110.3,194.17,111.12,193.63,115.21z
										 M196.27,92.59l-2.41,17.01l-5.17-0.69c0.76-5.72,1.4-11.29,2.17-17.05L196.27,92.59z"/>
								</g>
							</g>
						</g>
						<g>
							<g>
								<circle class="st11" cx="198.72" cy="60.9" r="8.65"/>
								<path class="st33" d="M204.83,60.9c0,3.38-2.74,6.12-6.12,6.12c-3.38,0-6.12-2.74-6.12-6.12c0-3.38,2.74-6.12,6.12-6.12
									C202.09,54.79,204.83,57.53,204.83,60.9z"/>
							</g>
							<g>
								<line class="st28" x1="232.63" y1="21.81" x2="232.63" y2="40.14"/>
								<line class="st28" x1="216.19" y1="21.81" x2="216.19" y2="40.14"/>
								<line class="st28" x1="249.02" y1="21.81" x2="249.02" y2="40.14"/>
								<line class="st28" x1="267.23" y1="21.81" x2="267.23" y2="40.14"/>
								<line class="st28" x1="284.22" y1="21.81" x2="284.22" y2="40.14"/>
								<line class="st28" x1="301.83" y1="21.81" x2="301.83" y2="40.14"/>
								<line class="st28" x1="319.13" y1="21.81" x2="319.13" y2="40.14"/>
								<line class="st28" x1="215.34" y1="40.14" x2="232.63" y2="21.81"/>
								<line class="st28" x1="232.63" y1="40.14" x2="249.93" y2="21.81"/>
								<line class="st28" x1="249.93" y1="40.14" x2="267.23" y2="21.81"/>
								<line class="st28" x1="267.23" y1="40.14" x2="284.53" y2="21.81"/>
								<line class="st28" x1="284.53" y1="40.14" x2="301.83" y2="21.81"/>
								<line class="st28" x1="301.83" y1="40.14" x2="319.13" y2="21.81"/>
								<polygon class="st34" points="198.72,40.14 339.75,40.14 320.76,21.81 213.31,21.81 								"/>
								<line class="st34" x1="198.72" y1="40.14" x2="198.72" y2="60.9"/>
							</g>
						</g>
					</g>
				</g>
			</g>
			<g>
				<g>
					<g>
						<defs>
							<path id="XMLID_4_" d="M124.15,236.75l9.87-25.52c0.47-1.22,2.19-1.22,2.66,0l9.87,25.52H124.15z"/>
						</defs>
						<use xlink:href="#XMLID_4_"  style="overflow:visible;fill:#F5D100;"/>
						<clipPath id="XMLID_00000107551894777120740380000015638618639455182518_">
							<use xlink:href="#XMLID_4_"  style="overflow:visible;"/>
						</clipPath>
						
							<rect x="126.44" y="216.72" style="clip-path:url(#XMLID_00000107551894777120740380000015638618639455182518_);fill:#FAFAFA;" width="17.53" height="5.42"/>
						
							<rect x="125.48" y="226.95" style="clip-path:url(#XMLID_00000107551894777120740380000015638618639455182518_);fill:#FAFAFA;" width="19.83" height="5.42"/>
					</g>
					<rect x="122.35" y="236.75" class="st36" width="26.13" height="2.15"/>
				</g>
				<g>
					<g>
						<defs>
							<path id="XMLID_3_" d="M267.51,236.82l9.87-25.52c0.47-1.22,2.19-1.22,2.66,0l9.87,25.52H267.51z"/>
						</defs>
						<use xlink:href="#XMLID_3_"  style="overflow:visible;fill:#F5D100;"/>
						<clipPath id="XMLID_00000065065383345238315890000001032841877686361229_">
							<use xlink:href="#XMLID_3_"  style="overflow:visible;"/>
						</clipPath>
						
							<rect x="269.79" y="216.79" style="clip-path:url(#XMLID_00000065065383345238315890000001032841877686361229_);fill:#FAFAFA;" width="17.53" height="5.42"/>
						
							<rect x="268.84" y="227.03" style="clip-path:url(#XMLID_00000065065383345238315890000001032841877686361229_);fill:#FAFAFA;" width="19.83" height="5.42"/>
					</g>
					<rect x="265.7" y="236.82" class="st36" width="26.13" height="2.15"/>
				</g>
			</g>
			<g>
				<g>
					
						<ellipse transform="matrix(0.1473 -0.9891 0.9891 0.1473 -131.8414 235.2652)" class="st3" cx="70.53" cy="194.1" rx="20.5" ry="20.5"/>
					<g>
						<line class="st38" x1="70.53" y1="186.79" x2="70.53" y2="238.9"/>
						<line class="st38" x1="62.56" y1="187.85" x2="70.53" y2="196.79"/>
						<path class="st38" d="M77.6,196.3c-0.57,0.57-7.07,7.34-7.07,7.34"/>
					</g>
				</g>
				<line class="st38" x1="8.82" y1="239.4" x2="352.72" y2="239.4"/>
			</g>
		</g>
	</g>
</g>
</svg>
