<!--?xml version="1.0" standalone="no"?-->
              <svg id="sw-js-blob-svg" viewBox="0 0 100 100" xmlns="http://www.w3.org/2000/svg" version="1.1">
                    <defs> 
                        <linearGradient id="sw-gradient" x1="0" x2="1" y1="1" y2="0">
                            <stop id="stop1" stop-color="rgba(153.4, 146.205, 217.504, 1)" offset="0%"></stop>
                            <stop id="stop2" stop-color="rgba(29.361, 204.262, 235.718, 1)" offset="100%"></stop>
                        </linearGradient>
                    </defs>
                <path fill="url(#sw-gradient)" d="M24.4,-32.9C32.2,-28,39.5,-21.6,40,-14.3C40.5,-7.1,34.2,1,29.8,8.2C25.4,15.4,22.8,21.6,18.2,26.7C13.5,31.7,6.8,35.5,-0.5,36.2C-7.8,36.9,-15.6,34.5,-22.8,30.3C-30.1,26.2,-36.9,20.2,-40.8,12.2C-44.8,4.3,-46,-5.5,-42.2,-12.6C-38.4,-19.7,-29.5,-24.1,-21.6,-28.9C-13.8,-33.8,-6.9,-39.3,0.7,-40.3C8.3,-41.3,16.7,-37.8,24.4,-32.9Z" width="100%" height="100%" transform="translate(50 50)" stroke-width="0" style="transition: all 0.3s ease 0s;" stroke="url(#sw-gradient)"></path>
              </svg>